<?xml version="1.0" encoding="UTF-8"?><svg id="b" xmlns="http://www.w3.org/2000/svg" width="500" height="500" viewBox="0 0 500 500"><g id="c"><circle cx="250" cy="250.23" r="206.07"/><circle cx="250" cy="250.23" r="200.39" fill="#2954cc" stroke="#000" stroke-miterlimit="10"/><circle cx="250" cy="250.23" r="195.25" fill="#ffbf00"/><circle cx="250" cy="250.23" r="192.29" fill="#a9461d"/><circle cx="250" cy="250.23" r="155.81" fill="#ffbf00"/><circle cx="250" cy="250.23" r="152.68" fill="#2954cc"/><circle cx="250" cy="250.23" r="147.14" fill="#67f0e9"/><path d="M358.45,150.66c25.82,27.75,38.73,61.11,38.73,99.58,0,33.15-9.59,62.32-28.76,87.52-1.02,1.33-2.06,2.66-3.13,3.97-3.42,4.19-7.11,8.27-11.07,12.24-.48.48-1.44,1.44-1.92,1.91-28.35,27.7-62.44,41.55-102.29,41.55-35.52,0-66.47-11.5-92.87-33.51-3.72-3.1-7.83-6.42-11.37-9.95-4.46-4.47-8.57-9.07-12.34-13.82-1.07-1.34-2.1-2.7-3.11-4.07-3.18-4.31-5.84-8.73-8.46-13.25-.29-.49-.32-.99-.6-1.48-5.39-9.56-9.81-19.63-12.77-30.21-3.61-12.89-5.66-26.52-5.66-40.9,0-40.52,14.81-75.84,43.44-104.47,28.65-28.66,63.23-42.25,103.75-42.25s75.59,14.08,104.21,42.74c1.45,1.45,2.86,2.91,4.24,4.39ZM342.19,150.59c-25.45-25.46-56.18-38.19-92.19-38.19s-66.73,12.73-92.19,38.19c-25.46,25.45-38.19,56.18-38.19,92.19s12.73,66.73,38.19,92.19c.85.85,1.7,1.68,2.56,2.5,2.08,1.98,4.19,3.88,6.34,5.7,23.63,19.99,51.39,29.99,83.29,29.99s59.68-10,83.29-29.99c3.03-2.57,6-5.3,8.89-8.2,1.37-1.37,2.7-2.75,4-4.15,22.8-24.63,34.2-53.97,34.2-88.03,0-36.01-12.73-66.74-38.2-92.19Z" fill="#0bb4b1" fill-rule="evenodd"/></g><g id="d"><path d="M357.53,165.86c.04.12.08.23.12.35-.93-2-1.78-3.5-2.55-4.51-.16-.21-.32-.4-.48-.57-13.54-14.77-32.3-17.69-56.27-8.78-12.39,4.61-22.23,2.55-29.51-6.19-.21-.25-.41-.51-.62-.76,16.87-7.77,34.36-10.5,52.47-8.17,14.71,1.87,26.02,9.28,33.92,22.24.53.85,1.08,1.94,1.65,3.27.36.84.74,1.77,1.12,2.79.04.12.09.23.14.35ZM213.6,244.09c5.13-.58,10.44-1.28,15.95-2.1,6.4.85,11.58,2.32,15.53,4.39,1.91,1.07,3.35,2.02,4.31,2.83v.1s.03-.03.05-.04c0,0,0,0,.01-.01.02-.02.04-.04.06-.06.96-.81,2.4-1.76,4.31-2.83,3.95-2.07,9.13-3.53,15.53-4.39,5.51.81,10.82,1.51,15.95,2.1,13.1,1.48,24.92,2.19,35.47,2.14.04,0,.08,0,.11,0,4.53-.03,8.82-.2,12.87-.51-1.79-1.08-5.96-4.55-12.5-10.39,10.56,5.97,20.55,10.41,29.98,13.32h-7.12c-1.28-.12-3.02-.09-5.23.06-2.21.15-4.21.62-6,1.43-2.01.9-4.4,2.22-7.17,3.94-5.22,4.13-11.3,9.01-18.24,14.64-.6.48-1.2.97-1.81,1.47-7.74,6.16-14.74,11.11-21,14.85-6.27,3.74-12.93,6.69-19.97,8.86-4.93,1.51-9.89,2.37-14.9,2.59-.11,0-.22,0-.33.01-.11,0-.22,0-.33.01v-.02c-5.01-.21-9.98-1.08-14.9-2.59-7.04-2.17-13.7-5.12-19.97-8.86-6.26-3.74-13.26-8.69-21-14.85-.61-.49-1.21-.98-1.81-1.47-6.94-5.64-13.02-10.52-18.24-14.64-2.77-1.73-5.16-3.04-7.17-3.94-1.79-.81-3.79-1.28-6-1.43-2.2-.16-3.94-.18-5.23-.06h-7.12c9.43-2.92,19.42-7.36,29.98-13.32-6.54,5.84-10.71,9.31-12.5,10.39,4.05.3,8.34.47,12.87.51.03,0,.07,0,.11,0,10.55.05,22.38-.67,35.48-2.14ZM158.14,173.03c-.55.35-1.11.7-1.66,1.07.48-.43.96-.84,1.44-1.24,7.86-6.53,16.76-10.1,26.7-10.69,17.37.59,28.19,6.11,32.47,16.55-.64-.6-1.28-1.18-1.92-1.74-17.43-15.27-36.44-16.59-57.02-3.96ZM230.7,145.4c-.21.25-.41.51-.62.76-7.28,8.74-17.12,10.8-29.51,6.19-23.97-8.92-42.73-5.99-56.27,8.78-.16.16-.32.35-.48.57-.77,1.01-1.62,2.51-2.55,4.51.04-.11.08-.23.12-.35.05-.11.09-.23.14-.35.39-1.02.76-1.95,1.12-2.79.58-1.32,1.13-2.41,1.65-3.27,7.91-12.96,19.21-20.37,33.92-22.24,18.11-2.33,35.6.4,52.47,8.17ZM221.91,193.73c-2.36,1.13-5.04,2.1-8.04,2.88-6.7,1.76-14.99,2.65-24.89,2.67h-.42s.06-.01.09-.01h.05c8.41-1.22,15.14-3.02,20.17-5.42.4-.19.79-.38,1.16-.58-1.55-1.32-3.24-2.42-5.05-3.28-1.81-.87-2.9-1.23-3.27-1.08-.48.71-1.02,1.4-1.64,2.06-.16.18-.33.36-.51.53-3.2,3.2-7.08,4.81-11.61,4.81s-8.13-1.27-10.79-3.82c-1.1-1.07-2.01-2.04-2.74-2.92-.99-1.23-1.61-2.28-1.86-3.14-1.59.27-3.06.61-4.39,1.01-3.32.99-5.11,1.59-5.36,1.79.74.78,1.59,1.54,2.55,2.28,3.48,2.67,8.4,5.05,14.74,7.12-7.29-.43-13.99-2.19-20.12-5.29-.94-.48-1.88-.99-2.81-1.54-2.88.19-5.53.15-7.95-.11-3.28-.36-6.13-1.14-8.54-2.33,5.04-1.68,8.99-3.11,11.87-4.29,2.33-.97,4.43-1.71,6.3-2.22,13.12-4.58,26.99-4.58,41.64,0,.07.02.13.04.18.06,9.37,3.2,16.68,6.7,21.93,10.48-.23.12-.46.23-.7.35ZM340.79,173.03c-20.58-12.63-39.59-11.31-57.02,3.96-.64.56-1.28,1.14-1.92,1.74,4.27-10.44,15.1-15.96,32.47-16.55,9.93.59,18.83,4.15,26.7,10.69.48.4.97.82,1.44,1.24-.56-.37-1.11-.73-1.66-1.07ZM349.69,191.68c-2.42.26-5.07.3-7.95.11-.93.55-1.87,1.06-2.81,1.54-6.12,3.1-12.83,4.86-20.12,5.29,6.34-2.08,11.26-4.45,14.74-7.12.96-.74,1.81-1.5,2.55-2.28-.25-.2-2.04-.79-5.36-1.79-1.33-.4-2.79-.74-4.39-1.01-.25.86-.87,1.91-1.86,3.14-.72.88-1.64,1.85-2.74,2.92-2.65,2.55-6.25,3.82-10.79,3.82s-8.41-1.6-11.61-4.81c-.17-.17-.34-.35-.51-.53-.62-.66-1.16-1.34-1.64-2.06-.37-.15-1.46.21-3.27,1.08-1.82.86-3.5,1.96-5.05,3.28.37.2.76.39,1.16.58,5.03,2.4,11.75,4.21,20.17,5.42h.05s.06,0,.09.01h-.42c-9.89-.02-18.19-.92-24.89-2.67-3-.79-5.68-1.75-8.04-2.88-.24-.12-.47-.23-.7-.35,5.25-3.78,12.56-7.27,21.93-10.48.06-.02.12-.05.18-.06,14.64-4.58,28.52-4.58,41.64,0,1.87.51,3.97,1.25,6.3,2.22,2.88,1.18,6.83,2.61,11.87,4.29-2.42,1.19-5.26,1.97-8.54,2.33ZM176.16,249.02c.84,1.41,6.65,3.57,17.44,6.5,10.8,2.93,18.68,4.33,23.65,4.2,4.98-.13,8.55-.46,10.7-.97h.01c3.34.43,7.54,1.57,12.62,3.44,4.11,1.51,7.07,2.31,8.86,2.4,0,0,.02,0,.02,0,1.79-.09,4.75-.89,8.86-2.4,5.08-1.87,9.29-3.01,12.62-3.44h.01c2.15.52,5.72.84,10.7.97,4.97.12,12.86-1.28,23.65-4.2,10.79-2.93,16.6-5.09,17.44-6.5h-7.78c-8.56-.1-18.86-.97-30.89-2.63-4.5-.62-9.25-1.34-14.25-2.18-6.26.38-12.68,2.69-19.25,6.94-.31.19-.69.29-1.12.28,0,0-.02,0-.02,0-.43,0-.81-.09-1.12-.28-6.57-4.25-12.99-6.56-19.25-6.94-5,.84-9.75,1.57-14.25,2.18-12.03,1.65-22.33,2.53-30.89,2.63h-7.78ZM186.23,259.6c1.56,1.87,3.16,3.6,4.81,5.2,1.65,1.59,5.28,4.63,10.87,9.11,5.6,4.47,12.43,8.52,20.49,12.14,8.05,3.63,15.08,5.74,21.08,6.31,2.47.23,4.29.34,5.45.31v-.09c.07,0,.14.02.21.04.1.01.21.02.33.03.16.01.34.02.54.02,1.16.02,2.98-.08,5.45-.31,6-.58,13.02-2.68,21.08-6.31,8.05-3.62,14.88-7.67,20.49-12.14,5.6-4.48,9.22-7.51,10.87-9.11,1.64-1.6,3.25-3.34,4.81-5.2,1.56-1.87,2.79-3.44,3.7-4.72-2.28.51-3.85.83-4.72.97-1.73.28-5.38.99-10.93,2.13-9.31,1.88-18.58,2.7-27.8,2.45-5.43.35-10.31,1.52-14.64,3.54-3.69,1.72-6.61,2.63-8.78,2.74h-.05s-.02,0-.02,0h-.05c-2.16-.1-5.09-1.01-8.78-2.74-4.33-2.01-9.21-3.19-14.64-3.54-9.22.25-18.49-.57-27.8-2.45-5.55-1.14-9.2-1.85-10.93-2.13-.87-.14-2.44-.46-4.72-.97.9,1.28,2.14,2.86,3.7,4.72ZM280.92,228.11c2.98.39,4.12.86,3.4,1.43-4.44.35-7.4.66-8.9.91-1.94.34-3.27.59-3.99.76-3.03.72-5.43,1.64-7.2,2.75-1.93,1.3-3.69,2.31-5.26,3.04-1.59.72-2.94,1.27-4.07,1.65-.97.31-2.05.56-3.24.74-.97.15-1.6.23-1.91.26-.07,0-.12.01-.16.01h-.12c-.13,0-.22-.01-.28-.02h0c-.31-.01-.94-.1-1.91-.25-1.19-.18-2.27-.43-3.24-.74-1.13-.38-2.48-.93-4.07-1.65-1.58-.73-3.33-1.75-5.26-3.04-1.77-1.11-4.17-2.03-7.2-2.75-.72-.17-2.05-.43-3.99-.76-1.5-.25-4.46-.56-8.9-.91-.71-.57.42-1.04,3.4-1.43,1.84-.26,3.28-.41,4.31-.46,2.59-.1,5.05.41,7.38,1.53,2.34,1.12,5.09,2.64,8.26,4.56,2.61,1.59,4.56,2.58,5.85,3,1.3.4,2.58.64,3.86.71.71.04,1.23.06,1.57.07.07,0,.14,0,.19,0,.15,0,.23,0,.25,0,.33-.01.86-.04,1.57-.07,1.27-.07,2.56-.31,3.86-.71,1.29-.41,3.24-1.41,5.85-3,3.16-1.92,5.92-3.44,8.26-4.56,2.33-1.12,4.79-1.63,7.38-1.53,1.04.04,2.47.19,4.31.46Z" fill-rule="evenodd"/><path d="M283.77,176.99c-.51.71-1.08,1.53-1.73,2.48-.6.87-1.76,2.37-3.49,4.5-2.42,2.98-5.25,4.84-8.51,5.56-2.62-14.31-5.12-27.59-7.51-39.81-.02-.15-.05-.29-.09-.43.02-1.15,1.95-2.44,5.77-3.88.21.25.41.51.62.76,7.28,8.74,17.12,10.8,29.51,6.19,23.97-8.92,42.73-5.99,56.27,8.78.16.16.32.35.48.57.77,1.01,1.62,2.51,2.55,4.51-.04-.11-.08-.23-.12-.35.39.81.77,2,1.13,3.59.79,3.48.84,6.25.15,8.3-.69,2.05-2.36,2.92-5,2.63-2.65-.3-5.46-1.47-8.43-3.51l-4.59-3.82c.55.35,1.11.7,1.66,1.07-.48-.43-.96-.84-1.44-1.24-7.86-6.53-16.76-10.1-26.7-10.69-17.37.59-28.19,6.11-32.47,16.55.64-.6,1.28-1.18,1.92-1.74ZM178.02,246.24c-4.53-.03-8.82-.2-12.87-.51,1.79-1.08,5.96-4.55,12.5-10.39-10.56,5.97-20.55,10.41-29.98,13.32h7.12c1.28-.12,3.02-.09,5.23.06,2.21.15,4.21.62,6,1.43,2.01.9,4.4,2.22,7.17,3.94,5.22,4.13,11.3,9.01,18.24,14.64.6.48,1.2.97,1.81,1.47,7.74,6.16,14.74,11.11,21,14.85,6.27,3.74,12.93,6.69,19.97,8.86,4.93,1.51,9.89,2.37,14.9,2.59v.02c.11,0,.22,0,.33-.01.11,0,.22,0,.33-.01,5.01-.21,9.98-1.08,14.9-2.59,7.04-2.17,13.7-5.12,19.97-8.86,6.26-3.74,13.26-8.69,21-14.85.61-.49,1.21-.98,1.81-1.47,6.94-5.64,13.02-10.52,18.24-14.64,2.77-1.73,5.16-3.04,7.17-3.94,1.79-.81,3.79-1.28,6-1.43,2.2-.16,3.94-.18,5.23-.06h7.12c-9.43-2.92-19.42-7.36-29.98-13.32,6.54,5.84,10.71,9.31,12.5,10.39-4.05.3-8.34.47-12.87.51,1.75-1.29,2.63-2.27,2.63-2.93,0-.3-.74-1.7-2.23-4.2-1.5-2.51-2.24-4.01-2.24-4.5,0-.28.05-.5.15-.65.09-.15.21-.22.37-.22.05,0,.78.31,2.18.94,1.18.53,4.24,1.75,9.18,3.66,5.16,2,9.3,3.44,12.41,4.31,2.99.84,6.97,1.84,11.93,3,2.52.59,4.4,1.24,5.62,1.95,1.7.97-2.97,3.94-14.03,8.9-8.8,3.94-16.33,7.34-22.59,10.18-1.6.72-3.12,1.41-4.56,2.07-6.11,2.79-10.55,6.07-13.31,9.85-.43.58-.81,1.18-1.16,1.79-.14.25-.28.49-.41.73-.33.59-.63,1.15-.9,1.69-.2.39-.38.76-.54,1.12-.07.13-.13.27-.18.41-.3.67-.55,1.28-.73,1.82-.21.14-.41.28-.6.42-.39.26-.76.53-1.13.81-.05.03-.09.07-.14.11-1.87,1.41-3.6,2.73-5.2,3.94-2.09,1.57-3.95,2.97-5.6,4.2-.44.33-.88.66-1.33.99-2.56,1.85-5.36,3.65-8.38,5.4-2.48,1.43-5.02,2.83-7.61,4.19-1.14.59-2.28,1.18-3.43,1.76-3.83,1.91-7.15,3.73-9.95,5.47-2.88,1.77-5.62,5.11-8.22,10.03-.41.77-.78,1.65-1.11,2.62v2.34c-.1-.44-.22-.86-.33-1.27-.12.41-.23.83-.33,1.27v-2.34c-.33-.97-.7-1.85-1.11-2.62-2.6-4.92-5.34-8.27-8.22-10.03-2.8-1.74-6.12-3.57-9.95-5.47-1.14-.58-2.28-1.17-3.43-1.76-2.59-1.36-5.12-2.76-7.61-4.19-3.02-1.75-5.82-3.55-8.38-5.4-.45-.33-.9-.66-1.33-.99-1.64-1.23-3.51-2.63-5.6-4.2-1.6-1.22-3.34-2.53-5.2-3.94-.04-.04-.09-.08-.14-.11-.37-.28-.75-.55-1.13-.81-.2-.14-.4-.28-.6-.42-.18-.54-.42-1.15-.73-1.82-.06-.14-.12-.28-.18-.41-.16-.36-.35-.74-.54-1.12-.27-.53-.57-1.1-.9-1.69-.13-.24-.27-.48-.41-.73-.35-.61-.73-1.2-1.16-1.79-2.76-3.78-7.2-7.06-13.31-9.85-1.44-.66-2.96-1.35-4.56-2.07-6.26-2.84-13.79-6.24-22.59-10.18-11.05-4.96-15.73-7.93-14.03-8.9,1.22-.71,3.1-1.36,5.62-1.95,4.96-1.16,8.94-2.16,11.93-3,3.11-.87,7.25-2.31,12.41-4.31,4.95-1.91,8.01-3.14,9.18-3.66,1.41-.62,2.13-.94,2.18-.94.16,0,.28.07.37.22.1.16.15.37.15.65,0,.48-.75,1.98-2.24,4.5-1.49,2.51-2.23,3.91-2.23,4.2,0,.67.87,1.64,2.63,2.93ZM290.5,234.01c-.96,1.8-2.47,4.73-4.52,8.79-.23.44-.45.88-.65,1.29-5.13-.58-10.44-1.28-15.95-2.1-6.4.85-11.58,2.32-15.53,4.39-1.91,1.07-3.35,2.02-4.31,2.83-.02.02-.04.04-.06.06,0,0,0,0-.01.01-.02,0-.03.02-.05.04v-.1c-.96-.81-2.4-1.76-4.31-2.83-3.95-2.07-9.13-3.53-15.53-4.39-5.51.81-10.82,1.51-15.95,2.1-.21-.42-.42-.85-.65-1.29-2.05-4.06-3.56-6.99-4.52-8.79,4.84,1.09,11.22,1.13,19.13.1-16.43-.7-24.09-3.81-22.99-9.34.91-.5,2.19-.97,3.83-1.41,2.98-.8,5.42-1.2,7.32-1.2,3.38,0,7.23.84,11.55,2.53,4.32,1.68,8.18,2.85,11.57,3.49,3.39.64,6,.99,7.84,1.05,1.22.03,2.07.04,2.55.03v-.03s.1.02.21.02c.12,0,.2-.01.23-.02v.03c.48.01,1.33,0,2.55-.03,1.84-.06,4.45-.41,7.84-1.05,3.39-.64,7.25-1.8,11.57-3.49,4.32-1.68,8.17-2.53,11.55-2.53,1.9,0,4.34.4,7.32,1.2,1.64.44,2.92.9,3.83,1.41,1.1,5.53-6.56,8.64-22.99,9.34,7.91,1.03,14.29.99,19.13-.1ZM141.4,165.86c-.04.12-.08.23-.12.35.93-2,1.78-3.5,2.55-4.51.16-.21.32-.4.48-.57,13.54-14.77,32.3-17.69,56.27-8.78,12.39,4.61,22.23,2.55,29.51-6.19.21-.25.41-.51.62-.76,3.82,1.44,5.74,2.73,5.77,3.88-.03.14-.06.28-.09.43-2.38,12.23-4.89,25.5-7.51,39.81-3.25-.72-6.09-2.58-8.51-5.56-1.73-2.13-2.89-3.63-3.49-4.5-.64-.94-1.22-1.77-1.73-2.48.64.56,1.28,1.14,1.92,1.74-4.27-10.44-15.1-15.96-32.47-16.55-9.93.59-18.83,4.15-26.7,10.69-.48.4-.97.82-1.44,1.24.56-.37,1.11-.73,1.66-1.07l-4.59,3.82c-2.97,2.04-5.78,3.21-8.43,3.51-2.65.3-4.31-.58-5-2.63-.69-2.05-.64-4.81.15-8.3.36-1.59.74-2.78,1.13-3.59ZM180.11,198.62c2.72.48,5.57.69,8.54.65-.03,0-.06,0-.09.01h.42c9.89-.02,18.19-.92,24.89-2.67,3-.79,5.68-1.75,8.04-2.88-.78.89-2.19,2.55-4.24,4.99-2.53,2.87-4.98,5.33-7.36,7.38-7.22,6.24-14.35,9.36-21.41,9.36-9.41,0-17.88-2.97-25.4-8.91-2.74-2.17-5.62-4.95-8.64-8.33-.5-.56-1.06-1.19-1.66-1.89-1.13-1.3-2.44-2.85-3.96-4.65,2.42.26,5.07.3,7.95.11.93.55,1.87,1.06,2.81,1.54,6.12,3.1,12.83,4.86,20.12,5.29ZM318.81,198.62c7.29-.43,13.99-2.19,20.12-5.29.94-.48,1.88-.99,2.81-1.54,2.88.19,5.53.15,7.95-.11-1.51,1.8-2.83,3.35-3.96,4.65-.61.7-1.16,1.33-1.66,1.89-3.02,3.39-5.9,6.16-8.64,8.33-7.53,5.94-16,8.91-25.4,8.91-7.06,0-14.2-3.12-21.41-9.36-2.38-2.05-4.83-4.52-7.36-7.38-2.05-2.44-3.46-4.1-4.24-4.99,2.36,1.13,5.04,2.1,8.04,2.88,6.7,1.76,14.99,2.65,24.89,2.67h.42s-.06-.01-.09-.01c2.97.04,5.82-.18,8.54-.65ZM280.92,228.11c-1.84-.26-3.28-.41-4.31-.46-2.59-.1-5.05.41-7.38,1.53-2.34,1.12-5.09,2.64-8.26,4.56-2.61,1.59-4.56,2.58-5.85,3-1.3.4-2.58.64-3.86.71-.71.04-1.23.06-1.57.07-.02,0-.11,0-.25,0-.06,0-.12,0-.19,0-.33-.01-.86-.04-1.57-.07-1.27-.07-2.56-.31-3.86-.71-1.29-.41-3.24-1.41-5.85-3-3.16-1.92-5.92-3.44-8.26-4.56-2.33-1.12-4.79-1.63-7.38-1.53-1.04.04-2.47.19-4.31.46-2.98.39-4.12.86-3.4,1.43,4.44.35,7.4.66,8.9.91,1.94.34,3.27.59,3.99.76,3.03.72,5.43,1.64,7.2,2.75,1.93,1.3,3.69,2.31,5.26,3.04,1.59.72,2.94,1.27,4.07,1.65.97.31,2.05.56,3.24.74.97.15,1.6.23,1.91.26h0c.06,0,.16,0,.28.01h.12s.09,0,.16-.01c.31-.03.94-.11,1.91-.26,1.19-.18,2.27-.43,3.24-.74,1.13-.38,2.48-.93,4.07-1.65,1.58-.73,3.33-1.75,5.26-3.04,1.77-1.11,4.17-2.03,7.2-2.75.72-.17,2.05-.43,3.99-.76,1.5-.25,4.46-.56,8.9-.91.71-.57-.42-1.04-3.4-1.43Z" fill="#0bb4b1" fill-rule="evenodd"/><path d="M174.43,189.56c-3.01.4-6.03,1.05-9.06,1.94-.96-.74-1.81-1.5-2.55-2.28.25-.2,2.04-.79,5.36-1.79,1.33-.4,2.79-.74,4.39-1.01.25.86.87,1.91,1.86,3.14ZM208.87,193.85c-.86-.39-1.78-.75-2.75-1.1-1.92-.69-3.94-1.29-6.05-1.79.62-.66,1.16-1.34,1.64-2.06.37-.15,1.46.21,3.27,1.08,1.82.86,3.5,1.96,5.05,3.28-.37.2-.76.39-1.16.58ZM298.85,190.97c-2.11.5-4.13,1.1-6.05,1.79-.97.35-1.89.71-2.75,1.1-.4-.19-.79-.38-1.16-.58,1.55-1.32,3.24-2.42,5.05-3.28,1.81-.87,2.9-1.23,3.27-1.08.48.71,1.02,1.4,1.64,2.06ZM324.49,189.56c.99-1.23,1.61-2.28,1.86-3.14,1.59.27,3.06.61,4.39,1.01,3.32.99,5.11,1.59,5.36,1.79-.74.78-1.59,1.54-2.55,2.28-3.03-.89-6.05-1.53-9.06-1.94Z" fill="#935e0d" fill-rule="evenodd"/><path d="M165.37,191.5c3.03-.89,6.05-1.53,9.06-1.94.72.88,1.64,1.85,2.74,2.92,2.65,2.55,6.25,3.82,10.79,3.82s8.41-1.6,11.61-4.81c.17-.17.34-.35.51-.53,2.11.5,4.13,1.1,6.05,1.79.97.35,1.89.71,2.75,1.1-5.03,2.4-11.75,4.21-20.17,5.42h-.05c-2.97.04-5.82-.18-8.54-.65-6.34-2.08-11.26-4.45-14.74-7.12ZM298.85,190.97c.16.18.33.36.51.53,3.2,3.2,7.08,4.81,11.61,4.81s8.13-1.27,10.79-3.82c1.1-1.07,2.01-2.04,2.74-2.92,3.01.4,6.03,1.05,9.06,1.94-3.48,2.67-8.4,5.05-14.74,7.12-2.72.48-5.57.69-8.54.65h-.05c-8.41-1.22-15.14-3.02-20.17-5.42.86-.39,1.78-.75,2.75-1.1,1.92-.69,3.94-1.29,6.05-1.79Z" fill="#e1a52c" fill-rule="evenodd"/><path d="M176.16,249.02h7.78c8.56-.1,18.86-.97,30.89-2.63,4.5-.62,9.25-1.34,14.25-2.18,6.26.38,12.68,2.69,19.25,6.94.31.19.69.29,1.12.28,0,0,.02,0,.02,0,.43,0,.81-.09,1.12-.28,6.57-4.25,12.99-6.56,19.25-6.94,5,.84,9.75,1.57,14.25,2.18,12.03,1.65,22.33,2.53,30.89,2.63h7.78c-.84,1.41-6.65,3.57-17.44,6.5-10.8,2.93-18.68,4.33-23.65,4.2-4.98-.13-8.55-.46-10.7-.97h-.01c-3.34.43-7.54,1.57-12.62,3.44-4.11,1.51-7.07,2.31-8.86,2.4,0,0-.02,0-.02,0-1.79-.09-4.75-.89-8.86-2.4-5.08-1.87-9.29-3.01-12.62-3.44h-.01c-2.15.52-5.72.84-10.7.97-4.97.12-12.86-1.28-23.65-4.2-10.79-2.93-16.6-5.09-17.44-6.5ZM186.23,259.6c-1.56-1.87-2.79-3.44-3.7-4.72,2.28.51,3.85.83,4.72.97,1.73.28,5.38.99,10.93,2.13,9.31,1.88,18.58,2.7,27.8,2.45,5.43.35,10.31,1.52,14.64,3.54,3.69,1.72,6.61,2.63,8.78,2.73h0s.03,0,.05,0c0,0,.02,0,.02,0h.05c2.16-.1,5.09-1.01,8.78-2.74,4.33-2.01,9.21-3.19,14.64-3.54,9.22.25,18.48-.57,27.8-2.45,5.55-1.14,9.2-1.85,10.93-2.13.87-.14,2.44-.46,4.72-.97-.9,1.28-2.14,2.86-3.7,4.72-1.56,1.87-3.16,3.6-4.81,5.2-1.65,1.59-5.28,4.63-10.87,9.11-5.6,4.47-12.43,8.52-20.49,12.14-8.05,3.63-15.08,5.74-21.08,6.31-2.47.23-4.29.34-5.45.31-.2,0-.38-.01-.54-.02-.12,0-.23-.02-.33-.03-.07-.02-.14-.03-.2-.04v.09c-1.17.02-2.99-.08-5.46-.31-6-.58-13.02-2.68-21.08-6.31-8.05-3.62-14.88-7.67-20.49-12.14-5.6-4.48-9.22-7.51-10.87-9.11-1.64-1.6-3.25-3.34-4.81-5.2ZM284.33,263.61c-2.94.22-6.87.69-11.78,1.42-4.88.72-9.51,1.73-13.89,3.01-4.28,1.25-7.33,1.74-9.13,1.45-.02,0-.04,0-.06-.01-.02,0-.04,0-.06-.01v.02c-1.81.28-4.85-.2-9.13-1.45-4.38-1.28-9.01-2.28-13.89-3.01-4.91-.72-8.84-1.2-11.78-1.42-2.93-.23-5.25-.34-6.95-.32-1.69,0-2.77.25-3.23.74-.46.48-.39,1.33.21,2.53.6,1.2,2.43,3.08,5.5,5.65,3.07,2.56,8.34,5.52,15.84,8.86,7.26,3.24,14.95,4.78,23.06,4.63v-.03s.07,0,.11.01c.11,0,.22,0,.33.01.15,0,.3,0,.45.01,8.11.15,15.8-1.39,23.06-4.63,7.49-3.34,12.77-6.3,15.84-8.86s4.9-4.45,5.5-5.65c.6-1.2.67-2.04.21-2.53-.46-.48-1.54-.73-3.23-.74-1.7-.02-4.02.09-6.95.32Z" fill="#254ba0" fill-rule="evenodd"/><path d="M284.33,263.61c2.93-.23,5.25-.34,6.95-.32,1.69,0,2.77.25,3.23.74.46.48.39,1.33-.21,2.53-.6,1.2-2.43,3.08-5.5,5.65s-8.34,5.52-15.84,8.86c-7.26,3.24-14.95,4.79-23.06,4.63-.15,0-.3,0-.45-.01-.11,0-.22,0-.33-.01-.04,0-.08-.01-.11-.01v.03c-8.11.16-15.8-1.39-23.06-4.63-7.49-3.34-12.77-6.3-15.84-8.86-3.07-2.56-4.9-4.45-5.5-5.65-.6-1.2-.67-2.04-.21-2.53.46-.48,1.54-.73,3.23-.74,1.7-.02,4.02.09,6.95.32,2.94.22,6.87.69,11.78,1.42,4.88.72,9.51,1.73,13.89,3.01,4.28,1.25,7.33,1.74,9.13,1.45v-.02s.04,0,.06.01c.02,0,.04,0,.06.01,1.81.28,4.85-.2,9.13-1.45,4.38-1.28,9.01-2.28,13.89-3.01,4.91-.72,8.84-1.2,11.78-1.42Z" fill="#2954cc" fill-rule="evenodd"/><path d="M227.3,210.06c-12.4,4.52-19.91,8.96-22.52,13.34-.08.27-.15.54-.21.81-1.1,5.83,6.56,9.12,22.99,9.86-7.91,1.08-14.29,1.05-19.13-.1-3.9-.93-6.79-2.58-8.69-4.97-4.24-5.34,4.25-12.19,25.48-20.55,1.25-7.37,2.47-14.51,3.66-21.42,2.62-15.1,5.12-29.1,7.51-42,.02-.16.05-.31.09-.46,3.5-18.98,6.74-35.58,9.73-49.79.58-2.78,1.14-4.91,1.66-6.4.48-1.82,1.01-2.68,1.58-2.58,0,0,.02,0,.02,0,0,0,.02,0,.02,0,.57-.1,1.09.76,1.58,2.58.52,1.49,1.08,3.63,1.66,6.4,2.98,14.21,6.22,30.8,9.73,49.79.03.15.06.3.09.46,2.38,12.9,4.89,26.9,7.51,42,1.19,6.91,2.41,14.05,3.66,21.42,21.23,8.36,29.72,15.21,25.48,20.55-1.9,2.38-4.79,4.04-8.69,4.97-4.84,1.15-11.22,1.19-19.13.1,16.43-.74,24.09-4.02,22.99-9.86-.06-.27-.13-.54-.21-.81-2.61-4.38-10.12-8.83-22.52-13.34l-21.23-115.27c-.21-1.23-.51-2.23-.91-2.98,0-.02-.02-.03-.02-.05,0-.02-.02-.03-.02-.05v.09c-.4.75-.71,1.74-.91,2.98l-21.23,115.27Z" fill-rule="evenodd"/></g><g id="e"><path d="M281.49,127.39c-8.84,8.84-19.52,13.27-32.03,13.27-12.51,0-23.19-4.42-32.03-13.27-8.84-8.84-13.27-19.52-13.27-32.03,0-12.51,4.42-23.19,13.27-32.03,8.84-8.84,19.52-13.27,32.03-13.27,12.51,0,23.19,4.42,32.03,13.27,8.85,8.84,13.27,19.52,13.27,32.03,0,12.51-4.43,23.19-13.27,32.03Z" fill="#2954cc" fill-rule="evenodd"/><path d="M277.77,123.67c-7.81,7.81-17.25,11.72-28.31,11.72s-20.49-3.91-28.31-11.72c-7.81-7.81-11.72-17.25-11.72-28.31s3.91-20.49,11.72-28.31c7.81-7.81,17.25-11.72,28.31-11.72s20.49,3.91,28.31,11.72c7.81,7.81,11.72,17.25,11.72,28.31,0,11.06-3.91,20.49-11.72,28.31ZM274.41,120.31c6.89-6.89,10.33-15.2,10.33-24.95,0-9.75-3.44-18.06-10.33-24.95-6.89-6.89-15.2-10.33-24.95-10.33-9.75,0-18.06,3.44-24.95,10.33-6.89,6.89-10.33,15.2-10.33,24.95,0,9.75,3.44,18.06,10.33,24.95,6.89,6.89,15.2,10.33,24.95,10.33,9.75,0,18.06-3.44,24.95-10.33Z" fill="#ffbf00" fill-rule="evenodd"/><path d="M274.41,120.31c-6.89,6.89-15.2,10.33-24.95,10.33-9.75,0-18.06-3.44-24.95-10.33-6.89-6.89-10.33-15.2-10.33-24.95,0-9.75,3.44-18.06,10.33-24.95,6.89-6.89,15.2-10.33,24.95-10.33,9.75,0,18.06,3.44,24.95,10.33,6.89,6.89,10.33,15.2,10.33,24.95,0,9.75-3.44,18.06-10.33,24.95Z" fill="#a34421" fill-rule="evenodd"/><path d="M257.08,80.78h-.07v1.63h.07v-1.63ZM266.86,65.9c.15.15.23.34.23.56v57.26c0,.22-.08.41-.23.56-.15.15-.34.23-.56.23h-35.31c-.22,0-.41-.08-.56-.23-.15-.15-.23-.34-.23-.56v-57.26c0-.22.08-.41.23-.56.15-.15.34-.23.56-.23h35.31c.22,0,.41.08.56.23ZM252.15,87.62v-20.37h-20.37v20.37h20.37ZM253.73,84v3.63h3.35v-3.63h-3.35ZM255.43,82.42v-1.63h-1.7v1.63h1.7ZM258.66,87.62h6.84v-6.84h-6.84v6.84ZM265.51,89.21h-33.72v33.73h33.72v-33.73ZM265.51,67.25h-11.77v11.94h11.77v-11.94Z" fill="#e1a52c" fill-rule="evenodd"/><path d="M242.32,69.57c-1.56.92-2.98,2.02-4.26,3.28,0,0-.02.02-.03.03-.02.03-.04.04-.05.05-1.25,1.26-2.33,2.65-3.24,4.18,0,.02,0,.04-.01.05h0c-.93,1.59-1.64,3.27-2.14,5.08-.51,1.8-.77,3.67-.78,5.62,0,2.74.32,5.4.94,7.96.6,2.56,1.46,4.99,2.6,7.29h.01c1.13,2.32,2.5,4.48,4.1,6.47,1.6,1.99,3.4,3.78,5.39,5.39,1.99,1.59,4.14,2.95,6.45,4.09h.01c2.3,1.16,4.74,2.03,7.3,2.64,2.56.61,5.2.91,7.94.92h.07c.44.04.68.27.71.7v.09c-.04.44-.27.68-.71.71h-.05c-2.43,0-4.8-.23-7.12-.7-2.33-.47-4.58-1.15-6.75-2.04-2.18-.91-4.25-2.02-6.22-3.34-1.98-1.32-3.82-2.83-5.54-4.55-1.71-1.71-3.23-3.56-4.55-5.54-1.33-1.97-2.44-4.04-3.34-6.21-.9-2.18-1.58-4.43-2.04-6.75-.47-2.33-.7-4.71-.7-7.15,0-2.09.28-4.1.82-6.03.54-1.92,1.3-3.72,2.28-5.42.02-.02.04-.04.05-.05.97-1.64,2.12-3.14,3.47-4.48,0-.03.02-.05.04-.07,0,0,.02-.01.03-.01,1.35-1.35,2.86-2.52,4.51-3.49.02-.02.04-.03.05-.04h0c1.69-1,3.5-1.76,5.43-2.29,1.92-.54,3.92-.8,6.02-.8,1.58,0,3.09.24,4.52.73,1.43.48,2.74,1.16,3.93,2.04,1.19.87,2.22,1.9,3.1,3.09.88,1.2,1.56,2.51,2.04,3.93.47,1.43.72,2.94.73,4.54-.02,1.26-.25,2.43-.71,3.53h0s-.01.02-.01.03c-.47,1.08-1.11,2.03-1.92,2.86,0,0-.02.02-.03.03-.03.03-.04.04-.05.05-.83.82-1.78,1.46-2.85,1.92h-.01c-1.1.47-2.29.7-3.56.71h-.12c-.81-.02-1.56-.18-2.25-.5-.02,0-.04-.02-.05-.03-.67-.31-1.25-.71-1.75-1.21-.03,0-.04-.02-.05-.04-.54-.54-.95-1.16-1.24-1.87,0,0-.01-.02-.01-.04-.29-.69-.44-1.45-.45-2.25.02-.72.2-1.38.54-1.96,0,0,0-.02.01-.04.35-.59.83-1.06,1.42-1.41,0,0,.02-.01.03-.01.59-.33,1.24-.51,1.95-.51h.01c.49,0,.94.12,1.33.34.02,0,.03.01.04.01.4.24.72.56.96.96,0,0,.02.02.03.03.24.41.36.87.37,1.37h0c0,.37-.1.7-.26.99h-.01s0,.04-.01.05c-.18.27-.4.5-.69.67-.02,0-.03,0-.04.01-.28.17-.59.25-.94.26h-.05c-.4-.02-.73-.15-.99-.4,0,0-.02-.02-.04-.04h-.01c-.28-.28-.43-.63-.45-1.05v-.08c.04-.43.27-.66.71-.7h.09c.41.03.65.25.71.66v.09c.13,0,.24-.05.32-.13h.01c.08-.09.12-.2.13-.33,0-.22-.05-.42-.15-.59,0,0-.01,0-.01-.01,0-.02-.02-.04-.03-.05h0c-.11-.17-.24-.3-.41-.41-.19-.11-.4-.16-.62-.16h-.01c-.44,0-.84.1-1.2.3,0,0,0,.01-.01.01-.37.23-.66.52-.88.88h-.01s0,.03-.01.03c-.2.37-.31.78-.32,1.23,0,.59.11,1.15.33,1.69.22.53.53,1,.94,1.41,0,0,.02.02.03.03.02.02.03.03.04.04.4.4.85.69,1.34.9h.01s.02.02.04.03h.01c.53.22,1.09.33,1.67.33h.07c1.05-.02,2.03-.22,2.94-.62.91-.4,1.72-.94,2.43-1.63h-.01c.69-.69,1.24-1.5,1.62-2.43,0,0,.01-.02.01-.03.38-.91.57-1.88.58-2.91,0-1.42-.22-2.77-.65-4.05-.44-1.27-1.05-2.44-1.82-3.51-.79-1.07-1.72-2-2.8-2.78-1.06-.78-2.23-1.39-3.51-1.82-1.27-.43-2.62-.65-4.03-.66-1.95,0-3.82.26-5.62.76-1.79.49-3.47,1.2-5.02,2.11-.02,0-.03.02-.05.03Z" fill="#0bb4b1" fill-rule="evenodd"/></g><g id="f"><path d="M271.62,210.06l-4.03-1.39-13.94-89.23c-1.45-.96-2.96-1.38-4.52-1.27-1.66.09-2.94.52-3.86,1.27l-13.94,89.23-4.03,1.39,21.23-115.27c.21-1.23.51-2.23.91-2.98v-.09s.02.03.02.05c0,.02.02.03.02.05.4.75.71,1.74.91,2.98l21.23,115.27Z" fill="#0bb4b1" fill-rule="evenodd"/></g><g id="g"><path d="M196.51,187.34l5.32,1.44c-.41.81-1.1,1.66-2.07,2.54l-3.25-3.98ZM326.35,186.41c-.41,1.2-1.03,2.25-1.86,3.16l-3.92-3.81,5.78.65Z" fill="#069" fill-rule="evenodd"/><path d="M275.68,277.5c0,1.28-.85,2.33-2.55,3.14-1.71.81-3.94,1.57-6.71,2.31-2.76.72-5.88,1.28-9.37,1.68,6.04-2.58,9.47-4.07,10.29-4.47.82-.41,1.44-.69,1.86-.83.41-.15,1.38-.71,2.91-1.69,1.52-.98,2.47-1.36,2.85-1.13.48.28.71.61.71,1Z" fill="#527cec" fill-rule="evenodd"/><path d="M263.87,225.65c3.01-1.17,4.62-2.27,4.84-3.31.22-1.04.19-2.24-.1-3.62.22.44.53,1.01.91,1.7.84,1.57,1.13,2.89.84,3.96-.28,1.07-3.4,2.27-9.36,3.6-2.1.47-4.86.88-8.3,1.23,4.43-1.21,8.15-2.4,11.16-3.56Z" fill="#c6f0ed" fill-rule="evenodd"/></g><g id="h"><circle cx="248.81" cy="33.07" r="11.25" fill="#d8b016"/><circle cx="214.85" cy="35.93" r="11.25" fill="#d8b016"/><circle cx="181.76" cy="44.07" r="11.25" fill="#d8b016"/><circle cx="150.35" cy="57.28" r="11.25" fill="#d8b016"/><circle cx="121.39" cy="75.24" r="11.25" fill="#d8b016"/><circle cx="95.6" cy="97.52" r="11.25" fill="#d8b016"/><circle cx="73.61" cy="123.55" r="11.25" fill="#d8b016"/><path d="M61.07,142.68c5.54,2.82,7.74,9.6,4.92,15.13-2.82,5.54-9.6,7.74-15.13,4.92-5.54-2.82-7.74-9.6-4.92-15.13,2.82-5.54,9.6-7.74,15.13-4.92Z" fill="#d8b016" fill-rule="evenodd"/><circle cx="43.09" cy="184.26" r="11.25" fill="#d8b016"/><path d="M37.08,206.33c6.14.97,10.32,6.74,9.35,12.87-.97,6.14-6.74,10.33-12.87,9.35-6.14-.97-10.33-6.74-9.35-12.87.97-6.14,6.74-10.33,12.87-9.35Z" fill="#d8b016" fill-rule="evenodd"/><path d="M32.83,240.17c6.21,0,11.25,5.04,11.25,11.25,0,6.21-5.04,11.25-11.25,11.25s-11.25-5.04-11.25-11.25c0-6.22,5.04-11.25,11.25-11.25Z" fill="#d8b016" fill-rule="evenodd"/><path d="M33.93,274.27c6.14-.97,11.9,3.22,12.87,9.35.97,6.14-3.22,11.9-9.35,12.87s-11.9-3.21-12.87-9.35c-.97-6.14,3.21-11.9,9.35-12.87Z" fill="#d8b016" fill-rule="evenodd"/><path d="M40.36,307.77c5.91-1.92,12.26,1.31,14.18,7.22,1.92,5.91-1.31,12.26-7.22,14.18-5.91,1.92-12.26-1.31-14.18-7.22-1.92-5.91,1.31-12.26,7.22-14.18Z" fill="#d8b016" fill-rule="evenodd"/><path d="M51.94,339.86c5.54-2.82,12.31-.62,15.13,4.92,2.82,5.54.62,12.31-4.92,15.13-5.54,2.82-12.31.62-15.13-4.92-2.82-5.54-.62-12.31,4.92-15.13Z" fill="#d8b016" fill-rule="evenodd"/><path d="M68.4,369.74c5.03-3.65,12.06-2.54,15.72,2.49,3.65,5.03,2.54,12.06-2.49,15.72-5.03,3.65-12.06,2.54-15.72-2.49-3.65-5.03-2.54-12.06,2.49-15.72Z" fill="#d8b016" fill-rule="evenodd"/><path d="M89.33,396.68c4.39-4.39,11.52-4.4,15.91,0,4.39,4.39,4.39,11.52,0,15.91-4.39,4.39-11.52,4.39-15.91,0-4.39-4.39-4.39-11.52,0-15.91Z" fill="#d8b016" fill-rule="evenodd"/><path d="M114.22,420.01c3.65-5.03,10.69-6.14,15.72-2.49,5.03,3.65,6.14,10.69,2.49,15.72-3.65,5.03-10.69,6.14-15.72,2.49-5.03-3.65-6.14-10.69-2.49-15.72Z" fill="#d8b016" fill-rule="evenodd"/><path d="M142.45,439.16c2.82-5.54,9.6-7.74,15.13-4.92,5.54,2.82,7.74,9.6,4.92,15.13-2.82,5.54-9.6,7.74-15.13,4.92-5.54-2.82-7.74-9.6-4.92-15.13Z" fill="#d8b016" fill-rule="evenodd"/><path d="M173.33,453.66c1.92-5.91,8.27-9.15,14.18-7.22,5.91,1.92,9.14,8.27,7.22,14.18-1.92,5.91-8.27,9.14-14.18,7.22-5.91-1.92-9.15-8.27-7.22-14.18Z" fill="#d8b016" fill-rule="evenodd"/><path d="M206.09,463.15c.97-6.14,6.74-10.33,12.87-9.35,6.14.97,10.33,6.74,9.35,12.87-.97,6.14-6.74,10.33-12.87,9.35-6.14-.97-10.33-6.74-9.35-12.87Z" fill="#d8b016" fill-rule="evenodd"/><path d="M239.94,467.4c0-6.21,5.04-11.25,11.25-11.25,6.21,0,11.25,5.04,11.25,11.25s-5.04,11.25-11.25,11.25c-6.21,0-11.25-5.04-11.25-11.25Z" fill="#d8b016" fill-rule="evenodd"/><path d="M274.04,466.3c-.97-6.14,3.22-11.9,9.35-12.87,6.14-.97,11.9,3.22,12.87,9.35.97,6.14-3.22,11.9-9.35,12.87-6.14.97-11.9-3.21-12.87-9.35Z" fill="#d8b016" fill-rule="evenodd"/><path d="M307.54,459.88c-1.92-5.91,1.31-12.26,7.22-14.18,5.91-1.92,12.26,1.31,14.18,7.23,1.92,5.91-1.31,12.26-7.22,14.18-5.91,1.92-12.26-1.31-14.18-7.23Z" fill="#d8b016" fill-rule="evenodd"/><path d="M339.63,448.29c-2.82-5.54-.62-12.31,4.92-15.13,5.54-2.82,12.31-.62,15.14,4.92,2.82,5.54.62,12.31-4.92,15.13-5.54,2.82-12.31.62-15.13-4.92Z" fill="#d8b016" fill-rule="evenodd"/><path d="M369.51,431.83c-3.65-5.03-2.54-12.06,2.49-15.72,5.03-3.65,12.06-2.54,15.72,2.49,3.65,5.03,2.54,12.06-2.49,15.72-5.03,3.65-12.06,2.54-15.72-2.49Z" fill="#d8b016" fill-rule="evenodd"/><path d="M396.45,410.9c-4.39-4.39-4.39-11.52,0-15.91,4.4-4.39,11.52-4.39,15.91,0,4.39,4.39,4.39,11.52,0,15.91-4.39,4.4-11.52,4.4-15.91,0Z" fill="#d8b016" fill-rule="evenodd"/><path d="M419.78,386.02c-5.03-3.65-6.14-10.69-2.49-15.72,3.65-5.03,10.69-6.14,15.72-2.49,5.03,3.65,6.14,10.69,2.49,15.72-3.65,5.03-10.69,6.14-15.72,2.49Z" fill="#d8b016" fill-rule="evenodd"/><path d="M438.93,357.78c-5.54-2.82-7.74-9.6-4.92-15.13,2.82-5.54,9.6-7.74,15.13-4.92,5.54,2.82,7.74,9.6,4.92,15.13-2.82,5.54-9.6,7.74-15.13,4.92Z" fill="#d8b016" fill-rule="evenodd"/><path d="M453.43,326.91c-5.91-1.92-9.15-8.27-7.23-14.18,1.92-5.91,8.27-9.15,14.18-7.22,5.91,1.92,9.14,8.27,7.22,14.18-1.92,5.91-8.27,9.15-14.18,7.22Z" fill="#d8b016" fill-rule="evenodd"/><path d="M462.92,294.14c-6.14-.97-10.33-6.73-9.35-12.87.97-6.14,6.74-10.33,12.88-9.35,6.14.97,10.33,6.74,9.35,12.87-.97,6.14-6.74,10.32-12.87,9.35Z" fill="#d8b016" fill-rule="evenodd"/><path d="M467.17,260.29c-6.21,0-11.25-5.04-11.25-11.25,0-6.21,5.04-11.25,11.25-11.25,6.21,0,11.25,5.04,11.25,11.25,0,6.22-5.04,11.25-11.25,11.25Z" fill="#d8b016" fill-rule="evenodd"/><path d="M466.07,226.19c-6.14.97-11.9-3.21-12.87-9.35-.97-6.14,3.22-11.9,9.35-12.87,6.14-.97,11.9,3.22,12.87,9.35.97,6.14-3.22,11.9-9.35,12.87Z" fill="#d8b016" fill-rule="evenodd"/><path d="M459.64,192.69c-5.91,1.92-12.26-1.31-14.18-7.22-1.92-5.91,1.31-12.26,7.23-14.18,5.91-1.92,12.26,1.31,14.18,7.22,1.92,5.91-1.31,12.26-7.23,14.18Z" fill="#d8b016" fill-rule="evenodd"/><path d="M448.06,160.6c-5.54,2.82-12.31.62-15.13-4.92-2.82-5.54-.62-12.31,4.92-15.13,5.54-2.82,12.31-.62,15.13,4.92,2.82,5.54.62,12.31-4.92,15.13Z" fill="#d8b016" fill-rule="evenodd"/><path d="M431.6,130.72c-5.03,3.65-12.06,2.54-15.72-2.49-3.65-5.03-2.54-12.07,2.49-15.72,5.03-3.65,12.06-2.54,15.72,2.49,3.65,5.03,2.54,12.06-2.49,15.72Z" fill="#d8b016" fill-rule="evenodd"/><path d="M410.67,103.79c-4.39,4.39-11.52,4.4-15.91,0-4.39-4.4-4.39-11.52,0-15.91,4.39-4.39,11.52-4.39,15.91,0,4.4,4.39,4.39,11.52,0,15.91Z" fill="#d8b016" fill-rule="evenodd"/><path d="M385.78,80.45c-3.65,5.03-10.69,6.14-15.72,2.49-5.03-3.65-6.14-10.69-2.49-15.72,3.65-5.03,10.69-6.14,15.72-2.49,5.03,3.65,6.14,10.69,2.49,15.72Z" fill="#d8b016" fill-rule="evenodd"/><path d="M357.55,61.3c-2.82,5.54-9.6,7.74-15.13,4.92-5.54-2.82-7.74-9.6-4.92-15.14,2.82-5.54,9.6-7.74,15.13-4.92,5.54,2.82,7.74,9.6,4.92,15.13Z" fill="#d8b016" fill-rule="evenodd"/><path d="M326.67,46.8c-1.92,5.91-8.27,9.14-14.18,7.22-5.91-1.92-9.15-8.27-7.22-14.18,1.92-5.91,8.27-9.15,14.18-7.22,5.91,1.92,9.14,8.27,7.22,14.18Z" fill="#d8b016" fill-rule="evenodd"/><path d="M293.91,37.31c-.97,6.14-6.73,10.33-12.87,9.35-6.14-.97-10.33-6.74-9.35-12.87.97-6.14,6.74-10.33,12.87-9.35,6.14.97,10.33,6.74,9.35,12.88Z" fill="#d8b016" fill-rule="evenodd"/></g><g id="i"><path d="M153.62,293.64c-1.09.53-2.11,1.07-3.06,1.6-4.32,2.42-7.19,4.88-8.62,7.36-2.3,6.53-4.77,11.64-7.42,15.33-2.65,3.69-3.77,7.06-3.37,10.1.38,2.81,1.72,6.04,4.02,9.69.03-.5.56-1.47,1.58-2.89.68-.94,1.44-1.58,2.28-1.94.45-.2.92-.31,1.41-.34,1.44-.08,2.79.84,4.07,2.77,1.27,1.93,1.96,3.48,2.05,4.64.06.72-.11,1.72-.5,3-.24.78-.57,1.66-.98,2.65-1.3,3.28-1.95,5.57-1.95,6.86,0,.94.1,1.76.31,2.44.4,1.26,1.1,1.9,2.12,1.9.67,0,1.31-.07,1.93-.21,1.23-.29,2.36-.85,3.39-1.69.45-.37.88-.79,1.29-1.27.73-.85,1.39-1.85,2-3.03.66-1.29,1.22-2.54,1.68-3.75.1-.27.19-.52.28-.78.82-2.4,1.22-4.65,1.21-6.76-.02-3.4-.6-7.49-1.74-12.25-.52-2.21-.96-3.99-1.31-5.33-.03-.1-.05-.2-.07-.29-.35-1.35-.59-2.22-.75-2.61l1.27,3,2.9,6.82c3.21-.48,6.23-1.9,9.08-4.27.64-.54,1.27-1.12,1.9-1.74,1.13-1.13,2.23-2.42,3.29-3.86.65-.88,1.29-1.82,1.92-2.82.24-.38.48-.76.71-1.15-.13.32-.27.64-.4.94-.68,1.59-1.39,3.02-2.12,4.31-.65,1.15-1.32,2.17-2,3.07-.03.04-.06.07-.08.11h-.15v.2c-.6.76-1.22,1.43-1.84,2-.52.48-1.05.94-1.58,1.37-.62.5-1.25.98-1.88,1.42-1.29.91-2.6,1.69-3.94,2.35h0c-.26.21-.85.52-1.76.94.61.79,1,2.68,1.14,5.68.32,6.34-.78,11.71-3.3,16.11-.28.49-.58.95-.89,1.39-.3.43-.61.82-.94,1.19-.17.2-.35.4-.53.59-.83.85-1.74,1.54-2.72,2.08-1.66.9-3.53,1.36-5.63,1.37-.04.34-.08.75-.15,1.22-.41,3-.67,4.98-.76,5.92-.09.94.2,2.43.87,4.48.14.43.33.91.57,1.45.31.71.7,1.51,1.17,2.42.05.09.1.19.15.28.89,1.68,2.06,3.68,3.5,6,0,0,.07.14.19.39.12.25.88,1.05,2.29,2.41,1.42,1.35,4.49,2.68,9.21,3.99,3.94,1.1,9.09-.92,15.44-6.04-2.37,3.51-4.45,5.87-6.24,7.06,1.91,2.85,4.33,5.06,7.27,6.63,3.51,1.86,6.58,2.81,9.22,2.83,2.64.01,4.27-.11,4.88-.38.61-.27,1.22-.54,1.8-.8.59-.27,1.71-1.17,3.34-2.71,1.49-1.41,4.37-5.21,8.66-11.41-.52.96-1.14,2.3-1.87,4.03-.72,1.73-2.03,4.08-3.92,7.05-1.89,2.97-3.44,4.64-4.63,5.02,1.15,1.04,3.1,2,5.86,2.88,1.68.53,3.42.96,5.22,1.3,1.58.29,2.77.44,3.56.44,1.69,0,3.08-.18,4.16-.52,1.09-.35,1.89-.66,2.39-.92.51-.27,1.26-.81,2.26-1.62,1-.81,2.9-4.93,5.71-12.36-.24,1.43-.58,3.05-1.02,4.85-.68,2.8-1.35,4.99-2.01,6.55-.66,1.56-.08,2.56,1.73,3,1.82.43,3.79.76,5.91.97,2.12.22,4.05.1,5.77-.35,1.51-.39,2.81-.98,3.9-1.76.41-.29.78-.62,1.13-.96,2.79-2.78,3.31-8.2,1.55-16.27-.16-.76-.35-1.48-.57-2.16-2.07-6.55-6.45-9.39-13.14-8.52-.2,1.57-.45,3.12-.76,4.65-.1.48-.2.96-.31,1.44-.08.37-.17.74-.26,1.1-.34,1.36-.72,2.7-1.14,4.03.12-.85.22-1.67.31-2.44.05-.36.09-.72.13-1.06.06-.47.1-.92.14-1.35.02-.18.04-.36.05-.53.01-.15.02-.29.03-.43.2-2.41.21-4.27.04-5.59-.28-2.23-1.29-4.12-3.02-5.67-.2-.18-.41-.36-.63-.52-.01-.01-.03-.02-.04-.03-1.55-1.22-3.24-1.94-5.06-2.18-2.08-.27-3.61-.19-4.58.25-.17.08-.33.17-.47.26.27.12.48.96.62,2.52.04.44.05.9.01,1.37-.08,1.18-.4,2.46-.94,3.85,3.81,2.38,7.3,3.48,10.48,3.31-.13.02-.27.04-.41.07-.75.14-1.62.22-2.62.24-1,.01-2.13-.13-3.4-.43-1.26-.31-2.79-.85-4.6-1.63-1.04,2.24-2.22,4.15-3.54,5.75-.49.59-1,1.14-1.52,1.65,1.7-2.74,2.95-5.21,3.73-7.42,1.17-3.31,1.31-6.03.41-8.15-.57-1.34-1.57-2.76-2.99-4.24-1.41-1.49-3.45-2.41-6.11-2.75-2.65-.34-5.29.07-7.89,1.2-2.05.89-4.01,2.25-5.88,4.06-.5.49-1,1.01-1.5,1.56.03-.05.05-.1.07-.15,0,0,.01,0,.01-.01.11-.21.22-.42.32-.62.31-.57.58-1.08.81-1.53h0s.02-.04.03-.05c.81-1.54,1.23-2.38,1.26-2.52.03-.14.04-.42.04-.85v-.07c-.03-2.03-1.36-3.89-3.96-5.59-2.53-1.65-5.13-2.47-7.81-2.47-.17,0-.34,0-.51.01-3.72.09-7.41,1.17-11.09,3.24-1.5.84-3.72,2.57-6.68,5.2-.66.59-1.37,1.22-2.11,1.9-.39.36-.8.74-1.22,1.13-.22.2-.44.4-.66.61,0,0,0,.01-.01.02-.34.31-.68.64-1.03.96l6.84-8.43c-.33-.31-.8-.58-1.4-.83-.26-.1-.64-.22-1.13-.34-.7-.18-1.63-.38-2.81-.61.29-.04.57-.06.86-.08.13-.01.25-.02.38-.02.21-.01.42-.02.63-.02,1.65,0,3.3.28,4.97.85,1.83-1.19,3.4-2.21,4.71-3.08,1.7-1.13,3.46-1.96,5.26-2.49.09-.03.18-.06.26-.08,1.56-.44,3.16-.66,4.8-.65,3.62.01,6.73.9,9.35,2.67,2.2,1.48,3.67,3.34,4.41,5.57,1.86-1.09,4.28-1.75,7.25-1.98,2.45-.2,4.61.06,6.47.78.39.15.77.31,1.13.5,2.1,1.09,3.77,2.56,5,4.41.41-.36,1.76-.57,4.06-.65,2.72-.1,5.43.85,8.1,2.83,1.22.89,2.21,1.82,2.99,2.77.95,1.15,1.58,2.34,1.9,3.57,7.71.07,12.82,2.87,15.33,8.4.92,2.01,1.55,3.61,1.91,4.79.23-.99.45-2.13.66-3.41.21-1.29.3-2.86.26-4.71-.25-2.96-1.4-4.93-3.44-5.9-.94-.45-1.89-.77-2.85-.93-.71-.13-1.43-.17-2.14-.15-.39.01-.78.05-1.17.12.31-.08.63-.15.94-.21,1.59-.29,3.17-.17,4.73.34,1.87.61,3.42,1.44,4.63,2.49v-18.86c-.05-4.66.11-11.25.47-19.78.06-1.43.07-2.78.03-4.08-.2-6.5-1.64-11.43-4.33-14.81-1.81-2.28-4.15-4.43-7.03-6.43-2.24-1.57-4.8-3.06-7.68-4.46-3.96-1.93-8.36-4.49-13.19-7.68-.15-.1-.31-.21-.47-.3-.85-.57-1.72-1.16-2.6-1.77-2.29-1.58-4.67-3.29-7.15-5.14-.18-.13-.36-.27-.55-.4-7.28-5.27-14.43-7.35-21.44-6.25-1.49.24-2.97.62-4.45,1.14-8.6,3.05-16.54,6.21-23.81,9.48-.73.33-1.44.66-2.13,1ZM152.69,290.14c5.04-2.05,8.67-3.62,10.87-4.69,2.22-1.08,4.15-1.99,5.8-2.72,1.66-.75,4.65-1.91,8.97-3.48,4.39-1.61,9.18-1.87,14.38-.79.24.05.49.1.72.16,2.33.52,4.5,1.24,6.52,2.15h0c.61.25,1.2.53,1.77.83.43.22.85.45,1.26.69.57.32,1.12.66,1.66,1.03.17.12.35.24.51.36.33.22.65.45.96.69.04.03.08.06.12.09,1.59,1.2,3.06,2.32,4.42,3.35,1.77,1.33,3.36,2.53,4.76,3.57.37.28.75.56,1.13.84,2.18,1.57,4.56,3.1,7.13,4.59,2.11,1.22,4.26,2.4,6.47,3.56.97.5,1.94,1,2.91,1.5,3.26,1.62,6.07,3.17,8.46,4.65,2.45,1.5,4.78,4.35,6.99,8.53.61,1.15,1.11,2.55,1.51,4.21.2.82.37,1.7.51,2.64.33,2.12.52,4.57.59,7.35.06,2.46.02,5.18-.14,8.15-.54,10.62-.67,18.82-.38,24.62.29,5.81.42,10.42.39,13.83-.06,6.59-.85,12.04-2.37,16.37-1.5,4.3-2.61,7.13-3.32,8.47-1.23,2.31-3.03,4.01-5.39,5.1-4.46,2.07-10.98,1.86-19.58-.61-3.46,1.97-7.99,2.46-13.57,1.48-5.65-1.01-9.62-2.46-11.9-4.36-.46-.39-.84-.72-1.14-.99-2.19.64-4.33.86-6.43.64-2.37-.24-4.78-.82-7.24-1.72-2.48-.92-4.61-2.32-6.4-4.18h-.01c-1.57-1.66-2.73-2.84-3.47-3.55-2.16.36-5.63-.12-10.42-1.41h0c-5.04-1.38-8.16-2.9-9.37-4.58h-.01c-.89-1.21-1.97-2.87-3.24-5-.43-.73-.88-1.52-1.36-2.35-.94-1.65-1.69-3.08-2.27-4.31-.59-1.24-.99-2.27-1.21-3.08-.43-1.61-.47-4.19-.12-7.72.17-1.71.27-3,.29-3.87.01-.56.09-.84.23-.84-.09-.03-.17-.07-.24-.14-2.57-2.53-4.31-5.17-5.22-7.93-.88-2.72-1.54-4.99-1.97-6.82h0c-.39-1.74-.81-2.97-1.26-3.72-1.74-2.5-2.99-4.54-3.75-6.12-.77-1.59-1.37-3.55-1.81-5.87h0c-.45-2.39-.32-4.57.39-6.56.69-1.98,1.63-3.74,2.82-5.3,1.13-1.47,1.95-2.84,2.45-4.1.52-1.28,1.02-2.83,1.49-4.65.49-1.89,1.27-3.84,2.35-5.85,1.08-2.01,2.53-4.01,4.33-5.99,1.81-2.01,5.29-4.06,10.45-6.15ZM183.42,336.52c3.18-1.54,7.61-4.09,13.31-7.66,6.28-3.95,10.89-7.67,13.82-11.16.1-.12.19-.23.28-.35.17-.21.33-.42.48-.62-.08.18-.15.36-.23.54,0,0,0,.01-.01.02-1.34,2.88-3.75,6.02-7.24,9.4-3.49,3.37-7.79,6.1-12.9,8.16-1.98.8-3.96,1.46-5.95,1.99-1.56.41-3.12.74-4.67.98.85-.29,1.89-.73,3.11-1.32ZM145.36,342.09s.01-.05.02-.07c.13-.41.21-.99.25-1.74.04-.75-.53-1.87-1.73-3.33-1.19-1.47-2.29-2.16-3.28-2.06-.12,0-.24.02-.36.05-.87.17-1.75.66-2.63,1.47-1,.91-1.36,2.04-1.09,3.39.03.14.06.28.1.42,1.38,4.62,2.61,7.96,3.69,10.02,1.09,2.05,1.73,3.21,1.91,3.46-.06-.39-.08-.67-.08-.83,0-1.72.67-4.3,2.02-7.74.64-1.57,1.03-2.58,1.17-3.02ZM210.76,373.76c-2.61.75-5.29.78-8.04.07-2.75-.71-4.92-1.84-6.53-3.39-2.38,2.49-3.38,4.94-3.01,7.36.31,1.97,1.41,3.46,3.32,4.46,1.91,1.01,3.54,1.43,4.88,1.27,1.33-.17,2.74-.85,4.23-2.01,0-.01.02-.02.03-.03-.06.1-.13.21-.21.3-.47.63-1.19,1.18-2.18,1.67-1.13.55-2.35.77-3.65.66-1.3-.11-3.01-.73-5.15-1.84-2.12-1.12-3.21-2.53-3.25-4.21-.03-1.69.46-3.46,1.5-5.29,1.04-1.84,2.26-3.46,3.65-4.85,1.87,2.38,4.14,4.04,6.81,5.01,2.67.96,5.19,1.24,7.58.83ZM180.03,373.76c-.51.41-1.04.73-1.58.94-.54.22-1.41.33-2.59.34-1.17,0-2.5-.41-3.98-1.25-1.47-.85-2.19-2.23-2.14-4.15.03-1.33.25-2.5.64-3.5.17-.45.38-.86.63-1.25.8-1.24,2.15-2.81,4.05-4.69,1.19,1.33,2.9,2.54,5.14,3.62,1.72.82,3.75,1.56,6.1,2.23-.66.37-1.85.41-3.59.11-1.74-.31-3.38-.9-4.91-1.79-1.53-.89-2.47-1.46-2.83-1.71-1.24,1.25-2.06,2.25-2.46,2.99-.07.13-.14.27-.2.4-.43.96-.69,2.06-.77,3.3-.08,1.24.41,2.33,1.47,3.27,1.06.94,2.13,1.5,3.23,1.69,1.1.18,1.96.15,2.56-.08.61-.24,1.02-.4,1.25-.45ZM210.33,384.45c6.27,4.09,10.79,3.6,13.56-1.47-.1.3-.2.57-.29.82-.34.94-.73,1.71-1.17,2.3-.45.58-1.02,1.1-1.73,1.56-.7.45-1.69.72-2.98.79-1.29.07-2.64-.36-4.04-1.29-1.4-.93-2.52-1.83-3.34-2.7ZM228.31,389.6c2.93.91,5.04,1.37,6.34,1.38,3.17.04,4.88-1.4,5.11-4.34.08-1.03-.01-2.24-.28-3.63-.28.07-.56.13-.83.19-4.04.8-7.18.14-9.42-1.97,1.17.5,2.07.78,2.68.83,2.24.15,3.92.15,5.04-.01.38-.06.73-.12,1.03-.18.61-.13,1.07-.26,1.38-.41.2-.09.41.02.64.35.51,1.65.79,2.99.83,4.01.05,1.03-.02,1.95-.22,2.77-.08.31-.18.62-.31.9-.22.45-.51.87-.87,1.26-.59.63-1.55,1.06-2.86,1.29-1.31.22-2.75.08-4.32-.42-1.57-.5-2.88-1.18-3.94-2.02Z" fill-rule="evenodd"/><path d="M173.38,351.42c-1.8.53-3.56,1.36-5.26,2.49-1.31.87-2.87,1.89-4.71,3.08-1.66-.57-3.32-.85-4.97-.85-.21,0-.42,0-.63.02-.13,0-.25,0-.38.02-.29.02-.57.05-.86.08,1.17.22,2.11.43,2.81.61.5.12.87.23,1.13.34.61.24,1.08.52,1.4.83l-6.84,8.43c.35-.33.69-.65,1.03-.96,0,0,.01-.01.01-.02.22-.21.44-.41.66-.61-.53,1.66-.71,3.67-.52,6.04.24-.45,1.1-1.52,2.59-3.19,2.09-2.34,5.18-4.59,9.28-6.74,4.11-2.16,7.6-2.95,10.47-2.36,2.88.58,5.14,1.24,6.79,1.97,2.03.91,3.19,2.34,3.46,4.3,0,.01-.02.03-.03.04h0c-.23.46-.5.97-.81,1.54-.1.2-.21.41-.32.62,0,0,0,.01-.01.01-.02.05-.05.1-.07.15.5-.55,1-1.07,1.5-1.56.11.37.24.84.39,1.42.04.16.28,1.12.72,2.87,1.36-1.01,2.32-1.7,2.86-2.1.89-.64,1.66-1.11,2.31-1.41,1.47-.71,3.64-1.05,6.49-1.04,2.86,0,5.24,1,7.14,2.98,1.91,1.97,2.76,4.36,2.56,7.17-.78,2.21-2.03,4.68-3.73,7.42.52-.5,1.03-1.05,1.52-1.65-.19,1.21.14,2.24.99,3.1.82.87,1.94,1.77,3.34,2.7,1.4.93,2.75,1.36,4.04,1.29,1.29-.07,2.28-.33,2.98-.79.71-.46,1.28-.98,1.73-1.56.45-.59.84-1.35,1.17-2.3.09-.24.19-.52.29-.82.72-1.88.73-3.76.02-5.64-3.18.17-6.67-.94-10.48-3.31.54-1.38.86-2.67.94-3.85.33-.14.7-.21,1.12-.21,1.5,0,3.05.44,4.63,1.32,1.47.82,2.81,1.92,4.03,3.3,1.19,1.36,2.09,2.78,2.69,4.29.1.24.31.54.65.89,0,.14-.02.28-.03.43-.01.17-.03.35-.05.53-.04.43-.08.88-.14,1.35-.04.34-.08.69-.13,1.06-.09.78-.2,1.59-.31,2.44.43-1.33.81-2.68,1.14-4.03.09-.36.18-.73.26-1.1.11-.48.22-.95.31-1.44.83-.59,1.78-.88,2.85-.88s2.32.1,3.74.29c3.16.63,5.43,1.85,6.8,3.68.17.24.35.5.51.78.22.68.41,1.4.57,2.16,1.76,8.07,1.24,13.49-1.55,16.27-.35.35-.73.67-1.13.96-1.09.78-2.39,1.37-3.9,1.76-1.73.45-3.65.56-5.77.35-2.12-.22-4.09-.54-5.91-.97-1.81-.43-2.39-1.43-1.73-3,.66-1.56,1.33-3.75,2.01-6.55.43-1.8.77-3.42,1.02-4.85-2.81,7.43-4.71,11.55-5.71,12.36-1,.81-1.75,1.35-2.26,1.62-.5.26-1.3.57-2.39.92-1.08.35-2.47.52-4.16.52-.8,0-1.98-.15-3.56-.44-1.8-.34-3.54-.77-5.22-1.3-2.76-.88-4.71-1.84-5.86-2.88,1.19-.38,2.74-2.05,4.63-5.02,1.89-2.98,3.2-5.33,3.92-7.05.73-1.73,1.35-3.08,1.87-4.03-4.28,6.2-7.17,10-8.66,11.41-1.63,1.54-2.75,2.45-3.34,2.71-.59.26-1.19.52-1.8.8-.61.27-2.24.39-4.88.38-2.64-.02-5.71-.96-9.22-2.83-2.94-1.57-5.37-3.78-7.27-6.63,1.79-1.19,3.87-3.55,6.24-7.06-6.35,5.12-11.5,7.13-15.44,6.04-4.72-1.31-7.79-2.64-9.21-3.99-1.41-1.36-2.18-2.16-2.29-2.41-.12-.25-.18-.38-.19-.39-1.44-2.33-2.61-4.33-3.5-6-.05-.1-.1-.19-.15-.28-.48-.91-.87-1.71-1.17-2.42-.24-.54-.43-1.02-.57-1.45-.67-2.05-.96-3.55-.87-4.48.1-.94.35-2.92.76-5.92.06-.47.11-.87.15-1.22,2.1-.01,3.97-.47,5.63-1.37.98-.54,1.89-1.23,2.72-2.08.18-.19.36-.38.53-.59.33-.37.64-.77.94-1.19.31-.44.61-.9.89-1.39,2.52-4.39,3.62-9.76,3.3-16.11-.15-3-.53-4.89-1.14-5.68.92-.42,1.5-.73,1.76-.93h0c1.34-.67,2.65-1.45,3.94-2.36.63-.45,1.25-.92,1.88-1.42.53-.43,1.06-.89,1.58-1.37.63-.57,1.24-1.24,1.84-2v-.2h.15s.06-.07.08-.11c.68-.9,1.35-1.92,2-3.07-.85,2.4-1.02,4.6-.49,6.62.53,2,2.72,2.85,6.58,2.53,3.86-.32,9.02-1.82,15.5-4.51,8.44-3.49,14.72-7.15,18.85-10.98v.96c-.25.28-.67.93-1.26,1.96-.14.24-.26.47-.37.67-.09.11-.19.23-.28.35-2.93,3.49-7.54,7.21-13.82,11.16-5.69,3.57-10.13,6.12-13.31,7.66-2.56.82-5.91,1.87-10.06,3.14-4.25,1.38-7.74,2.7-10.47,3.95.1,1.68.33,2.93.67,3.75.44,1.06.74,1.59.91,1.58.17-.01.37.1.6.34.24.23,1.46.68,3.66,1.36,2.21.67,3.76.93,4.65.77ZM146.07,342.97c.73.87,1.43,1.67,2.12,2.4,1.74,1.84,2.96,2.76,3.65,2.76,1.63,0,3.04-.65,4.22-1.95.03-.02.05-.05.07-.07-.09.25-.19.51-.28.78-.45,1.21-1.01,2.46-1.68,3.75-.61,1.17-1.27,2.18-2,3.03-.41.48-.83.9-1.29,1.27-1.03.84-2.16,1.4-3.39,1.69-.61.14-1.26.21-1.93.21-1.01,0-1.72-.63-2.12-1.9-.21-.69-.31-1.5-.31-2.44,0-1.29.65-3.58,1.95-6.86.41-.99.74-1.88.98-2.65ZM153.62,293.64c-.81,1-1.79,2.31-2.94,3.94-2.16,3.04-4.26,6.27-6.32,9.7-5.38,8.97-8.07,15.25-8.07,18.83,0,1.15.67,2.97,2.02,5.47.23.43.47.86.72,1.31-.85.36-1.61,1-2.28,1.94-1.03,1.42-1.55,2.39-1.58,2.89-2.31-3.65-3.65-6.88-4.02-9.69-.4-3.05.73-6.41,3.37-10.1,2.65-3.7,5.12-8.81,7.42-15.33,1.43-2.48,4.31-4.93,8.62-7.36.95-.54,1.97-1.07,3.06-1.6ZM205.65,381.49c1.89-1.66,3.59-4.23,5.1-7.73-2.38.41-4.91.14-7.58-.83-2.67-.96-4.94-2.63-6.81-5.01-1.39,1.39-2.61,3.01-3.65,4.85-1.03,1.84-1.53,3.6-1.5,5.29.04,1.68,1.12,3.09,3.25,4.21,2.13,1.12,3.85,1.73,5.15,1.84,1.3.11,2.51-.11,3.65-.66.99-.48,1.71-1.04,2.18-1.67.08-.1.15-.2.21-.3ZM180.03,373.76c2.44-2.04,4.53-4.61,6.27-7.71-2.35-.67-4.38-1.41-6.1-2.23-2.24-1.08-3.96-2.28-5.14-3.62-1.9,1.89-3.25,3.45-4.05,4.69-.24.38-.45.8-.63,1.25-.39,1-.6,2.17-.64,3.5-.05,1.92.66,3.3,2.14,4.15,1.48.84,2.81,1.25,3.98,1.25,1.18,0,2.04-.12,2.59-.34.54-.22,1.07-.53,1.58-.94ZM229.23,381.24c-1.03,3.89-1.34,6.68-.92,8.36,1.06.85,2.38,1.52,3.94,2.02,1.57.5,3.01.64,4.32.42,1.31-.23,2.27-.66,2.86-1.29.36-.38.65-.8.87-1.26.13-.29.24-.59.31-.9.2-.82.27-1.74.22-2.77-.04-1.03-.32-2.36-.83-4.01-.23-.32-.44-.44-.64-.35-.31.15-.78.28-1.38.41-.3.06-.64.12-1.03.18-1.12.16-2.8.16-5.04.01-.62-.05-1.51-.32-2.68-.83Z" fill="#078582" fill-rule="evenodd"/><path d="M172.02,320.09c.73-1.29,1.43-2.72,2.12-4.31.13-.31.27-.62.4-.94-.24.39-.47.78-.71,1.15-.68.48-1.67,1.39-2.94,2.76-1.27,1.35-3.22,2.65-5.84,3.9-2.62,1.24-4.67,1.61-6.16,1.12-1.48-.5-2.86-1.14-4.14-1.92l-1.27-3c.15.4.4,1.27.75,2.61-.48-1.08-.89-1.92-1.24-2.54-.77-1.34-1.53-2.03-2.3-2.06l-.04.18c-.06.11-.16.17-.3.17.47,1.91,1.75,5.64,3.84,11.21,1.85,5.48,2.78,9.98,2.78,13.52,0,.93-.24,2.17-.72,3.71-.06.18-.11.36-.17.52-1.19,1.3-2.6,1.95-4.22,1.95-.69,0-1.91-.92-3.65-2.76-.68-.73-1.39-1.53-2.12-2.4.39-1.28.56-2.28.5-3-.1-1.17-.78-2.71-2.05-4.64-1.27-1.93-2.63-2.85-4.07-2.77-.5.03-.97.14-1.41.34-.25-.45-.49-.88-.72-1.31-1.35-2.5-2.02-4.32-2.02-5.47,0-3.58,2.69-9.86,8.07-18.83,2.05-3.43,4.16-6.66,6.32-9.7,1.15-1.63,2.13-2.94,2.94-3.94.68-.34,1.39-.67,2.13-1,7.27-3.27,15.21-6.43,23.81-9.48,1.48-.52,2.97-.9,4.45-1.14,3.48.04,6.93,1.11,10.36,3.21,2.59,1.58,5.41,3.93,8.47,7.06.73.75,1.91,2.01,3.55,3.77,1.38,1.49,2.43,2.59,3.14,3.29,2.2,2.14,3.96,3.21,5.29,3.21.87,0,1.44-.23,1.73-.69.23-.36.35-1.05.35-2.07,0-1.18-.39-2.59-1.16-4.22.16.1.32.2.47.3,4.83,3.19,9.23,5.75,13.19,7.68,2.89,1.4,5.45,2.89,7.68,4.46,2.18,2.55,4.08,5.39,5.7,8.51,2.13,4.11,3.61,8.33,4.42,12.67.52,2.71.78,5.47.78,8.27,0,1.37-.19,3.6-.56,6.7-.45,3.79-1.04,7.33-1.75,10.61-2.03,9.42-4.53,14.13-7.49,14.13-1.21,0-3.19-.22-5.95-.67-2.18-.36-3.86-.57-5.05-.65-.78-.95-1.77-1.87-2.99-2.77-2.68-1.98-5.38-2.93-8.1-2.83-2.29.08-3.64.29-4.06.65-1.23-1.85-2.9-3.32-5-4.41-.36-.19-.74-.36-1.13-.5-1.86-.71-4.01-.97-6.47-.78-2.97.23-5.39.89-7.25,1.98-.74-2.23-2.21-4.08-4.41-5.57-2.61-1.77-5.73-2.66-9.35-2.67-1.63,0-3.23.21-4.8.65-.08.03-.17.06-.26.08-.89.15-2.44-.1-4.65-.78-2.2-.68-3.42-1.13-3.66-1.36-.23-.24-.43-.35-.6-.34-.17,0-.47-.52-.91-1.58-.34-.82-.57-2.08-.67-3.75,2.73-1.25,6.22-2.57,10.47-3.95,4.15-1.28,7.5-2.33,10.06-3.14-1.22.59-2.26,1.03-3.11,1.32,1.56-.24,3.12-.57,4.67-.98,1.99-.53,3.98-1.19,5.95-1.99,5.11-2.07,9.41-4.79,12.9-8.16,3.49-3.38,5.9-6.51,7.24-9.4,0,0,.01-.01.01-.02.08-.18.15-.36.23-.54-.15.2-.31.41-.48.62.1-.2.23-.43.37-.67.59-1.03,1.01-1.68,1.26-1.96v-.96c-4.13,3.83-10.41,7.49-18.85,10.98-6.48,2.68-11.64,4.18-15.5,4.51-3.86.32-6.05-.52-6.58-2.53-.52-2.02-.36-4.23.49-6.62ZM189.1,365.69c1.87-1.81,3.83-3.16,5.88-4.06,2.61-1.14,5.24-1.54,7.89-1.2,2.66.34,4.7,1.25,6.11,2.75,1.42,1.49,2.41,2.9,2.99,4.24.9,2.12.76,4.84-.41,8.15.2-2.81-.65-5.2-2.56-7.17-1.9-1.98-4.28-2.97-7.14-2.98-2.85-.01-5.01.33-6.49,1.04-.64.31-1.41.78-2.31,1.41-.55.39-1.5,1.09-2.86,2.1-.44-1.75-.68-2.71-.72-2.87-.15-.57-.28-1.04-.39-1.42ZM188.85,364.89c-.27-1.96-1.42-3.39-3.46-4.3-1.65-.73-3.91-1.39-6.79-1.97-2.87-.59-6.36.2-10.47,2.36-4.1,2.15-7.2,4.4-9.28,6.74-1.49,1.67-2.35,2.73-2.59,3.19-.18-2.37,0-4.38.52-6.04.42-.39.82-.77,1.22-1.13.74-.68,1.44-1.31,2.11-1.9,2.96-2.63,5.18-4.36,6.68-5.2,3.67-2.07,7.37-3.15,11.09-3.24.17,0,.35-.01.51-.01,2.68,0,5.28.82,7.81,2.47,2.61,1.7,3.93,3.56,3.96,5.59v.07c0,.43-.01.71-.04.85-.03.14-.45.98-1.26,2.52ZM227.5,379.77c-.34-.35-.55-.65-.65-.89-.6-1.5-1.5-2.93-2.69-4.29-1.22-1.38-2.57-2.48-4.03-3.3-1.59-.88-3.13-1.32-4.63-1.32-.42,0-.79.07-1.12.21.04-.48.03-.93-.01-1.37-.14-1.56-.35-2.4-.62-2.52.14-.09.3-.18.47-.26.97-.44,2.5-.52,4.58-.25,1.82.24,3.51.96,5.06,2.18.01,0,.03.02.04.03.22.17.43.34.63.52,1.73,1.55,2.74,3.44,3.02,5.67.17,1.31.15,3.18-.04,5.59ZM242.47,382.89c-.17-.28-.34-.54-.51-.78-1.37-1.82-3.64-3.05-6.8-3.68-1.42-.2-2.67-.29-3.74-.29s-2.02.29-2.85.88c.31-1.54.57-3.09.76-4.65,6.69-.87,11.07,1.97,13.14,8.52Z" fill="#0bb4b1" fill-rule="evenodd"/><path d="M215.75,295.57c.78,1.63,1.16,3.04,1.16,4.22,0,1.02-.12,1.71-.35,2.07-.29.46-.86.69-1.73.69-1.33,0-3.09-1.07-5.29-3.21-.71-.7-1.76-1.8-3.14-3.29-1.64-1.77-2.83-3.03-3.55-3.77-3.05-3.13-5.88-5.48-8.47-7.06-3.43-2.1-6.89-3.16-10.36-3.21,7.01-1.1,14.16.98,21.44,6.25.18.13.36.27.55.4,2.47,1.84,4.86,3.56,7.15,5.14.88.61,1.75,1.2,2.6,1.77ZM156.13,346.1s-.05.05-.07.07c.06-.17.11-.34.17-.52.48-1.54.72-2.78.72-3.71,0-3.53-.93-8.04-2.78-13.52-2.08-5.57-3.36-9.31-3.84-11.21.15,0,.25-.06.3-.17l.04-.18c.76.03,1.53.72,2.3,2.06.35.61.76,1.46,1.24,2.54.02.1.05.2.07.29.35,1.35.79,3.13,1.31,5.33,1.14,4.76,1.72,8.85,1.74,12.25.01,2.11-.39,4.36-1.21,6.76Z" fill="#0cd7d4" fill-rule="evenodd"/><path d="M227.19,367.58c1.19.08,2.87.29,5.05.65,2.76.45,4.74.67,5.95.67,2.96,0,5.46-4.71,7.49-14.13.71-3.28,1.3-6.81,1.75-10.61.37-3.09.56-5.33.56-6.7,0-2.8-.26-5.56-.78-8.27-.82-4.34-2.29-8.56-4.42-12.67-1.62-3.12-3.52-5.96-5.7-8.51,2.88,2.01,5.22,4.15,7.03,6.43,2.69,3.37,4.13,8.31,4.33,14.81.04,1.29.03,2.65-.03,4.08-.36,8.53-.52,15.12-.47,19.78v18.86c-1.22-1.06-2.76-1.89-4.63-2.49-1.56-.52-3.13-.63-4.73-.34-.31.06-.63.13-.94.21.39-.06.78-.1,1.17-.12.71-.03,1.43.02,2.14.15.96.17,1.91.48,2.85.93,2.04.97,3.19,2.94,3.44,5.9.04,1.86-.05,3.43-.26,4.71-.21,1.28-.43,2.41-.66,3.41-.36-1.18-.99-2.78-1.91-4.79-2.51-5.53-7.62-8.33-15.33-8.4-.31-1.23-.95-2.42-1.9-3.57ZM154.74,321.85c1.28.78,2.66,1.42,4.14,1.92,1.49.49,3.54.12,6.16-1.12,2.62-1.24,4.57-2.54,5.84-3.9,1.28-1.36,2.26-2.28,2.94-2.76-.63,1-1.27,1.94-1.92,2.82-1.06,1.44-2.16,2.72-3.29,3.86-.62.62-1.25,1.2-1.9,1.74-2.84,2.36-5.87,3.78-9.08,4.27l-2.9-6.82Z" fill="#099895" fill-rule="evenodd"/><path d="M223.91,377.34c.71,1.88.7,3.76-.02,5.64-2.77,5.06-7.29,5.55-13.56,1.47-.85-.86-1.17-1.89-.99-3.1,1.32-1.6,2.5-3.52,3.54-5.75,1.81.78,3.34,1.33,4.6,1.63,1.26.3,2.4.44,3.4.43,1-.02,1.87-.1,2.62-.24.14-.03.28-.05.41-.07ZM140.26,334.93c.81,1.28,1.72,2.61,2.71,4,.82,1.13,1.61,2.18,2.38,3.15-.15.44-.54,1.45-1.17,3.02-1.35,3.44-2.02,6.03-2.02,7.74,0,.16.03.44.08.83-.18-.25-.82-1.4-1.91-3.46-1.08-2.06-2.31-5.4-3.69-10.02-.04-.14-.08-.28-.1-.42-.27-1.35.09-2.48,1.09-3.39.88-.81,1.76-1.3,2.63-1.47ZM205.65,381.49s-.02.02-.03.03c-1.49,1.17-2.91,1.84-4.23,2.01-1.34.16-2.97-.26-4.88-1.27-1.91-1.01-3.01-2.49-3.32-4.46-.38-2.42.62-4.87,3.01-7.36,1.61,1.54,3.78,2.67,6.53,3.39,2.75.71,5.43.68,8.04-.07-1.52,3.5-3.22,6.08-5.1,7.73ZM186.3,366.05c-1.74,3.1-3.83,5.67-6.27,7.71-.22.06-.64.21-1.25.45-.6.24-1.45.26-2.56.08-1.1-.19-2.17-.75-3.23-1.69-1.05-.94-1.54-2.03-1.47-3.27.08-1.24.33-2.34.77-3.3.06-.13.13-.26.2-.4.4-.74,1.22-1.74,2.46-2.99.36.25,1.3.82,2.83,1.71,1.54.89,3.18,1.48,4.91,1.79,1.74.3,2.94.27,3.59-.1ZM229.23,381.24c2.24,2.11,5.38,2.77,9.42,1.97.27-.06.55-.12.83-.19.27,1.39.37,2.6.28,3.63-.24,2.93-1.94,4.38-5.11,4.34-1.3-.01-3.41-.48-6.34-1.38-.42-1.68-.11-4.47.92-8.36Z" fill="#e1a52c" fill-rule="evenodd"/><path d="M145.36,342.09c-.77-.97-1.56-2.02-2.38-3.15-1-1.39-1.9-2.72-2.71-4,.12-.03.24-.05.36-.05.99-.1,2.09.59,3.28,2.06,1.19,1.47,1.77,2.58,1.73,3.33-.04.75-.13,1.33-.25,1.74,0,.02-.01.04-.02.07Z" fill="#d68a80" fill-rule="evenodd"/><path d="M345.79,293.64c-.68-.34-1.39-.67-2.13-1-7.27-3.27-15.21-6.43-23.81-9.48-1.48-.52-2.97-.9-4.45-1.14-7.01-1.1-14.16.98-21.44,6.25-.18.13-.36.27-.54.4-2.47,1.84-4.86,3.56-7.15,5.14-.88.61-1.75,1.2-2.6,1.77-.16.1-.32.2-.47.3-4.83,3.19-9.23,5.75-13.19,7.68-2.89,1.4-5.45,2.89-7.68,4.46-2.88,2.01-5.22,4.15-7.03,6.43-2.69,3.37-4.13,8.31-4.33,14.81-.04,1.29-.03,2.65.03,4.08.36,8.53.52,15.12.47,19.78v18.86c1.22-1.06,2.76-1.89,4.63-2.49,1.56-.52,3.13-.63,4.73-.34.31.06.63.13.94.21-.39-.06-.78-.1-1.17-.12-.71-.03-1.43.02-2.14.15-.96.17-1.91.48-2.85.93-2.04.97-3.19,2.94-3.44,5.9-.04,1.86.05,3.43.26,4.71.21,1.28.43,2.41.66,3.41.36-1.18.99-2.78,1.91-4.79,2.51-5.53,7.62-8.33,15.33-8.4.31-1.23.95-2.42,1.9-3.57.78-.95,1.77-1.87,2.99-2.77,2.68-1.98,5.38-2.93,8.1-2.83,2.29.08,3.64.29,4.06.65,1.23-1.85,2.9-3.32,5-4.41.36-.19.74-.36,1.13-.5,1.86-.71,4.01-.97,6.47-.78,2.97.23,5.39.89,7.25,1.98.74-2.23,2.21-4.08,4.41-5.57,2.61-1.77,5.73-2.66,9.35-2.67,1.63,0,3.23.21,4.8.65.08.03.17.06.26.08,1.8.53,3.56,1.36,5.26,2.49,1.31.87,2.87,1.89,4.7,3.08,1.66-.57,3.32-.85,4.97-.85.21,0,.42,0,.63.02.13,0,.25,0,.38.02.29.02.57.05.86.08-1.17.22-2.11.43-2.81.61-.5.12-.87.23-1.13.34-.61.24-1.08.52-1.4.83l6.84,8.43c-.35-.33-.69-.65-1.03-.96,0,0-.01-.01-.01-.02-.22-.21-.44-.41-.66-.61-.42-.39-.82-.77-1.22-1.13-.74-.68-1.44-1.31-2.11-1.9-2.95-2.63-5.18-4.36-6.68-5.2-3.67-2.07-7.37-3.15-11.09-3.24-.17,0-.35-.01-.51-.01-2.68,0-5.28.82-7.81,2.47-2.61,1.7-3.93,3.56-3.96,5.59v.07c0,.43.01.71.04.85.03.14.45.98,1.26,2.52,0,.01.02.03.03.04h0c.23.46.5.97.81,1.54.1.2.21.41.32.62,0,0,0,.01.01.01.02.05.05.1.07.15-.5-.55-.99-1.07-1.5-1.56-1.87-1.81-3.83-3.16-5.88-4.06-2.61-1.14-5.24-1.54-7.89-1.2-2.66.34-4.7,1.25-6.11,2.75-1.42,1.49-2.41,2.9-2.99,4.24-.9,2.12-.77,4.84.41,8.15.78,2.21,2.03,4.68,3.73,7.42-.52-.5-1.03-1.05-1.52-1.65-1.32-1.6-2.5-3.52-3.54-5.75-1.81.78-3.34,1.33-4.6,1.63-1.26.3-2.4.44-3.39.43-1-.02-1.87-.1-2.62-.24-.14-.03-.28-.05-.41-.07,3.18.17,6.67-.94,10.48-3.31-.54-1.38-.86-2.67-.94-3.85-.04-.48-.03-.93.01-1.37.14-1.56.35-2.4.62-2.52-.14-.09-.3-.18-.47-.26-.97-.44-2.5-.52-4.58-.25-1.82.24-3.51.96-5.06,2.18-.01,0-.03.02-.04.03-.22.17-.43.34-.63.52-1.73,1.55-2.74,3.44-3.02,5.67-.17,1.31-.15,3.18.04,5.59,0,.14.02.28.03.43.01.17.03.35.05.53.04.43.08.88.14,1.35.03.34.08.69.13,1.06.09.78.2,1.59.31,2.44-.43-1.33-.81-2.68-1.14-4.03-.09-.36-.18-.73-.26-1.1-.11-.48-.22-.95-.31-1.44-.31-1.54-.57-3.09-.76-4.65-6.69-.87-11.07,1.97-13.14,8.52-.22.68-.41,1.4-.57,2.16-1.76,8.07-1.24,13.49,1.55,16.27.35.35.73.67,1.13.96,1.09.78,2.39,1.37,3.9,1.76,1.73.45,3.65.56,5.77.35,2.12-.22,4.09-.54,5.91-.97,1.81-.43,2.39-1.43,1.73-3-.66-1.56-1.33-3.75-2.01-6.55-.43-1.8-.77-3.42-1.02-4.85,2.81,7.43,4.71,11.55,5.71,12.36,1,.81,1.75,1.35,2.26,1.62.5.26,1.3.57,2.39.92,1.08.35,2.47.52,4.16.52.8,0,1.98-.15,3.56-.44,1.8-.34,3.54-.77,5.22-1.3,2.76-.88,4.71-1.84,5.86-2.88-1.19-.38-2.74-2.05-4.63-5.02-1.89-2.98-3.2-5.33-3.92-7.05-.73-1.73-1.35-3.08-1.86-4.03,4.28,6.2,7.17,10,8.66,11.41,1.63,1.54,2.75,2.45,3.34,2.71.59.26,1.19.52,1.8.8.61.27,2.24.39,4.88.38,2.64-.02,5.71-.96,9.22-2.83,2.94-1.57,5.37-3.78,7.27-6.63-1.79-1.19-3.87-3.55-6.24-7.06,6.35,5.12,11.5,7.13,15.44,6.04,4.72-1.31,7.79-2.64,9.21-3.99,1.41-1.36,2.18-2.16,2.3-2.41.12-.25.18-.38.19-.39,1.44-2.33,2.61-4.33,3.5-6,.05-.1.1-.19.15-.28.48-.91.87-1.71,1.17-2.42.24-.54.43-1.02.57-1.45.67-2.05.96-3.55.87-4.48-.1-.94-.35-2.92-.76-5.92-.06-.47-.11-.87-.15-1.22-2.1-.01-3.97-.47-5.63-1.37-.98-.54-1.89-1.23-2.72-2.08-.18-.19-.36-.38-.53-.59-.33-.37-.64-.77-.94-1.19-.31-.44-.61-.9-.89-1.39-2.52-4.39-3.62-9.76-3.3-16.11.15-3,.53-4.89,1.14-5.68-.92-.42-1.5-.73-1.76-.93h0c-1.34-.67-2.66-1.45-3.94-2.36-.63-.45-1.25-.92-1.88-1.42-.53-.43-1.06-.89-1.58-1.37-.63-.57-1.24-1.24-1.84-2v-.2h-.15s-.06-.07-.08-.11c-.68-.9-1.35-1.92-2-3.07-.73-1.29-1.43-2.72-2.12-4.31-.13-.31-.27-.62-.4-.94.24.39.48.78.71,1.15.63,1,1.27,1.94,1.92,2.82,1.06,1.44,2.16,2.72,3.29,3.86.62.62,1.25,1.2,1.9,1.74,2.84,2.36,5.87,3.78,9.08,4.27l2.9-6.82,1.27-3c-.15.4-.4,1.27-.75,2.61-.02.1-.05.2-.07.29-.35,1.35-.79,3.13-1.31,5.33-1.14,4.76-1.72,8.85-1.74,12.25-.01,2.11.39,4.36,1.21,6.76.09.25.18.51.28.78.45,1.21,1.01,2.46,1.68,3.75.61,1.17,1.28,2.18,2,3.03.41.48.83.9,1.29,1.27,1.03.84,2.16,1.4,3.38,1.69.62.14,1.26.21,1.93.21,1.01,0,1.72-.63,2.12-1.9.21-.69.31-1.5.31-2.44,0-1.29-.65-3.58-1.95-6.86-.41-.99-.74-1.88-.99-2.65-.39-1.28-.56-2.28-.5-3,.1-1.17.78-2.71,2.05-4.64,1.27-1.93,2.63-2.85,4.07-2.77.5.03.97.14,1.41.34.85.36,1.61,1,2.28,1.94,1.03,1.42,1.55,2.39,1.58,2.89,2.31-3.65,3.65-6.88,4.02-9.69.4-3.05-.73-6.41-3.37-10.1-2.65-3.7-5.12-8.81-7.42-15.33-1.43-2.48-4.31-4.93-8.62-7.36-.95-.54-1.97-1.07-3.06-1.6ZM346.73,290.14c5.16,2.09,8.64,4.14,10.45,6.15,1.8,1.98,3.24,3.98,4.33,5.99,1.08,2.01,1.86,3.95,2.35,5.85.47,1.82.96,3.37,1.49,4.65.5,1.26,1.32,2.62,2.45,4.1,1.19,1.56,2.13,3.33,2.82,5.3.71,1.99.84,4.17.39,6.55h0c-.44,2.33-1.05,4.29-1.81,5.88-.76,1.58-2.01,3.62-3.75,6.12-.45.75-.87,1.98-1.26,3.71h0c-.43,1.84-1.09,4.11-1.97,6.83-.91,2.76-2.65,5.4-5.22,7.93-.07.06-.15.11-.24.14.14,0,.22.28.23.84.02.87.12,2.16.29,3.87.36,3.54.32,6.11-.11,7.72-.22.81-.62,1.84-1.21,3.08-.58,1.22-1.34,2.66-2.27,4.31-.48.83-.94,1.61-1.36,2.35-1.27,2.12-2.35,3.79-3.24,5h-.01c-1.21,1.68-4.33,3.2-9.37,4.57h0c-4.79,1.31-8.26,1.78-10.42,1.43-.74.71-1.9,1.9-3.47,3.55h-.01c-1.79,1.87-3.92,3.26-6.4,4.18-2.46.9-4.87,1.47-7.24,1.72-2.1.22-4.25,0-6.43-.64-.3.27-.68.59-1.14.99-2.28,1.9-6.25,3.35-11.9,4.36-5.58.99-10.11.49-13.57-1.48-8.59,2.47-15.12,2.68-19.58.61-2.36-1.09-4.16-2.79-5.39-5.1-.71-1.34-1.82-4.16-3.32-8.47-1.52-4.32-2.31-9.78-2.37-16.37-.04-3.41.09-8.02.39-13.83.29-5.79.17-14-.38-24.62-.15-2.98-.2-5.69-.14-8.15.06-2.77.26-5.22.59-7.35.15-.94.32-1.82.51-2.64.4-1.66.9-3.07,1.51-4.21,2.21-4.19,4.54-7.03,6.99-8.53,2.38-1.48,5.2-3.03,8.46-4.65.97-.5,1.94-1,2.91-1.5,2.2-1.16,4.36-2.35,6.47-3.56,2.57-1.49,4.95-3.02,7.13-4.59.38-.28.76-.56,1.13-.84,1.4-1.05,2.98-2.24,4.76-3.57,1.36-1.03,2.84-2.15,4.42-3.35.03-.04.07-.07.12-.09.31-.24.64-.47.96-.69.17-.12.34-.24.51-.36.54-.36,1.09-.71,1.66-1.03.41-.24.83-.48,1.26-.69.57-.3,1.16-.58,1.77-.84h0c2.02-.9,4.19-1.61,6.52-2.14.24-.06.48-.11.72-.16,5.2-1.08,9.99-.82,14.38.79,4.32,1.57,7.31,2.73,8.97,3.48,1.64.73,3.57,1.64,5.8,2.72,2.2,1.08,5.82,2.64,10.87,4.69ZM354.06,342.09c.15.44.54,1.45,1.17,3.02,1.35,3.44,2.02,6.03,2.02,7.74,0,.16-.03.44-.08.83.18-.25.82-1.4,1.91-3.46,1.08-2.06,2.31-5.4,3.69-10.02.04-.14.08-.28.11-.42.27-1.35-.09-2.48-1.09-3.39-.88-.81-1.76-1.3-2.63-1.47-.12-.03-.24-.05-.36-.05-.99-.1-2.09.59-3.28,2.06-1.19,1.47-1.77,2.58-1.73,3.33.04.75.13,1.33.25,1.74,0,.02.01.04.02.07ZM288.59,317.35c.09.11.18.23.28.35,2.93,3.49,7.54,7.21,13.82,11.16,5.69,3.57,10.13,6.12,13.31,7.66,1.22.59,2.26,1.03,3.11,1.32-1.56-.24-3.12-.57-4.67-.98-1.99-.53-3.97-1.19-5.95-1.99-5.11-2.07-9.41-4.79-12.9-8.16-3.49-3.38-5.9-6.51-7.24-9.4,0,0-.01-.01-.01-.02-.08-.18-.15-.36-.23-.54.15.2.32.41.48.62ZM270.18,381.24c-2.24,2.11-5.38,2.77-9.42,1.97-.27-.06-.55-.12-.83-.19-.27,1.39-.37,2.6-.28,3.63.24,2.93,1.94,4.38,5.11,4.34,1.3-.01,3.41-.48,6.34-1.38-1.06.85-2.38,1.52-3.94,2.02-1.57.5-3.01.64-4.32.42-1.31-.23-2.27-.66-2.86-1.29-.36-.38-.65-.8-.87-1.26-.13-.29-.24-.59-.31-.9-.2-.82-.27-1.74-.22-2.77.04-1.03.32-2.36.83-4.01.23-.32.44-.44.64-.35.31.15.78.28,1.38.41.3.06.64.12,1.03.18,1.12.16,2.8.16,5.04.01.61-.05,1.51-.32,2.68-.83ZM288.66,373.76c2.38.41,4.91.14,7.58-.83,2.67-.96,4.94-2.63,6.81-5.01,1.39,1.39,2.61,3.01,3.65,4.85,1.03,1.84,1.53,3.6,1.5,5.29-.04,1.68-1.12,3.09-3.25,4.21-2.13,1.12-3.85,1.73-5.14,1.84-1.3.11-2.51-.11-3.65-.66-.98-.48-1.71-1.04-2.18-1.67-.08-.1-.15-.2-.21-.3.01,0,.02.02.03.03,1.49,1.17,2.91,1.84,4.23,2.01,1.34.16,2.97-.26,4.88-1.27,1.91-1.01,3.01-2.49,3.32-4.46.38-2.42-.62-4.87-3.01-7.36-1.61,1.54-3.78,2.67-6.53,3.39-2.75.71-5.43.68-8.04-.07ZM275.53,382.98c2.77,5.06,7.29,5.55,13.56,1.47-.82.87-1.94,1.77-3.34,2.7-1.4.93-2.75,1.36-4.04,1.29-1.29-.07-2.28-.33-2.98-.79-.71-.46-1.28-.98-1.73-1.56-.45-.59-.84-1.35-1.17-2.3-.09-.24-.19-.52-.29-.82ZM319.39,373.76c.22.06.64.21,1.25.45.6.24,1.45.26,2.56.08,1.1-.19,2.17-.75,3.23-1.69,1.05-.94,1.54-2.03,1.47-3.27-.08-1.24-.33-2.34-.77-3.3-.06-.13-.13-.26-.2-.4-.4-.74-1.22-1.74-2.46-2.99-.36.25-1.3.82-2.83,1.71-1.54.89-3.18,1.48-4.91,1.79-1.74.3-2.94.27-3.59-.11,2.35-.67,4.38-1.41,6.1-2.23,2.24-1.08,3.96-2.28,5.15-3.62,1.9,1.89,3.25,3.45,4.04,4.69.25.38.45.8.63,1.25.39,1,.6,2.17.64,3.5.05,1.92-.66,3.3-2.14,4.15-1.48.84-2.81,1.25-3.98,1.25-1.18,0-2.04-.12-2.59-.34-.55-.22-1.07-.53-1.58-.94Z" fill-rule="evenodd"/><path d="M360.38,332.9c.25-.45.49-.88.72-1.31,1.35-2.5,2.02-4.32,2.02-5.47,0-3.58-2.69-9.86-8.07-18.83-2.05-3.43-4.16-6.66-6.32-9.7-1.15-1.63-2.13-2.94-2.94-3.94,1.09.53,2.11,1.07,3.06,1.6,4.32,2.42,7.19,4.88,8.62,7.36,2.3,6.53,4.77,11.64,7.42,15.33,2.65,3.69,3.77,7.06,3.37,10.1-.38,2.81-1.72,6.04-4.02,9.69-.03-.5-.56-1.47-1.58-2.89-.68-.94-1.44-1.58-2.28-1.94ZM343.29,346.1s.05.05.07.07c1.19,1.3,2.59,1.95,4.22,1.95.69,0,1.91-.92,3.65-2.76.68-.73,1.39-1.53,2.12-2.4.24.78.57,1.66.99,2.65,1.3,3.28,1.95,5.57,1.95,6.86,0,.94-.11,1.76-.31,2.44-.4,1.26-1.1,1.9-2.12,1.9-.67,0-1.31-.07-1.93-.21-1.23-.29-2.36-.85-3.38-1.69-.45-.37-.88-.79-1.29-1.27-.73-.85-1.39-1.85-2-3.03-.66-1.29-1.22-2.54-1.68-3.75-.1-.27-.19-.52-.28-.77ZM270.18,381.24c-1.17.5-2.07.78-2.68.83-2.24.15-3.92.15-5.04-.01-.38-.06-.73-.12-1.03-.18-.61-.13-1.07-.26-1.38-.41-.2-.09-.41.02-.64.35-.51,1.65-.79,2.99-.83,4.01-.05,1.03.02,1.95.22,2.77.08.31.18.62.31.9.22.45.51.87.87,1.26.59.63,1.55,1.06,2.86,1.29,1.31.22,2.75.08,4.32-.42,1.56-.5,2.88-1.18,3.94-2.02.42-1.68.11-4.47-.92-8.36ZM275.51,377.34c-.71,1.88-.7,3.76.02,5.64.1.3.2.57.29.82.34.94.73,1.71,1.17,2.3.45.58,1.02,1.1,1.73,1.56.7.45,1.69.72,2.98.79,1.29.07,2.64-.36,4.04-1.29,1.4-.93,2.52-1.83,3.34-2.7.85-.86,1.17-1.89.99-3.1.49.59.99,1.14,1.52,1.65-1.7-2.74-2.95-5.21-3.73-7.42-.2-2.81.65-5.2,2.56-7.17,1.9-1.98,4.28-2.97,7.14-2.98,2.85-.01,5.01.33,6.49,1.04.64.31,1.41.78,2.31,1.41.54.39,1.5,1.09,2.86,2.1.44-1.75.68-2.71.72-2.87.15-.57.28-1.04.39-1.42.5.49,1,1.01,1.5,1.56-.03-.05-.05-.1-.07-.15,0,0-.01,0-.01-.01-.11-.21-.22-.42-.32-.62-.31-.57-.58-1.08-.81-1.53h0s-.03-.04-.03-.05c.27-1.96,1.42-3.39,3.46-4.3,1.65-.73,3.91-1.39,6.79-1.97,2.87-.59,6.36.2,10.47,2.36,4.1,2.15,7.2,4.4,9.28,6.74,1.49,1.67,2.35,2.73,2.59,3.19.18-2.37,0-4.38-.52-6.04.22.2.44.4.66.61,0,0,0,.01.01.02.34.31.68.64,1.03.96l-6.84-8.43c.33-.31.8-.58,1.4-.83.26-.1.64-.22,1.13-.34.7-.18,1.63-.38,2.81-.61-.29-.04-.57-.06-.86-.08-.13-.01-.25-.02-.38-.02-.21-.01-.42-.02-.63-.02-1.65,0-3.3.28-4.97.85-1.83-1.19-3.4-2.21-4.7-3.08-1.7-1.13-3.46-1.96-5.26-2.49.89.15,2.45-.1,4.65-.78,2.2-.68,3.42-1.13,3.66-1.36.23-.24.43-.35.6-.34.17,0,.47-.52.91-1.58.34-.82.57-2.08.67-3.75-2.73-1.25-6.22-2.57-10.47-3.95-4.15-1.28-7.5-2.33-10.06-3.14-3.18-1.54-7.62-4.09-13.31-7.66-6.28-3.95-10.89-7.67-13.82-11.16-.1-.12-.19-.23-.28-.35-.1-.2-.23-.43-.37-.67-.59-1.03-1.01-1.68-1.26-1.96v-.96c4.13,3.83,10.41,7.49,18.85,10.98,6.48,2.68,11.64,4.18,15.5,4.51,3.86.32,6.05-.52,6.58-2.53.52-2.02.36-4.23-.49-6.62.65,1.15,1.32,2.17,2,3.07.03.04.06.07.08.11h.15v.2c.6.76,1.22,1.43,1.84,2,.52.48,1.05.94,1.58,1.37.62.5,1.25.98,1.88,1.42,1.29.91,2.6,1.69,3.94,2.35h0c.26.21.85.52,1.76.94-.62.79-1,2.68-1.14,5.68-.32,6.34.78,11.71,3.3,16.11.28.49.58.95.89,1.39.3.43.61.82.94,1.19.17.2.35.4.53.59.83.85,1.74,1.54,2.72,2.08,1.66.9,3.53,1.36,5.63,1.37.04.34.08.75.15,1.22.41,3,.67,4.98.76,5.92.09.94-.2,2.43-.87,4.48-.14.43-.33.91-.57,1.45-.31.71-.7,1.51-1.17,2.42-.05.09-.1.19-.15.28-.89,1.68-2.06,3.68-3.5,6,0,0-.07.14-.19.39-.12.25-.88,1.05-2.3,2.41-1.42,1.35-4.49,2.68-9.21,3.99-3.94,1.1-9.09-.92-15.44-6.04,2.37,3.51,4.45,5.87,6.24,7.06-1.91,2.85-4.33,5.06-7.27,6.63-3.51,1.86-6.58,2.81-9.22,2.83-2.64.01-4.27-.11-4.88-.38-.61-.27-1.22-.54-1.8-.8-.59-.27-1.71-1.17-3.34-2.71-1.49-1.41-4.37-5.21-8.66-11.41.52.96,1.14,2.3,1.86,4.03.72,1.73,2.03,4.08,3.92,7.05,1.89,2.97,3.44,4.64,4.63,5.02-1.15,1.04-3.1,2-5.86,2.88-1.68.53-3.42.96-5.22,1.3-1.58.29-2.77.44-3.56.44-1.69,0-3.08-.18-4.16-.52-1.09-.35-1.89-.66-2.39-.92-.51-.27-1.26-.81-2.26-1.62-1-.81-2.9-4.93-5.71-12.36.24,1.43.58,3.05,1.02,4.85.68,2.8,1.35,4.99,2.01,6.55.66,1.56.08,2.56-1.73,3-1.82.43-3.79.76-5.91.97-2.12.22-4.05.1-5.77-.35-1.51-.39-2.81-.98-3.9-1.76-.41-.29-.78-.62-1.13-.96-2.79-2.78-3.31-8.2-1.55-16.27.16-.76.35-1.48.57-2.16.17-.28.34-.54.51-.78,1.37-1.82,3.64-3.05,6.8-3.68,1.42-.2,2.67-.29,3.74-.29s2.02.29,2.85.88c.1.48.2.96.31,1.44.08.37.17.74.26,1.1.34,1.36.72,2.7,1.14,4.03-.12-.85-.22-1.67-.31-2.44-.05-.36-.09-.72-.13-1.06-.06-.47-.1-.92-.14-1.35-.02-.18-.04-.36-.05-.53-.01-.15-.02-.29-.03-.43.34-.35.55-.65.65-.89.6-1.5,1.5-2.93,2.69-4.29,1.22-1.38,2.57-2.48,4.03-3.3,1.59-.88,3.13-1.32,4.63-1.32.42,0,.79.07,1.12.21.08,1.18.4,2.46.94,3.85-3.81,2.38-7.3,3.48-10.48,3.31ZM288.66,373.76c1.52,3.5,3.22,6.08,5.1,7.73.06.1.13.21.21.3.47.63,1.19,1.18,2.18,1.67,1.13.55,2.35.77,3.65.66,1.3-.11,3.01-.73,5.14-1.84,2.12-1.12,3.21-2.53,3.25-4.21.03-1.69-.46-3.46-1.5-5.29-1.04-1.84-2.26-3.46-3.65-4.85-1.87,2.38-4.14,4.04-6.81,5.01-2.67.96-5.19,1.24-7.58.83ZM313.12,366.05c1.74,3.1,3.83,5.67,6.27,7.71.51.41,1.04.73,1.58.94.55.22,1.41.33,2.59.34,1.17,0,2.5-.41,3.98-1.25,1.47-.85,2.19-2.23,2.14-4.15-.03-1.33-.25-2.5-.64-3.5-.17-.45-.38-.86-.63-1.25-.8-1.24-2.14-2.81-4.04-4.69-1.19,1.33-2.9,2.54-5.15,3.62-1.72.82-3.75,1.56-6.1,2.23Z" fill="#078582" fill-rule="evenodd"/><path d="M272.23,367.58c-1.19.08-2.87.29-5.05.65-2.76.45-4.74.67-5.95.67-2.96,0-5.46-4.71-7.49-14.13-.71-3.28-1.3-6.81-1.75-10.61-.37-3.09-.56-5.33-.56-6.7,0-2.8.26-5.56.78-8.27.82-4.34,2.29-8.56,4.42-12.67,1.62-3.12,3.52-5.96,5.7-8.51,2.24-1.57,4.8-3.06,7.68-4.46,3.96-1.93,8.36-4.49,13.19-7.68.15-.1.31-.21.47-.3-.78,1.63-1.16,3.04-1.16,4.22,0,1.02.12,1.71.35,2.07.29.46.86.69,1.73.69,1.33,0,3.09-1.07,5.29-3.21.71-.7,1.76-1.8,3.14-3.29,1.64-1.77,2.83-3.03,3.55-3.77,3.05-3.13,5.88-5.48,8.47-7.06,3.43-2.1,6.89-3.16,10.36-3.21,1.49.24,2.97.62,4.45,1.14,8.6,3.05,16.54,6.21,23.81,9.48.73.33,1.44.66,2.13,1,.81,1,1.79,2.31,2.94,3.94,2.16,3.04,4.26,6.27,6.32,9.7,5.38,8.97,8.07,15.25,8.07,18.83,0,1.15-.67,2.97-2.02,5.47-.23.43-.47.86-.72,1.31-.45-.2-.92-.31-1.41-.34-1.44-.08-2.79.84-4.07,2.77-1.27,1.93-1.96,3.48-2.05,4.64-.06.72.11,1.72.5,3-.73.87-1.43,1.67-2.12,2.4-1.74,1.84-2.96,2.76-3.65,2.76-1.63,0-3.04-.65-4.22-1.95-.06-.17-.11-.34-.17-.52-.48-1.54-.72-2.78-.72-3.71,0-3.53.93-8.04,2.78-13.52,2.08-5.57,3.36-9.31,3.84-11.21-.15,0-.25-.06-.3-.17l-.04-.18c-.76.03-1.53.72-2.3,2.06-.35.61-.76,1.46-1.24,2.54.35-1.35.59-2.22.75-2.61l-1.27,3c-1.28.78-2.66,1.42-4.14,1.92-1.49.49-3.54.12-6.16-1.12-2.62-1.24-4.57-2.54-5.84-3.9-1.28-1.36-2.26-2.28-2.94-2.76-.24-.38-.48-.76-.71-1.15.13.32.27.64.4.94.68,1.59,1.39,3.02,2.12,4.31.85,2.4,1.02,4.6.49,6.62-.53,2-2.72,2.85-6.58,2.53-3.86-.32-9.02-1.82-15.5-4.51-8.44-3.49-14.72-7.15-18.85-10.98v.96c.25.28.67.93,1.26,1.96.14.24.26.47.37.67-.17-.21-.33-.42-.48-.62.08.18.15.36.23.54,0,0,0,.01.01.02,1.34,2.88,3.76,6.02,7.24,9.4,3.49,3.37,7.79,6.1,12.9,8.16,1.98.8,3.96,1.46,5.95,1.99,1.56.41,3.12.74,4.67.98-.85-.29-1.89-.73-3.11-1.32,2.56.82,5.91,1.87,10.06,3.14,4.25,1.38,7.74,2.7,10.47,3.95-.1,1.68-.33,2.93-.67,3.75-.44,1.06-.74,1.59-.91,1.58-.17-.01-.37.1-.6.34-.24.23-1.46.68-3.66,1.36-2.21.67-3.76.93-4.65.78-.09-.03-.18-.06-.26-.08-1.57-.44-3.16-.66-4.8-.65-3.62.01-6.74.9-9.35,2.67-2.2,1.48-3.67,3.34-4.41,5.57-1.87-1.09-4.28-1.75-7.25-1.98-2.45-.2-4.61.06-6.47.78-.39.15-.77.31-1.13.5-2.1,1.09-3.77,2.56-5,4.41-.41-.36-1.76-.57-4.06-.65-2.72-.1-5.42.85-8.1,2.83-1.22.89-2.21,1.82-2.99,2.77ZM270.86,379.02c-.83-.59-1.78-.88-2.85-.88s-2.32.1-3.74.29c-3.17.63-5.43,1.85-6.8,3.68-.17.24-.35.5-.51.78,2.07-6.55,6.45-9.39,13.14-8.52.2,1.57.45,3.12.76,4.65ZM285.05,370.18c-.33-.14-.7-.21-1.12-.21-1.5,0-3.05.44-4.63,1.32-1.47.82-2.81,1.92-4.03,3.3-1.19,1.36-2.09,2.78-2.69,4.29-.1.24-.31.54-.65.89-.2-2.41-.21-4.27-.04-5.59.28-2.23,1.29-4.12,3.02-5.67.2-.18.41-.36.63-.52.01-.01.03-.02.04-.03,1.55-1.22,3.24-1.94,5.06-2.18,2.08-.27,3.61-.19,4.58.25.17.08.33.17.47.26-.27.12-.48.96-.62,2.52-.04.44-.05.9,0,1.37ZM310.32,365.69c-.11.37-.24.84-.39,1.42-.04.16-.28,1.12-.72,2.87-1.36-1.01-2.32-1.7-2.86-2.1-.89-.64-1.66-1.11-2.31-1.41-1.47-.71-3.64-1.05-6.49-1.04-2.86,0-5.24,1-7.14,2.98-1.91,1.97-2.76,4.36-2.56,7.17-1.17-3.31-1.31-6.03-.41-8.15.57-1.34,1.57-2.76,2.99-4.24,1.41-1.49,3.45-2.41,6.11-2.75,2.65-.34,5.28.07,7.89,1.2,2.05.89,4.01,2.25,5.88,4.06ZM342.64,364.87c.53,1.66.71,3.67.52,6.04-.24-.45-1.1-1.52-2.59-3.19-2.09-2.34-5.18-4.59-9.28-6.74-4.11-2.16-7.6-2.95-10.47-2.36-2.88.58-5.14,1.24-6.79,1.97-2.03.91-3.19,2.34-3.46,4.3-.81-1.54-1.23-2.38-1.26-2.52-.03-.14-.04-.42-.04-.85v-.07c.04-2.03,1.36-3.89,3.96-5.59,2.53-1.65,5.13-2.47,7.81-2.47.17,0,.34,0,.51.01,3.72.09,7.41,1.17,11.09,3.24,1.5.84,3.72,2.57,6.68,5.2.66.59,1.37,1.22,2.11,1.9.39.36.8.74,1.22,1.13Z" fill="#0bb4b1" fill-rule="evenodd"/><path d="M359.15,334.93c-.81,1.28-1.72,2.61-2.71,4-.82,1.13-1.61,2.18-2.38,3.15,0-.03-.01-.05-.02-.07-.13-.41-.21-.99-.25-1.74-.04-.75.53-1.87,1.73-3.33,1.19-1.47,2.29-2.16,3.28-2.06.12,0,.24.02.36.05Z" fill="#d68a80" fill-rule="evenodd"/><path d="M275.51,377.34c.13.02.27.04.41.07.75.14,1.62.22,2.62.24,1,.01,2.13-.13,3.39-.43,1.26-.31,2.79-.85,4.6-1.63,1.04,2.24,2.22,4.15,3.54,5.75.19,1.21-.14,2.24-.99,3.1-6.27,4.09-10.79,3.6-13.56-1.47-.72-1.88-.73-3.76-.02-5.64ZM270.18,381.24c1.03,3.89,1.34,6.68.92,8.36-2.93.91-5.04,1.37-6.34,1.38-3.17.04-4.88-1.4-5.11-4.34-.08-1.03.01-2.24.28-3.63.28.07.56.13.83.19,4.04.8,7.18.14,9.42-1.97ZM359.15,334.93c.87.17,1.75.66,2.63,1.47,1,.91,1.36,2.04,1.09,3.39-.03.14-.06.28-.11.42-1.38,4.62-2.61,7.96-3.69,10.02-1.09,2.05-1.73,3.21-1.91,3.46.06-.39.08-.67.08-.83,0-1.72-.67-4.3-2.02-7.74-.64-1.57-1.03-2.58-1.17-3.02.77-.97,1.56-2.02,2.38-3.15,1-1.39,1.9-2.72,2.71-4ZM293.76,381.49c-1.89-1.66-3.59-4.23-5.1-7.73,2.61.75,5.29.78,8.04.07,2.75-.71,4.92-1.84,6.53-3.39,2.38,2.49,3.38,4.94,3.01,7.36-.31,1.97-1.41,3.46-3.32,4.46-1.91,1.01-3.54,1.43-4.88,1.27-1.33-.17-2.74-.85-4.23-2.01,0-.01-.02-.02-.03-.03ZM313.12,366.05c.66.37,1.85.41,3.59.11,1.74-.31,3.38-.9,4.91-1.79,1.53-.89,2.47-1.46,2.83-1.71,1.24,1.25,2.06,2.25,2.46,2.99.07.13.14.27.2.4.43.96.69,2.06.77,3.3.08,1.24-.41,2.33-1.47,3.27-1.05.94-2.13,1.5-3.23,1.69-1.1.18-1.96.15-2.56-.08-.61-.25-1.02-.4-1.25-.45-2.44-2.04-4.53-4.61-6.27-7.71Z" fill="#e1a52c" fill-rule="evenodd"/><path d="M343.36,346.18s-.05-.05-.07-.07c-.82-2.4-1.22-4.65-1.21-6.76.02-3.4.6-7.49,1.74-12.25.52-2.21.96-3.99,1.31-5.33.03-.1.05-.2.07-.29.47-1.08.89-1.92,1.24-2.54.77-1.34,1.53-2.03,2.3-2.06l.04.18c.06.11.16.17.3.17-.47,1.91-1.75,5.64-3.84,11.21-1.85,5.48-2.78,9.98-2.78,13.52,0,.93.24,2.17.72,3.71.06.18.11.36.17.52ZM315.4,282.02c-3.48.04-6.93,1.11-10.36,3.21-2.59,1.58-5.41,3.93-8.47,7.06-.73.75-1.91,2.01-3.55,3.77-1.38,1.49-2.43,2.59-3.14,3.29-2.2,2.14-3.96,3.21-5.29,3.21-.87,0-1.44-.23-1.73-.69-.23-.36-.35-1.05-.35-2.07,0-1.18.39-2.59,1.16-4.22.85-.57,1.72-1.16,2.6-1.77,2.29-1.58,4.67-3.29,7.15-5.14.18-.13.36-.27.54-.4,7.28-5.27,14.43-7.35,21.44-6.25Z" fill="#0cd7d4" fill-rule="evenodd"/><path d="M325.6,316c.68.48,1.67,1.39,2.94,2.76,1.27,1.35,3.22,2.65,5.84,3.9,2.62,1.24,4.67,1.61,6.16,1.12,1.48-.5,2.86-1.14,4.14-1.92l-2.9,6.82c-3.21-.48-6.23-1.9-9.08-4.27-.64-.54-1.28-1.12-1.9-1.74-1.13-1.13-2.23-2.42-3.29-3.86-.65-.88-1.29-1.82-1.92-2.82ZM262.33,308.02c-2.18,2.55-4.08,5.39-5.7,8.51-2.13,4.11-3.6,8.33-4.42,12.67-.52,2.71-.78,5.47-.78,8.27,0,1.37.19,3.6.56,6.7.45,3.79,1.04,7.33,1.75,10.61,2.03,9.42,4.53,14.13,7.49,14.13,1.21,0,3.19-.22,5.95-.67,2.18-.36,3.86-.57,5.05-.65-.95,1.15-1.58,2.34-1.9,3.57-7.71.07-12.82,2.87-15.33,8.4-.92,2.01-1.55,3.61-1.91,4.79-.23-.99-.45-2.13-.66-3.41-.21-1.29-.3-2.86-.26-4.71.25-2.96,1.4-4.93,3.44-5.9.94-.45,1.89-.77,2.85-.93.71-.13,1.42-.17,2.14-.15.39.01.78.05,1.17.12-.31-.08-.63-.15-.94-.21-1.59-.29-3.17-.17-4.73.34-1.87.61-3.42,1.44-4.63,2.49v-18.86c.05-4.66-.11-11.25-.47-19.78-.06-1.43-.07-2.78-.03-4.08.2-6.5,1.64-11.43,4.33-14.81,1.81-2.28,4.15-4.43,7.03-6.43Z" fill="#099895" fill-rule="evenodd"/></g><path d="M132.08,135.93c.26-.17.45-.14.58.1.12.19.11.36-.04.52-.01.01-.03.03-.06.04-.02.01-.04.03-.06.04-.62.45-1.87,1.63-3.76,3.53-1.73,1.95-2.81,3.25-3.23,3.92-.01.01-.02.03-.04.06-.01.03-.02.05-.04.06-.15.16-.32.18-.51.07-.25-.13-.29-.33-.11-.59l.11-.12.11-.12c.92-.98-.33-3.08-3.75-6.28-1.57-1.47-2.66-2.41-3.27-2.79-.61-.39-1.06-.43-1.34-.13-.12.13-.31.48-.58,1.05-.05.05-.09.09-.13.1-.24.17-.44.14-.61-.09-.04-.06-.05-.14-.03-.23.02-.09.06-.2.12-.33.06-.13.09-.23.11-.29.07-.23.28-1.08.62-2.56.35-1.47.66-2.68.95-3.61.29-.94.56-1.54.82-1.82.15-.16.29-.17.42-.05.28.26,1.41,1.32,3.39,3.2,1.99,1.88,3.17,2.99,3.55,3.35.38.36.8.72,1.27,1.09.46.37,1.06.82,1.81,1.34s1.44.86,2.09,1c.65.14,1.15.04,1.48-.31l.05-.06.07-.08Z" fill="#d09d21"/><path d="M147.01,110.09c.82-.49,1.66-.87,2.51-1.15.85-.28,1.72-.45,2.62-.51.9-.06,1.76.09,2.59.46.83.37,1.54.94,2.14,1.73.86,1.22,1.17,2.55.96,3.99-.22,1.44-.85,2.83-1.9,4.19s-2.45,2.69-4.21,3.99c-.33.25-.92.64-1.78,1.18-.86.53-1.53.97-2.01,1.32-.32.24-.56.42-.75.53-.16.12-.43.33-.81.63-.38.3-.65.51-.79.63-.15.12-.36.3-.64.54-.28.24-.5.43-.66.58-.16.15-.33.33-.53.53s-.37.4-.52.58c-.02.04-.05.07-.09.1-.19.14-.38.12-.59-.06-.24-.2-.27-.44-.09-.71l.15-.11s.03-.02.06-.03c.03,0,.05-.02.06-.03.27-.21.36-.61.26-1.21-.1-.6-.51-1.56-1.23-2.88-.73-1.32-1.78-2.89-3.16-4.71-.84-1.12-1.63-2.09-2.36-2.92-.73-.83-1.36-1.48-1.88-1.95-.52-.47-.99-.83-1.41-1.08-.41-.25-.75-.39-1-.43-.25-.03-.46,0-.61.13l-.04.03s-.03.06-.05.07c-.07.05-.13.08-.17.09-.11.06-.23.06-.37,0s-.23-.15-.29-.29c-.1-.24-.06-.43.12-.56.04-.03.08-.05.12-.06.83-.36,1.97-1.06,3.41-2.1.83-.63,1.77-1.41,2.81-2.34,1.04-.93,1.66-1.48,1.84-1.65.17-.16.44-.37.8-.64,1.98-1.5,3.86-2.42,5.65-2.78,1.79-.36,3.02.07,3.7,1.29.42.76.46,1.6.11,2.52-.34.91-1,1.95-1.97,3.11ZM151.16,122.02c1.09-.82,1.57-1.98,1.44-3.47s-.62-2.81-1.49-3.96c-.25-.33-.58-.67-.98-1.01-.41-.34-.91-.68-1.51-1.01-.59-.33-1.27-.47-2.03-.43-.76.04-1.48.32-2.17.84-.19.14-.47.4-.86.79l-.09.06c-.23.17-.43.17-.61,0-.17-.16-.15-.37.07-.62.03-.05.07-.09.11-.12.62-.52,1.08-1.05,1.36-1.6.28-.55.39-1.06.32-1.54-.07-.48-.18-.89-.34-1.23-.16-.34-.36-.65-.62-.93-1.45-1.68-2.99-1.88-4.63-.62-.53.47-.54,1.16-.03,2.08.51.92,1.69,2.62,3.56,5.08.46.62.83,1.1,1.09,1.44.21.27.5.66.88,1.16,1.73,2.29,2.95,3.83,3.66,4.6s1.33,1.12,1.86,1.06c.39-.16.73-.35,1-.55Z" fill="#d09d21"/><path d="M160.37,115.87c-.21-.27-.22-.51-.03-.72l.17-.09c.07-.02.16-.06.27-.12.13-.07.21-.13.25-.17.34-.25.54-.68.62-1.3.08-.62.02-1.62-.17-2.99-.14-.73-.33-1.73-.59-3l-.91.69c-.57.31-1.01.27-1.35-.15-.16-.22-.23-.46-.2-.72.03-.26.14-.47.35-.62.03-.02.04-.03.03-.05.51-.34,1.02-.66,1.54-.95l.14-.08c-.72-3.51-1.35-6.39-1.89-8.66-.24-.98-.65-1.5-1.24-1.56-.35,0-.71.09-1.07.29l-.05.03c-.29.06-.5-.06-.61-.37-.07-.25.03-.45.31-.6.5-.25,1.38-.58,2.67-.98,1.28-.4,2.2-.75,2.77-1.06.77-.43,1.32-.96,1.64-1.59.04-.11.13-.19.25-.26.28-.16.54-.12.78.12,5.14,5.17,9.42,9.05,12.83,11.64.96.7,1.69,1.15,2.18,1.34.49.2.92.2,1.28,0l.14-.08.16-.09c.13-.03.25,0,.37.07.12.08.19.18.22.31.08.26.02.45-.18.56-.05.03-.09.04-.13.04-1.07.29-2.7,1.04-4.88,2.26-2.4,1.34-4.01,2.39-4.84,3.16-.02.03-.06.06-.1.09-.2.11-.4.07-.57-.14-.1-.11-.15-.23-.15-.38,0-.14.05-.26.15-.33l.17-.09.12-.07c.63-.35.59-1.05-.12-2.09-.55-.62-1.06-1.06-1.54-1.33-.48-.27-1.12-.46-1.92-.57-.47-.03-.98,0-1.53.08-1,.21-2,.57-3,1.09-.15.06-.36.17-.63.32.11.45.3,1.3.58,2.54.43,1.47.83,2.42,1.21,2.86.38.44.8.55,1.29.35l.35-.2.17-.09c.29-.06.5.07.62.4.08.25.01.42-.19.54-.05.03-.09.04-.13.04-1.06.28-1.96.63-2.71,1.05-.69.38-1.43.95-2.23,1.7-.02.03-.06.06-.1.09-.17.1-.35.05-.54-.13ZM159.81,96.75c.13.65.75,3.39,1.84,8.23.07-.02.17-.06.3-.13,1.16-.46,2.15-.77,2.96-.91.81-.14,1.76-.15,2.85-.01-.87-.85-3.51-3.25-7.94-7.17Z" fill="#d09d21"/><path d="M197.29,88.58c.19.29.15.53-.12.71l-.05.02-.15.06c-.44.29-.43,1.2.05,2.73.48,1.53,1.06,2.8,1.74,3.8.21.32.29.63.26.91-.03.28-.17.47-.4.56-.2.08-.42.07-.67-.02-.74-.25-1.41-.25-2.03-.01-.43.17-1.16.73-2.17,1.69-1.01.96-2.01,1.68-3,2.16-.18.09-.44.2-.79.34-1.55.61-3.15.83-4.77.64-1.63-.18-3.19-.82-4.69-1.91-1.5-1.09-2.7-2.58-3.59-4.46-1.42-2.97-1.51-5.85-.26-8.63,1.24-2.78,3.51-4.81,6.81-6.11,1.34-.53,2.62-.83,3.85-.92,1.23-.09,2.28.02,3.15.31.87.3,1.61.67,2.21,1.13.6.46,1.04.96,1.32,1.51.47.94.54,1.89.21,2.86-.32.97-1.02,1.75-2.08,2.34-.29.15-.52.26-.68.33-1.17.46-2.22.63-3.15.52-.53-.08-.76-.26-.68-.54.24-.85.32-1.74.23-2.67-.09-.93-.3-1.73-.63-2.42s-.75-1.2-1.28-1.55c-.53-.35-1.07-.42-1.64-.19l-.23.09c-.9.47-1.44,1.39-1.61,2.78-.18,1.38-.04,2.87.42,4.45.46,1.59,1.09,3.17,1.88,4.75.87,1.57,2,2.91,3.4,4.02,1.4,1.11,2.59,1.58,3.56,1.41.15-.02.24-.04.27-.05.9-.35.75-1.75-.46-4.19-.22-.42-.47-.82-.75-1.21-.28-.39-.65-.73-1.11-1.02-.46-.29-.89-.36-1.3-.2l-.12.05-.05.02c-.33.03-.53-.11-.58-.44-.02-.26.11-.45.42-.57,1.58-.24,3.09-.64,4.51-1.19,1.79-.7,3.15-1.37,4.08-2.01.3-.12.54-.08.71.12Z" fill="#d09d21"/><path d="M307.12,78.51c-.11-.08-.16-.19-.18-.33s.01-.27.07-.38c.17-.2.4-.25.66-.15.74.54,1.93,1.13,3.59,1.77l.7.27c1.48.52,2.61.82,3.4.92.18.03.31.06.4.1.62.24.91.63.87,1.18-.14,1.64.1,4.89.71,9.73.61,4.85,1.16,7.55,1.66,8.11.32-.82.76-1.96,1.32-3.43.56-1.47.91-2.37,1.04-2.7,1.21-3.1,1.91-5.31,2.12-6.63.21-1.33-.07-2.14-.84-2.44l-.15-.06c-.08-.03-.14-.06-.17-.09-.11-.06-.18-.16-.2-.31s.01-.28.1-.4c.14-.21.32-.28.54-.19.05.02.09.04.12.07.83.59,1.68,1.06,2.55,1.4.8.31,1.71.53,2.72.66.04,0,.08,0,.13.02.18.07.26.24.24.5-.06.34-.23.5-.53.46-.04,0-.1-.01-.19-.04l-.2-.08c-.44-.17-.87-.09-1.3.25-.43.33-.95,1.09-1.56,2.26-.61,1.17-1.35,2.87-2.21,5.09-.24.62-.85,2.2-1.82,4.74-.97,2.54-1.59,4.16-1.86,4.84-.12.3-.37.38-.75.23-.71-.49-1.74-1-3.08-1.52-1.32-.51-2.41-.83-3.27-.96-.21-.04-.3-.18-.25-.41.43-2.28-.16-8.04-1.75-17.28-.03.03-.06.08-.09.17-.03.08-.07.15-.1.19-.41.9-1.11,2.63-2.11,5.19-1.19,3.05-1.89,5.23-2.11,6.54-.22,1.31.02,2.14.73,2.5l.25.1.18.07c.25.21.27.45.07.72-.14.21-.31.28-.51.21-.05-.02-.09-.04-.12-.07-.83-.59-1.68-1.06-2.55-1.4-.8-.31-1.71-.53-2.72-.66-.04,0-.08,0-.13-.02-.2-.08-.29-.25-.26-.51.07-.34.26-.5.56-.48l.18.07.33.13c.63.17,1.3-.28,2.01-1.34.71-1.06,1.68-3.17,2.91-6.31,1-2.58,1.67-4.49,2-5.73.63-2.51.39-3.98-.71-4.41-.03-.01-.08-.02-.13-.04-.05-.01-.1-.02-.13-.04l-.18-.07Z" fill="#d09d21"/><path d="M332.11,90.63c2.84-.82,5.68-.44,8.53,1.14,2.84,1.58,4.66,3.8,5.45,6.64.79,2.85.44,5.6-1.05,8.27-1.49,2.67-3.65,4.41-6.49,5.23-2.84.82-5.68.45-8.5-1.13-2.82-1.57-4.64-3.79-5.43-6.64-.8-2.85-.45-5.61,1.03-8.28,1.49-2.67,3.64-4.42,6.47-5.25ZM331.84,110.93c1.17.41,2.41-.17,3.7-1.72,1.29-1.55,2.49-3.67,3.57-6.35,1-2.46,1.53-4.79,1.58-6.97.05-2.18-.45-3.56-1.5-4.15-.11-.06-.2-.1-.27-.12-1.17-.42-2.43.16-3.79,1.74s-2.59,3.71-3.69,6.37c-.98,2.43-1.48,4.74-1.49,6.91,0,2.17.51,3.56,1.56,4.14.14.08.25.13.32.15Z" fill="#d09d21"/><path d="M364.76,133.74c.17.27.13.5-.13.69-.21.15-.44.14-.68-.05-.59-.76-2.01-2.05-4.26-3.87-1.87-1.43-3.27-2.36-4.19-2.78-.23-.18-.29-.39-.21-.65.16-.29.38-.38.66-.27l.04.03.11.08c.69.45,1.56.08,2.59-1.11,1.04-1.2,2.29-3.26,3.78-6.18.67-1.28,1.45-2.86,2.36-4.73-1.02.89-2.41,2-4.16,3.32-1.75,1.33-3.21,2.48-4.37,3.45-1.16.98-1.98,1.85-2.48,2.63-.11.19-.24.22-.41.09-.04-.03-.07-.06-.07-.09-.39-.7-.9-1.29-1.54-1.79-.35-.28-.86-.6-1.52-.96-.66-.36-1.12-.64-1.38-.84-.42-.33-.72-.71-.88-1.14-.12-.25-.08-.48.13-.69,1.42-1.42,3.36-5.29,5.82-11.61-1.86,1.69-3.17,2.89-3.93,3.59-.25.23-.61.56-1.05.99-2.04,1.83-3.4,3.19-4.09,4.08-.69.89-.76,1.56-.19,2.01l.11.08.11.08.04.03c.17.27.13.5-.13.69-.21.15-.43.14-.66-.04-.67-.87-1.34-1.57-2.02-2.1-.62-.49-1.43-.96-2.43-1.4-.23-.18-.29-.39-.19-.63.12-.3.33-.39.64-.29l.15.12.1.08c.56.44,1.46.31,2.69-.4,1.22-.71,3.15-2.25,5.78-4.59,3.6-3.23,5.6-5.27,6.03-6.13.24-.43.26-.88.05-1.37-.09-.12-.17-.2-.24-.26-.03-.02-.07-.05-.13-.08s-.1-.06-.12-.08l-.15-.12c-.17-.25-.13-.48.11-.7.21-.18.41-.19.59-.05.04.03.07.07.09.1.59.76,1.35,1.52,2.29,2.28,1.83,1.45,3.11,2.3,3.81,2.56.11.04.17.07.2.09.16.12.2.32.13.58l-.03.04c-3.2,5.69-5.1,9.94-5.7,12.76-.02.12,0,.21.09.28.1.08.21.08.35,0,.06-.04.64-.47,1.75-1.28,1.11-.81,1.95-1.44,2.54-1.89.58-.45,1.36-1.06,2.32-1.83.96-.77,1.76-1.47,2.4-2.11.64-.64,1.14-1.21,1.49-1.71.1-.15.24-.22.42-.2.18.02.35.09.5.21l.06.05c.12.11.53.53,1.24,1.25.71.72,1.26,1.24,1.64,1.57,1.44,1.13,2.62,1.91,3.56,2.32.24.19.31.4.21.65-.14.3-.36.39-.66.27l-.08-.07-.06-.05-.08-.07c-.25-.2-.61-.12-1.07.25-.46.37-1.08,1.14-1.86,2.32-.78,1.18-1.67,2.74-2.67,4.67-3,5.87-4.11,9.11-3.34,9.72l.06.05.17.13Z" fill="#d09d21"/><path d="M364.08,134.38c.22-.27.45-.33.7-.19l.13.14c.04.06.09.14.18.24.1.11.17.17.22.2.32.27.79.37,1.41.31.62-.07,1.58-.35,2.87-.84.68-.3,1.6-.72,2.79-1.26l-.88-.73c-.43-.48-.49-.93-.16-1.34.17-.21.39-.33.66-.36.26-.03.49.03.69.19.02.03.04.03.06.02.45.42.88.84,1.27,1.28l.11.12c3.25-1.5,5.92-2.77,8-3.81.9-.45,1.31-.97,1.24-1.56-.07-.35-.25-.67-.52-.98l-.04-.04c-.13-.27-.05-.5.22-.68.22-.13.44-.07.66.17.36.42.88,1.22,1.56,2.37.68,1.16,1.23,1.98,1.67,2.46.59.65,1.23,1.06,1.92,1.24.11.02.22.08.32.19.22.24.24.5.06.78-3.87,6.19-6.67,11.23-8.41,15.14-.46,1.1-.73,1.91-.81,2.43-.08.52.01.94.29,1.24l.11.12.13.14c.06.12.06.24,0,.37-.05.13-.13.23-.25.28-.23.14-.43.12-.59-.05-.04-.04-.06-.08-.07-.12-.53-.98-1.63-2.39-3.31-4.24-1.85-2.03-3.24-3.37-4.18-4-.04-.02-.08-.04-.11-.08-.16-.17-.15-.37,0-.59.08-.12.19-.2.33-.23.14-.03.26,0,.36.07l.13.14.09.1c.48.53,1.15.34,2.01-.59.48-.68.79-1.28.95-1.8.15-.53.19-1.19.11-2-.08-.46-.22-.95-.43-1.47-.43-.92-1.01-1.82-1.74-2.68-.1-.13-.25-.31-.45-.54-.42.21-1.2.59-2.34,1.15-1.33.75-2.17,1.36-2.51,1.82s-.36.91-.04,1.33l.27.3.13.14c.13.27.05.5-.24.69-.22.13-.41.11-.57-.07-.04-.04-.06-.08-.07-.12-.51-.97-1.06-1.77-1.64-2.41-.53-.58-1.25-1.18-2.17-1.78-.04-.02-.08-.04-.11-.08-.13-.15-.13-.33,0-.55ZM382.57,129.49c-.6.28-3.13,1.5-7.6,3.66.03.06.1.15.2.26.71,1.03,1.23,1.92,1.56,2.68.33.76.54,1.68.66,2.77.63-1.04,2.36-4.16,5.18-9.37Z" fill="#d09d21"/><path d="M400.97,164.55l-.18.12c-2.37,1.63-4.95,2.15-7.75,1.56-2.8-.58-4.97-2.01-6.53-4.28-.27-.4-.47-.71-.58-.94-.61-1.11-1.18-2.09-1.72-2.94-.51-.74-.93-1.38-1.27-1.9-.11-.16-.31-.44-.59-.84-.28-.39-.48-.67-.59-.82-.12-.15-.28-.37-.51-.67-.22-.29-.41-.52-.55-.68-.14-.16-.31-.35-.51-.55-.19-.2-.38-.39-.56-.55-.03-.02-.07-.05-.1-.1-.13-.19-.1-.39.09-.58.21-.23.45-.25.71-.06l.11.16s.02.04.03.06c0,.03.02.05.03.06.19.28.59.39,1.2.32.61-.07,1.59-.43,2.94-1.1s2.97-1.65,4.85-2.94c1.16-.79,2.17-1.54,3.03-2.23.87-.69,1.54-1.29,2.04-1.79.49-.5.87-.96,1.14-1.36.27-.4.42-.73.47-.98.05-.25.01-.46-.1-.62l-.03-.04s-.06-.04-.07-.05c-.05-.07-.08-.13-.08-.17-.06-.11-.05-.24,0-.37.06-.13.16-.22.3-.27.25-.08.43-.04.55.14.03.04.05.09.05.13.31.83,1.2,2.35,2.66,4.55l.43.62h.04c1.06,1.55,2.05,2.85,2.97,3.91.17.19.4.48.67.88,1.56,2.27,2.1,4.81,1.64,7.63-.46,2.82-1.88,5.05-4.25,6.67ZM396.75,158.78l.18-.12c1.13-.77,2.08-1.51,2.87-2.2.79-.69,1.48-1.43,2.07-2.2.59-.78.91-1.56.97-2.35.06-.79-.17-1.56-.68-2.3-.07-.1-.21-.28-.43-.52-.48-.45-1.31-.38-2.47.23-1.17.6-3.21,1.91-6.12,3.91-2.87,1.97-4.82,3.42-5.83,4.33s-1.41,1.67-1.18,2.25c.15.29.27.49.35.61.51.74,1.14,1.22,1.89,1.45.75.22,1.6.2,2.53-.07.94-.27,1.86-.65,2.79-1.13.92-.48,1.95-1.11,3.07-1.88Z" fill="#d09d21"/><path d="M141.27,391.34c1.24,3.28,1.03,5.73-.61,7.36-.97.95-2.23,1.42-3.78,1.41s-3.07-.34-4.56-1.01-2.86-1.54-4.1-2.6l-.38-.33c-2.13-1.94-3.47-3.96-4.02-6.08s-.24-3.79.92-5.01c.72-.74,1.61-1.1,2.67-1.1,1.06,0,2.03.4,2.93,1.19.77.68,1.27,1.51,1.5,2.49s.09,1.81-.41,2.51c-.16.21-.36.34-.59.39-.24.04-.46.04-.68,0s-.49-.03-.81.04c-.32.08-.63.26-.92.54-.55.53-.83,1.25-.83,2.14,0,.89.42,1.71,1.29,2.45l.2.17c.94.71,1.92.98,2.93.81,1.02-.17,1.83-.72,2.42-1.66.29-.48.5-.94.64-1.4.13-.46.16-.95.08-1.47s-.15-.89-.2-1.1c-.05-.21-.18-.58-.37-1.12-.03-.1-.06-.18-.08-.24-.24-.7-.78-1.95-1.6-3.75-1.69-3.68-1.65-6.3.12-7.85.59-.52,1.26-.85,2.02-.97.76-.12,1.48-.09,2.18.09s1.44.49,2.23.91c.79.42,1.47.84,2.03,1.25.56.41,1.12.86,1.69,1.34,1.69,1.52,2.79,3.06,3.28,4.62.49,1.57.44,2.72-.17,3.46-.41.51-.99.79-1.73.85s-1.44-.16-2.11-.67c-.03-.02-.07-.06-.14-.1-.07-.04-.11-.08-.14-.1-.61-.52-.98-1.12-1.11-1.81-.14-.69-.06-1.26.21-1.73.11-.19.41-.29.89-.31.48-.02.87-.17,1.15-.44.11-.1.2-.22.28-.37.08-.15.16-.37.23-.64.07-.28.03-.6-.14-.98s-.46-.77-.89-1.18l-.28-.24c-.85-.73-1.67-1.05-2.46-.98s-1.36.44-1.71,1.1c-.45.85-.34,2.04.32,3.56.27.61,1.14,2.79,2.61,6.54Z" fill="#d09d21"/><path d="M143.86,397.97c-.1-.17-.12-.36-.07-.56.06-.21.17-.36.34-.46h.04c1.27-.67,2.8-.8,4.6-.39.89-1.49,1.54-2.77,1.96-3.83.42-1.06.62-1.83.63-2.32,0-.48-.12-.8-.38-.97-.01,0-.04-.02-.06-.03-.03,0-.05-.01-.06-.02-.08-.05-.12-.09-.14-.12-.09-.1-.12-.21-.11-.35.01-.14.07-.25.17-.34.19-.17.37-.2.54-.1.04.03.08.06.1.09.6.64,2,1.67,4.17,3.11.09.06.3.19.64.39.33.2.54.33.61.38s.24.15.5.3c.26.16.44.26.53.31.09.05.24.13.45.24.2.11.37.19.5.26.13.06.29.13.47.21s.36.14.54.19c.04,0,.08.02.13.05.18.11.22.29.14.53-.05.14-.13.24-.26.31-.13.07-.25.07-.36.02-.04,0-.09-.03-.15-.06-.23-.17-.49-.2-.78-.09s-.64.38-1.05.81c-.41.43-.86.98-1.33,1.63-.47.66-1.05,1.51-1.75,2.56.19.16.31.28.37.36,2.02,2.05,2.97,4.2,2.85,6.47,0,.13,0,.22-.02.27l.97-1.53c1.88-2.95,3.11-5.03,3.67-6.25.57-1.22.6-1.99.09-2.31l-.04-.03c-.08-.05-.12-.09-.14-.12-.2-.21-.18-.44.06-.69.19-.17.37-.21.54-.1.04.03.08.06.1.09.12.14.25.28.4.41.15.13.27.25.38.34.11.09.26.21.44.35.18.14.32.24.4.31s.25.18.5.35c.25.17.41.28.49.33.08.05.27.18.6.4.32.22.53.36.62.41,2.22,1.38,3.74,2.2,4.58,2.48.04,0,.08.02.13.05.18.12.22.29.14.53-.04.12-.12.22-.23.29s-.24.09-.36.05c-.04,0-.1-.03-.17-.08-.01,0-.03-.03-.05-.07l-.04-.03c-.17-.1-.37-.13-.61-.08-.25.05-.56.22-.95.5-.39.28-.82.67-1.3,1.17-.48.5-1.05,1.19-1.7,2.07-.65.88-1.35,1.9-2.1,3.07-1.17,1.83-2.05,3.4-2.66,4.71-.61,1.32-.96,2.28-1.05,2.9-.09.62-.01,1.05.24,1.29.02.03.05.07.1.09.06.04.1.05.13.05l.16.1c.2.25.17.49-.08.71-.18.18-.36.21-.54.1-.04-.03-.08-.06-.1-.09-.17-.17-.35-.35-.56-.53-.21-.19-.39-.35-.56-.48-.17-.14-.4-.31-.69-.52-.3-.21-.52-.37-.67-.48-.15-.11-.43-.29-.83-.56-.4-.27-.68-.45-.85-.56-2.02-1.23-3.44-1.97-4.25-2.24-.04,0-.08-.02-.13-.05-.17-.11-.21-.28-.14-.53.14-.31.34-.43.61-.37l.16.1c.61.37,1.59-.35,2.96-2.16.01-.05.05-.13.11-.22.54-.77.89-1.53,1.06-2.26.52-2.36-.31-4.63-2.5-6.81-.04-.03-.1-.09-.17-.17-.07.1-.18.27-.33.49-.15.22-.26.39-.34.51-1.85,2.9-3.07,5-3.65,6.28s-.62,2.1-.12,2.44l.13.09c.19.23.17.47-.05.72-.18.18-.36.21-.54.1-.04-.03-.08-.06-.1-.09-.59-.63-1.86-1.6-3.82-2.92-.17-.11-.45-.28-.86-.53-.41-.25-.69-.42-.86-.52-.16-.09-.4-.23-.72-.41-.32-.18-.57-.32-.76-.41-.19-.09-.42-.19-.67-.3-.26-.11-.5-.21-.72-.29-.04,0-.08-.02-.13-.05-.17-.1-.21-.28-.14-.53.1-.32.3-.44.61-.37l.16.1s.05.07.1.09c.06.04.1.05.13.05.32.12.75.01,1.27-.33s1.25-1.06,2.19-2.17c.94-1.11,1.99-2.57,3.16-4.4l.3-.47c-.5-.11-1.04-.13-1.62-.06-.58.07-1.07.23-1.45.46-.3.14-.57.14-.81-.01-.08-.05-.15-.14-.23-.28Z" fill="#d09d21"/><path d="M162.75,419.57c.09-.33.27-.48.55-.45l.17.08c.06.04.14.09.26.14.13.06.22.09.28.1.39.12.86.03,1.39-.28.54-.3,1.29-.93,2.27-1.89.49-.54,1.17-1.28,2.03-2.24l-1.08-.31c-.58-.26-.81-.65-.68-1.15.08-.26.23-.45.45-.58.22-.13.46-.16.7-.09.03.01.05.01.06,0,.57.2,1.12.42,1.66.66l.15.07c2.36-2.63,4.28-4.84,5.76-6.6.64-.76.81-1.4.51-1.9-.2-.29-.49-.51-.86-.68l-.05-.02c-.22-.2-.24-.43-.06-.7.15-.21.37-.24.66-.11.49.24,1.28.76,2.34,1.54,1.07.78,1.89,1.31,2.48,1.57.79.36,1.54.48,2.23.36.11-.03.23-.01.36.05.29.13.41.36.36.69-1.08,7.13-1.64,12.81-1.68,17.04.01,1.17.09,2.02.22,2.52.13.51.38.84.75,1.01l.15.07.17.08c.1.08.15.19.16.33,0,.14-.03.26-.12.36-.16.22-.34.28-.55.19-.05-.02-.09-.05-.11-.08-.86-.68-2.42-1.53-4.67-2.54-2.47-1.12-4.26-1.78-5.36-1.98-.04,0-.08,0-.13-.03-.21-.09-.28-.27-.22-.54.03-.14.1-.26.21-.34.12-.08.23-.11.35-.07l.17.08.12.05c.65.29,1.18-.15,1.59-1.33.17-.8.22-1.47.15-2.01-.07-.54-.3-1.16-.68-1.86-.25-.39-.58-.78-.96-1.17-.75-.67-1.63-1.25-2.63-1.74-.14-.08-.35-.18-.62-.31-.3.35-.85,1.01-1.67,1.96-.91,1.2-1.43,2.08-1.56,2.64-.12.56.04.97.48,1.23l.36.16.17.08c.22.2.24.44.05.72-.15.2-.33.26-.54.16-.05-.02-.08-.05-.11-.08-.84-.67-1.66-1.19-2.43-1.54-.71-.32-1.6-.58-2.66-.76-.04,0-.08,0-.13-.03-.18-.08-.25-.25-.21-.5ZM177.59,407.87c-.43.49-2.25,2.59-5.45,6.3.06.04.15.1.28.16,1.05.65,1.87,1.25,2.47,1.82.59.56,1.16,1.31,1.69,2.25.17-1.19.51-4.7,1.01-10.53Z" fill="#d09d21"/><path d="M191.57,411.52c-.11-.07-.18-.17-.2-.31-.03-.14-.01-.26.04-.38.16-.21.37-.28.64-.2.81.46,2.02.95,3.65,1.47.19.06.47.12.86.2h-.05c.54.15,2.45.58,5.72,1.29.59.14,1.01.24,1.27.32,2.59.77,4.63,1.92,6.12,3.48,1.49,1.55,1.99,3.18,1.48,4.88l-.04.13c-.38,1.28-1.14,2.13-2.29,2.57s-2.65.58-4.52.44c1.2.63,2,1.81,2.39,3.54.35,1.64.68,2.8,1,3.47.32.68.68,1.08,1.09,1.2.02,0,.05,0,.09.01s.08,0,.09.01c.14.02.29-.02.44-.13.15-.11.27-.25.36-.41.13-.24.2-.58.22-1.02l.07-.23c.15-.2.37-.25.66-.17.11.05.19.14.21.26s.02.24-.03.35c-.22.36-.39.71-.5,1.04-.15.38-.42.76-.79,1.14-.38.38-.84.73-1.38,1.06s-1.18.55-1.93.65c-.74.1-1.5.04-2.26-.18-.34-.1-.79-.3-1.35-.59-.7-.39-1.26-1.01-1.68-1.84-.42-.84-.71-1.71-.86-2.63-.16-.92-.3-1.82-.43-2.71-.13-.89-.35-1.67-.66-2.33-.3-.66-.74-1.08-1.3-1.25-.14-.04-.24-.06-.31-.06-1.38,4.72-1.75,7.26-1.12,7.64.03.03.07.05.12.06.05.01.09.02.11,0l.18.05c.23.16.27.39.12.7-.12.22-.28.3-.49.24-.05-.02-.09-.04-.12-.06-.16-.1-.31-.19-.46-.28-.15-.08-.28-.15-.39-.2-.11-.05-.25-.11-.43-.18-.18-.07-.31-.13-.38-.17s-.23-.1-.46-.18c-.24-.08-.39-.13-.47-.15-.08-.02-.28-.09-.62-.2-.34-.11-.57-.18-.69-.22-2.86-.77-4.69-1.17-5.47-1.2-.04,0-.08,0-.14-.01-.22-.07-.32-.23-.3-.48.04-.34.22-.51.51-.51l.18.05s.08.05.15.07c.08.02.15.03.19.03,1.22.06,2.62-2.58,4.21-7.94.98-3.32,1.54-5.74,1.67-7.25.15-1.57-.27-2.5-1.26-2.79-.02,0-.06-.01-.13-.03-.07-.01-.12-.02-.16-.03l-.18-.05ZM197.7,423.47l-.03.1c.05.02.13.04.25.09s.21.08.28.1c1.72.51,3.16.5,4.33-.02,1.16-.53,2.01-1.52,2.54-3l.04-.15c.5-1.7.46-3.04-.13-4.02-.59-.98-1.74-1.72-3.46-2.23h-.06c-.15-.05-.3-.02-.45.11-.15.13-.32.38-.51.74-.19.36-.37.76-.55,1.21-.18.45-.39,1.07-.65,1.86s-.5,1.57-.73,2.32c-.23.75-.52,1.72-.87,2.89Z" fill="#d09d21"/><path d="M211.79,437.11c-.02-.31.12-.49.44-.55l.18.03s.04,0,.06.02c.03.01.05.02.06.02.33.05.68-.16,1.04-.65.36-.48.76-1.44,1.2-2.86.44-1.42.83-3.25,1.17-5.48.21-1.37.36-2.6.45-3.69.09-1.09.12-1.98.09-2.68-.03-.7-.09-1.28-.2-1.74s-.24-.8-.38-1c-.15-.2-.32-.32-.51-.35h-.05s-.07,0-.08,0c-.09-.01-.15-.03-.18-.05-.12-.04-.21-.12-.26-.25-.05-.13-.05-.27,0-.4.11-.23.27-.33.48-.3.05,0,.09.02.13.05.81.34,2.5.73,5.07,1.16l.39.06c.26.04.62.1,1.06.18.45.08.9.15,1.35.22,4.49.7,7.5,1.01,9.04.94.11,0,.2.05.27.16.07.11.11.24.1.38-.15,2.62-.16,4.83,0,6.63,0,.05.05.26.12.61.09.43-.02.7-.34.81-.04.03-.11.04-.19.02-.14-.02-.24-.11-.31-.26-.07-.15-.09-.31-.06-.47.01-.07.02-.17.03-.3.01-.13.02-.25.03-.36,0-.11,0-.21,0-.3-.02-1.58-.65-3.01-1.88-4.29-1.23-1.28-2.54-2.05-3.94-2.32l-1.63-.25c-.41.3-.74.94-1.01,1.94-.27,1-.58,2.57-.93,4.71-.17,1.32.38,2.08,1.64,2.27.44.07.87,0,1.3-.19.42-.19.76-.5,1-.91.11-.23.18-.42.22-.56.05-.32.07-.72.05-1.2l.04-.29c.11-.34.31-.49.61-.44.29.13.37.41.25.82-.16.59-.26.98-.29,1.19l-.85,5.5c-.06.4-.09.81-.08,1.23-.01.43-.17.66-.49.71-.3-.05-.45-.25-.44-.61l.04-.29c.16-.46.27-.85.31-1.16.04-.23.03-.5,0-.81-.09-.55-.31-1.03-.64-1.43-.33-.4-.72-.63-1.16-.68-.51-.08-.98.07-1.43.44-.44.37-.75,1.01-.9,1.92-.46,3.29-.44,5.24.06,5.86,1.03.16,1.62.24,1.77.25,1.71.19,3.37-.25,4.97-1.33s2.54-2.45,2.79-4.12c.02-.12.05-.22.1-.28.11-.25.27-.36.48-.33.05,0,.11.04.18.08.25.24.28.54.08.9-.03.05-.08.14-.15.26-.07.12-.12.21-.15.26-.69,1.67-1.36,3.79-2.01,6.34-.08.29-.25.42-.52.38-1.6-.57-4.11-1.12-7.53-1.65-.47-.07-1.17-.18-2.08-.31-.91-.13-1.59-.23-2.03-.3l-.29-.04c-.19-.03-.53-.08-1-.14s-.8-.11-.99-.13-.46-.05-.82-.09-.65-.06-.87-.07c-.21,0-.46,0-.74,0-.28,0-.54.01-.77.03-.04.01-.08.01-.14,0-.23-.04-.35-.19-.36-.46Z" fill="#d09d21"/><path d="M255.52,432.35c.06.34-.07.54-.39.6h-.05s-.16,0-.16,0c-.52.09-.86.92-1.02,2.5-.16,1.58-.12,2.95.11,4.13.06.37.02.68-.12.93-.14.24-.33.36-.58.36-.21,0-.42-.1-.6-.28-.57-.51-1.19-.78-1.84-.8-.46-.01-1.34.22-2.63.7-1.29.48-2.48.75-3.57.8-.2.01-.48.01-.85,0-1.65-.05-3.18-.47-4.58-1.26-1.41-.79-2.58-1.98-3.52-3.55-.94-1.57-1.45-3.39-1.53-5.45-.14-3.25.9-5.9,3.1-7.94s5.06-3.01,8.55-2.91c1.42.04,2.71.26,3.86.66,1.15.4,2.07.9,2.74,1.5.67.6,1.2,1.23,1.57,1.88.37.65.58,1.28.61,1.88.06,1.03-.25,1.92-.92,2.68-.67.75-1.6,1.19-2.79,1.32-.32.03-.57.04-.75.03-1.24-.04-2.26-.29-3.07-.75-.45-.28-.59-.53-.4-.76.55-.68.96-1.46,1.24-2.33.27-.88.39-1.69.36-2.44-.03-.75-.22-1.38-.56-1.91-.34-.52-.81-.79-1.42-.81h-.24c-1,.07-1.84.7-2.54,1.89-.7,1.19-1.15,2.59-1.35,4.21-.2,1.62-.24,3.3-.13,5.04.18,1.76.69,3.42,1.54,4.97.84,1.55,1.74,2.44,2.69,2.66.14.04.23.06.26.06.96.03,1.36-1.3,1.21-3.99-.04-.46-.11-.93-.21-1.39-.1-.46-.31-.92-.61-1.36-.31-.44-.67-.67-1.1-.68h-.13s-.05,0-.05,0c-.32-.1-.43-.31-.35-.62.08-.25.28-.36.6-.36,1.53.4,3.05.62,4.56.66,1.9.05,3.39-.03,4.48-.24.32,0,.52.14.6.39Z" fill="#d09d21"/><path d="M260.21,423.12c1.83-2.28,4.34-3.59,7.54-3.93,3.2-.34,5.92.42,8.18,2.27,2.26,1.85,3.54,4.28,3.86,7.28.32,3-.44,5.64-2.27,7.92s-4.33,3.59-7.51,3.92c-3.18.33-5.9-.42-8.16-2.27-2.27-1.85-3.56-4.27-3.87-7.28-.32-3,.43-5.64,2.24-7.92ZM271.54,439.67c1.18-.34,1.85-1.5,2.02-3.49.17-1.99-.08-4.38-.73-7.17-.59-2.56-1.49-4.74-2.68-6.53-1.2-1.79-2.39-2.63-3.57-2.5-.12.01-.22.03-.29.06-1.18.32-1.87,1.51-2.07,3.56-.2,2.06.01,4.47.64,7.24.59,2.53,1.5,4.67,2.73,6.43s2.44,2.58,3.62,2.46c.16-.02.27-.04.34-.06Z" fill="#d09d21"/><path d="M283.05,420.22c1.5-2.51,3.81-4.15,6.93-4.92,3.12-.77,5.92-.39,8.41,1.14,2.49,1.53,4.09,3.75,4.81,6.68.72,2.93.33,5.65-1.17,8.16-1.5,2.51-3.8,4.15-6.91,4.91-3.1.76-5.9.39-8.4-1.14-2.5-1.52-4.11-3.75-4.83-6.68-.72-2.93-.34-5.65,1.14-8.15ZM296.53,435.08c1.12-.5,1.63-1.74,1.52-3.73-.11-1.99-.67-4.33-1.7-7-.94-2.46-2.12-4.49-3.55-6.1-1.43-1.61-2.72-2.28-3.88-1.99-.12.03-.21.06-.28.1-1.12.48-1.65,1.75-1.57,3.81.08,2.06.62,4.43,1.62,7.09.93,2.42,2.12,4.42,3.58,6,1.46,1.58,2.77,2.23,3.92,1.94.16-.04.26-.07.33-.11Z" fill="#d09d21"/><path d="M324.99,414.57l.08.2c1.03,2.65.95,5.25-.24,7.81-1.19,2.56-3.05,4.34-5.58,5.32-.45.17-.79.29-1.04.35-1.2.34-2.27.67-3.21,1-.83.32-1.53.59-2.12.8-.18.07-.49.2-.94.38s-.75.31-.92.39c-.17.08-.42.19-.75.34-.33.15-.59.27-.78.38-.19.1-.4.22-.64.37s-.46.28-.65.41c-.03.03-.06.05-.11.07-.22.08-.4.01-.54-.22-.18-.25-.14-.49.1-.7l.17-.07s.04-.01.07-.01c.03,0,.05,0,.07-.01.31-.12.51-.48.58-1.08.07-.6-.06-1.62-.4-3.07-.34-1.45-.92-3.22-1.74-5.32-.5-1.29-.99-2.43-1.46-3.42-.47-.99-.89-1.78-1.27-2.36-.37-.59-.72-1.06-1.05-1.41-.33-.35-.61-.57-.83-.67s-.44-.12-.62-.04l-.05.02s-.05.05-.06.05c-.08.03-.14.05-.18.04-.12.03-.24,0-.35-.09s-.18-.21-.19-.35c-.02-.26.06-.42.26-.5.05-.02.09-.03.13-.02.87-.11,2.53-.63,4.97-1.54l.69-.27.02-.03c1.72-.67,3.19-1.33,4.43-1.99.22-.12.55-.27,1-.45,2.53-.99,5.1-.94,7.71.13,2.61,1.08,4.43,2.94,5.47,5.58ZM318.5,417.33l-.08-.2c-.49-1.26-.98-2.34-1.47-3.26-.49-.91-1.04-1.74-1.66-2.48-.61-.74-1.29-1.23-2.04-1.46-.75-.23-1.54-.19-2.36.14-.12.04-.32.14-.6.29-.54.37-.66,1.18-.34,2.43.32,1.26,1.12,3.51,2.39,6.77,1.25,3.21,2.21,5.4,2.86,6.59.65,1.18,1.29,1.73,1.9,1.65.31-.08.53-.15.66-.2.83-.32,1.43-.82,1.82-1.5.38-.67.55-1.49.5-2.45-.05-.96-.21-1.94-.46-2.94s-.63-2.12-1.12-3.38Z" fill="#d09d21"/><path d="M354.81,401.54c.2-.04.39.04.55.27.16.22.24.46.22.7,0,.09-.01.21-.01.35,0,.15,0,.24,0,.28.18,1.82-.15,3.54-1,5.16-.85,1.62-2.07,2.93-3.64,3.93-2.65,1.68-5.31,2.23-7.97,1.63-2.66-.59-4.86-2.09-6.62-4.49-1.91-2.65-2.57-5.38-1.97-8.18.6-2.8,2.28-5.13,5.04-7.01l.34-.21c1.14-.72,2.31-1.18,3.52-1.38,1.21-.2,2.29-.17,3.25.08.96.25,1.81.63,2.56,1.13.75.5,1.3,1.08,1.66,1.74.61,1.1.73,2.16.36,3.18-.38,1.02-1.1,1.87-2.18,2.55-.94.6-1.6.81-1.97.62-.11-.08-.16-.19-.16-.34.05-.64-.15-1.43-.61-2.36-.46-.93-1.04-1.77-1.75-2.53-.7-.76-1.49-1.32-2.36-1.69-.87-.36-1.64-.33-2.29.08-.09.06-.23.17-.42.33-.56.54-.73,1.46-.52,2.74.21,1.28.73,2.61,1.54,3.99.81,1.38,1.84,2.67,3.09,3.88,1.5,1.36,2.98,2.22,4.45,2.57,1.47.35,2.76.24,3.87-.34.03-.02.09-.05.19-.1.09-.05.17-.09.21-.12.63-.4,1.17-.94,1.64-1.62.46-.68.73-1.42.81-2.23,0-.06,0-.18.02-.36l-.08-.42c-.02-.09-.07-.22-.15-.39-.08-.17-.13-.28-.15-.33-.07-.17-.08-.35-.04-.54s.14-.34.3-.44c.04-.03.14-.07.28-.11Z" fill="#d09d21"/><path d="M352.27,389.11c.25-2.91,1.61-5.4,4.07-7.46,2.47-2.06,5.15-2.95,8.06-2.67,2.91.28,5.32,1.58,7.26,3.89,1.93,2.32,2.78,4.93,2.53,7.84-.25,2.91-1.6,5.39-4.05,7.44-2.45,2.05-5.13,2.93-8.04,2.66-2.91-.27-5.33-1.57-7.27-3.89-1.93-2.32-2.78-4.93-2.55-7.83ZM370.9,396.55c.79-.94.7-2.28-.27-4.02-.97-1.74-2.5-3.59-4.6-5.54-1.92-1.8-3.87-3.11-5.87-3.93-1.99-.82-3.45-.85-4.36-.09-.1.08-.16.15-.21.21-.8.92-.71,2.3.26,4.12s2.5,3.71,4.57,5.66c1.9,1.77,3.84,3.05,5.85,3.82,2,.78,3.46.79,4.37.02.12-.1.21-.18.25-.24Z" fill="#d09d21"/><path d="M377.8,381.46c.61-.62,1.3-.98,2.06-1.08.76-.11,1.36.06,1.82.52.45.45.63,1.06.52,1.82-.11.76-.47,1.45-1.08,2.06-.6.6-1.28.96-2.04,1.07s-1.37-.06-1.82-.52-.62-1.06-.52-1.82c.11-.76.46-1.44,1.06-2.04Z" fill="#d09d21"/></svg>