<?xml version="1.0" encoding="UTF-8"?><svg id="b" xmlns="http://www.w3.org/2000/svg" width="200" height="200" viewBox="0 0 200 200"><g id="c"><circle cx="100" cy="100.23" r="87.98"/><circle cx="100" cy="100.23" r="85.56" fill="#2954cc" stroke="#000" stroke-miterlimit="10"/><circle cx="100" cy="100.23" r="83.36" fill="#ffbf00"/><circle cx="100" cy="100.23" r="82.1" fill="#a9461d"/><circle cx="100" cy="100.23" r="66.52" fill="#ffbf00"/><circle cx="100" cy="100.23" r="65.19" fill="#2954cc"/><circle cx="100" cy="100.23" r="62.82" fill="#67f0e9"/><path d="M146.31,57.72c11.03,11.85,16.54,26.09,16.54,42.52,0,14.15-4.09,26.61-12.28,37.37-.43.57-.88,1.14-1.34,1.7-1.46,1.79-3.04,3.53-4.73,5.22-.2.2-.62.62-.82.81-12.1,11.83-26.66,17.74-43.68,17.74-15.17,0-28.38-4.91-39.65-14.31-1.59-1.32-3.35-2.74-4.85-4.25-1.9-1.91-3.66-3.87-5.27-5.9-.45-.57-.9-1.15-1.33-1.74-1.36-1.84-2.49-3.73-3.61-5.66-.12-.21-.14-.42-.26-.63-2.3-4.08-4.19-8.38-5.45-12.9-1.54-5.5-2.42-11.32-2.42-17.46,0-17.3,6.32-32.38,18.55-44.61,12.23-12.24,27-18.04,44.3-18.04s32.27,6.01,44.5,18.25c.62.62,1.22,1.24,1.81,1.87ZM139.36,57.69c-10.87-10.87-23.99-16.3-39.36-16.3s-28.49,5.43-39.36,16.3c-10.87,10.87-16.3,23.99-16.3,39.36s5.43,28.49,16.3,39.36c.36.36.73.72,1.09,1.07.89.85,1.79,1.66,2.71,2.43,10.09,8.54,21.94,12.8,35.56,12.8s25.48-4.27,35.56-12.8c1.29-1.1,2.56-2.26,3.8-3.5.59-.58,1.15-1.18,1.71-1.77,9.73-10.51,14.6-23.04,14.6-37.59,0-15.37-5.44-28.5-16.31-39.36Z" fill="#0bb4b1" fill-rule="evenodd"/></g><g id="d"><path d="M145.91,64.21s.04.1.05.15c-.4-.85-.76-1.49-1.09-1.93-.07-.09-.14-.17-.21-.24-5.78-6.3-13.79-7.55-24.03-3.75-5.29,1.97-9.49,1.09-12.6-2.64-.09-.11-.18-.22-.26-.33,7.2-3.32,14.67-4.48,22.4-3.49,6.28.8,11.11,3.96,14.48,9.49.22.36.46.83.71,1.39.15.36.31.75.48,1.19.02.05.04.1.06.15ZM84.46,97.61c2.19-.25,4.46-.55,6.81-.89,2.73.36,4.94.99,6.63,1.87.82.46,1.43.86,1.84,1.21v.04s.01-.01.02-.02c0,0,0,0,0,0,0,0,.02-.02.03-.02.41-.35,1.03-.75,1.84-1.21,1.69-.88,3.9-1.51,6.63-1.87,2.35.35,4.62.65,6.81.89,5.59.63,10.64.94,15.15.92.02,0,.03,0,.05,0,1.93-.01,3.76-.09,5.49-.22-.77-.46-2.54-1.94-5.34-4.44,4.51,2.55,8.77,4.44,12.8,5.69h-3.04c-.55-.05-1.29-.04-2.23.03-.94.06-1.8.27-2.56.61-.86.39-1.88.95-3.06,1.68-2.23,1.76-4.82,3.85-7.79,6.25-.26.21-.51.42-.77.63-3.31,2.63-6.29,4.75-8.97,6.34-2.68,1.6-5.52,2.86-8.53,3.78-2.1.65-4.22,1.01-6.36,1.11-.05,0-.09,0-.14,0-.05,0-.09,0-.14,0h0c-2.14-.1-4.26-.47-6.36-1.12-3.01-.93-5.85-2.19-8.53-3.78-2.67-1.6-5.66-3.71-8.97-6.34-.26-.21-.52-.42-.77-.63-2.96-2.41-5.56-4.49-7.79-6.25-1.18-.74-2.2-1.3-3.06-1.68-.76-.34-1.62-.55-2.56-.61-.94-.07-1.68-.08-2.23-.03h-3.04c4.02-1.25,8.29-3.14,12.8-5.69-2.79,2.49-4.57,3.97-5.34,4.44,1.73.13,3.56.2,5.49.22.01,0,.03,0,.05,0,4.51.02,9.55-.28,15.15-.92ZM60.78,67.27c-.24.15-.47.3-.71.46.2-.18.41-.36.62-.53,3.36-2.79,7.16-4.31,11.4-4.56,7.42.25,12.04,2.61,13.86,7.07-.27-.26-.55-.5-.82-.74-7.44-6.52-15.56-7.08-24.35-1.69ZM91.76,55.47c-.09.11-.18.22-.26.33-3.11,3.73-7.31,4.61-12.6,2.64-10.23-3.81-18.24-2.56-24.03,3.75-.07.07-.14.15-.21.24-.33.43-.69,1.07-1.09,1.93.02-.05.04-.1.05-.15.02-.05.04-.1.06-.15.16-.44.32-.83.48-1.19.25-.56.48-1.03.71-1.39,3.38-5.53,8.2-8.7,14.48-9.49,7.73-.99,15.2.17,22.4,3.49ZM88.01,76.11c-1.01.48-2.15.89-3.43,1.23-2.86.75-6.4,1.13-10.63,1.14h-.18s.02,0,.04,0h.02c3.59-.52,6.46-1.29,8.61-2.32.17-.08.34-.16.49-.25-.66-.56-1.38-1.03-2.16-1.4-.77-.37-1.24-.53-1.39-.46-.2.31-.44.6-.7.88-.07.08-.14.15-.22.23-1.37,1.37-3.02,2.05-4.96,2.05s-3.47-.54-4.61-1.63c-.47-.46-.86-.87-1.17-1.25-.42-.53-.69-.97-.79-1.34-.68.12-1.31.26-1.87.43-1.42.42-2.18.68-2.29.76.32.33.68.66,1.09.97,1.49,1.14,3.59,2.15,6.29,3.04-3.11-.18-5.98-.94-8.59-2.26-.4-.2-.8-.42-1.2-.66-1.23.08-2.36.06-3.39-.05-1.4-.15-2.62-.49-3.65-.99,2.15-.72,3.84-1.33,5.07-1.83.99-.41,1.89-.73,2.69-.95,5.6-1.95,11.53-1.95,17.78,0,.03,0,.05.02.08.03,4,1.37,7.12,2.86,9.36,4.47-.1.05-.2.1-.3.15ZM138.76,67.27c-8.79-5.39-16.9-4.83-24.35,1.69-.27.24-.55.49-.82.74,1.82-4.46,6.45-6.82,13.86-7.07,4.24.25,8.04,1.77,11.4,4.56.21.17.41.35.62.53-.24-.16-.48-.31-.71-.46ZM142.56,75.23c-1.03.11-2.16.13-3.39.05-.4.24-.8.45-1.2.66-2.61,1.32-5.48,2.08-8.59,2.26,2.71-.89,4.81-1.9,6.29-3.04.41-.32.77-.64,1.09-.97-.11-.08-.87-.34-2.29-.76-.57-.17-1.19-.32-1.87-.43-.11.37-.37.82-.79,1.34-.31.38-.7.79-1.17,1.25-1.13,1.09-2.67,1.63-4.61,1.63s-3.59-.68-4.96-2.05c-.07-.07-.15-.15-.22-.23-.26-.28-.5-.57-.7-.88-.16-.06-.62.09-1.39.46-.78.37-1.49.84-2.16,1.4.16.08.32.17.49.25,2.15,1.02,5.02,1.8,8.61,2.32h.02s.02,0,.04,0h-.18c-4.22-.01-7.77-.39-10.63-1.14-1.28-.34-2.42-.75-3.43-1.23-.1-.05-.2-.1-.3-.15,2.24-1.61,5.36-3.11,9.36-4.47.02-.01.05-.02.08-.03,6.25-1.95,12.18-1.95,17.78,0,.8.22,1.7.53,2.69.95,1.23.51,2.92,1.12,5.07,1.83-1.03.51-2.25.84-3.65.99ZM68.47,99.72c.36.6,2.84,1.52,7.45,2.77,4.61,1.25,7.98,1.85,10.1,1.79,2.13-.06,3.65-.19,4.57-.42h0c1.42.18,3.22.67,5.39,1.47,1.76.65,3.02.99,3.78,1.03,0,0,0,0,.01,0,.77-.04,2.03-.38,3.78-1.03,2.17-.8,3.96-1.29,5.39-1.47h0c.92.22,2.44.36,4.57.42,2.12.05,5.49-.55,10.1-1.79,4.61-1.25,7.09-2.17,7.45-2.77h-3.32c-3.66-.04-8.05-.42-13.19-1.12-1.92-.26-3.95-.57-6.08-.93-2.67.16-5.41,1.15-8.22,2.96-.13.08-.29.12-.48.12,0,0,0,0-.01,0-.18,0-.34-.04-.48-.12-2.81-1.81-5.55-2.8-8.22-2.96-2.13.36-4.16.67-6.08.93-5.14.71-9.53,1.08-13.19,1.12h-3.32ZM72.77,104.23c.67.8,1.35,1.54,2.05,2.22.71.68,2.25,1.98,4.64,3.89,2.39,1.91,5.31,3.64,8.75,5.18,3.44,1.55,6.44,2.45,9,2.69,1.05.1,1.83.14,2.33.13v-.04s.06,0,.09.02c.04,0,.09,0,.14.01.07,0,.15,0,.23.01.5.01,1.27-.03,2.33-.13,2.56-.25,5.56-1.14,9-2.69,3.44-1.55,6.35-3.28,8.75-5.18,2.39-1.91,3.94-3.21,4.64-3.89.7-.68,1.39-1.42,2.05-2.22.67-.8,1.19-1.47,1.58-2.02-.97.22-1.64.36-2.02.42-.74.12-2.3.42-4.67.91-3.98.8-7.93,1.15-11.87,1.05-2.32.15-4.4.65-6.25,1.51-1.57.74-2.82,1.12-3.75,1.17h-.02s0,0-.01,0h-.02c-.92-.04-2.17-.43-3.75-1.17-1.85-.86-3.93-1.36-6.25-1.51-3.94.11-7.89-.24-11.87-1.05-2.37-.49-3.93-.79-4.67-.91-.37-.06-1.04-.2-2.02-.42.39.55.91,1.22,1.58,2.02ZM113.2,90.79c1.27.16,1.76.37,1.45.61-1.89.15-3.16.28-3.8.39-.83.14-1.4.25-1.71.33-1.29.31-2.32.7-3.07,1.17-.82.55-1.57.99-2.25,1.3-.68.31-1.26.54-1.74.71-.41.13-.88.24-1.38.32-.41.06-.69.1-.82.11-.03,0-.05,0-.07,0h-.05c-.05,0-.09,0-.12-.01h0c-.13,0-.4-.04-.82-.11-.51-.08-.97-.18-1.38-.32-.48-.16-1.06-.4-1.74-.71-.67-.31-1.42-.75-2.25-1.3-.75-.47-1.78-.86-3.07-1.17-.31-.07-.88-.18-1.71-.33-.64-.11-1.91-.24-3.8-.39-.31-.24.18-.45,1.45-.61.79-.11,1.4-.18,1.84-.19,1.11-.04,2.16.18,3.15.65,1,.48,2.18,1.13,3.53,1.95,1.12.68,1.95,1.1,2.5,1.28.55.17,1.1.27,1.65.31.3.02.53.03.67.03.03,0,.06,0,.08,0,.06,0,.1,0,.11,0,.14,0,.37-.02.67-.03.54-.03,1.09-.13,1.65-.31.55-.18,1.38-.6,2.5-1.28,1.35-.82,2.53-1.47,3.53-1.95,1-.48,2.05-.69,3.15-.65.44.02,1.06.08,1.84.19Z" fill-rule="evenodd"/><path d="M114.42,68.96c-.22.3-.46.65-.74,1.06-.26.37-.75,1.01-1.49,1.92-1.03,1.27-2.24,2.06-3.63,2.37-1.12-6.11-2.19-11.78-3.21-17-.01-.06-.02-.12-.04-.18.01-.49.83-1.04,2.46-1.66.09.11.18.22.26.33,3.11,3.73,7.31,4.61,12.6,2.64,10.23-3.81,18.24-2.56,24.03,3.75.07.07.14.15.21.24.33.43.69,1.07,1.09,1.93-.02-.05-.04-.1-.05-.15.17.34.33.85.48,1.53.34,1.49.36,2.67.06,3.54-.29.87-1.01,1.25-2.14,1.12-1.13-.13-2.33-.63-3.6-1.5l-1.96-1.63c.24.15.47.3.71.46-.2-.18-.41-.36-.62-.53-3.36-2.79-7.16-4.31-11.4-4.56-7.42.25-12.04,2.61-13.86,7.07.27-.26.55-.5.82-.74ZM69.27,98.53c-1.93-.01-3.76-.09-5.49-.22.76-.46,2.54-1.94,5.34-4.44-4.51,2.55-8.78,4.44-12.8,5.69h3.04c.55-.05,1.29-.04,2.23.03.94.06,1.8.27,2.56.61.86.39,1.88.95,3.06,1.68,2.23,1.76,4.82,3.85,7.79,6.25.26.21.51.42.77.63,3.31,2.63,6.29,4.75,8.97,6.34,2.68,1.6,5.52,2.86,8.53,3.78,2.1.65,4.22,1.01,6.36,1.11h0s.09,0,.14,0c.05,0,.09,0,.14,0,2.14-.09,4.26-.46,6.36-1.11,3.01-.93,5.85-2.19,8.53-3.78,2.67-1.6,5.66-3.71,8.97-6.34.26-.21.52-.42.77-.63,2.96-2.41,5.56-4.49,7.79-6.25,1.18-.74,2.2-1.3,3.06-1.68.77-.34,1.62-.55,2.56-.61.94-.07,1.68-.08,2.23-.03h3.04c-4.02-1.25-8.29-3.14-12.8-5.69,2.79,2.49,4.57,3.97,5.34,4.44-1.73.13-3.56.2-5.49.22.75-.55,1.12-.97,1.12-1.25,0-.13-.32-.72-.95-1.79-.64-1.07-.96-1.71-.96-1.92,0-.12.02-.21.06-.28.04-.06.09-.09.16-.09.02,0,.33.13.93.4.5.22,1.81.75,3.92,1.56,2.2.86,3.97,1.47,5.3,1.84,1.28.36,2.98.78,5.09,1.28,1.08.25,1.88.53,2.4.83.73.41-1.27,1.68-5.99,3.8-3.76,1.68-6.97,3.13-9.65,4.35-.68.31-1.33.6-1.95.88-2.61,1.19-4.51,2.59-5.68,4.21-.18.25-.35.5-.49.76-.06.11-.12.21-.17.31-.14.25-.27.49-.38.72-.08.16-.16.32-.23.48-.03.06-.05.11-.08.17-.13.29-.23.55-.31.78-.09.06-.17.12-.26.18-.16.11-.33.23-.48.35-.02.01-.04.03-.06.05-.8.6-1.54,1.16-2.22,1.68-.89.67-1.69,1.27-2.39,1.79-.19.14-.38.28-.57.42-1.09.79-2.29,1.56-3.58,2.31-1.06.61-2.14,1.21-3.25,1.79-.49.25-.98.5-1.46.75-1.63.81-3.05,1.59-4.25,2.34-1.23.75-2.4,2.18-3.51,4.28-.18.33-.33.7-.47,1.12v1c-.04-.19-.09-.37-.14-.54-.05.17-.1.36-.14.54v-1c-.14-.42-.3-.79-.47-1.12-1.11-2.1-2.28-3.53-3.51-4.28-1.2-.74-2.61-1.52-4.25-2.34-.49-.25-.98-.5-1.46-.75-1.11-.58-2.19-1.18-3.25-1.79-1.29-.75-2.48-1.52-3.58-2.31-.19-.14-.38-.28-.57-.42-.7-.53-1.5-1.12-2.39-1.79-.68-.52-1.42-1.08-2.22-1.68-.02-.02-.04-.03-.06-.05-.16-.12-.32-.24-.48-.35-.08-.06-.17-.12-.26-.18-.08-.23-.18-.49-.31-.78-.02-.06-.05-.12-.08-.17-.07-.15-.15-.31-.23-.48-.12-.23-.24-.47-.38-.72-.06-.1-.11-.21-.17-.31-.15-.26-.31-.51-.49-.76-1.18-1.61-3.07-3.02-5.68-4.21-.61-.28-1.26-.58-1.95-.88-2.67-1.21-5.89-2.66-9.65-4.35-4.72-2.12-6.72-3.39-5.99-3.8.52-.3,1.32-.58,2.4-.83,2.12-.49,3.82-.92,5.09-1.28,1.33-.37,3.1-.99,5.3-1.84,2.11-.82,3.42-1.34,3.92-1.56.6-.27.91-.4.93-.4.07,0,.12.03.16.09.04.07.06.16.06.28,0,.21-.32.85-.96,1.92-.64,1.07-.95,1.67-.95,1.79,0,.28.37.7,1.12,1.25ZM117.29,93.31c-.41.77-1.05,2.02-1.93,3.75-.1.19-.19.37-.28.55-2.19-.25-4.46-.55-6.81-.89-2.73.36-4.94.99-6.63,1.87-.82.46-1.43.86-1.84,1.21,0,0-.02.02-.03.02,0,0,0,0,0,0,0,0-.01,0-.02.02v-.04c-.41-.35-1.03-.75-1.84-1.21-1.69-.88-3.9-1.51-6.63-1.87-2.35.35-4.62.65-6.81.89-.09-.18-.18-.36-.28-.55-.88-1.73-1.52-2.98-1.93-3.75,2.07.47,4.79.48,8.17.04-7.01-.3-10.29-1.63-9.82-3.99.39-.21.94-.41,1.64-.6,1.27-.34,2.32-.51,3.13-.51,1.44,0,3.09.36,4.93,1.08,1.85.72,3.49,1.22,4.94,1.49,1.45.27,2.56.42,3.35.45.52.01.88.02,1.09.01h0s.04,0,.09,0c.05,0,.09,0,.1-.01h0c.21.02.57.01,1.09,0,.79-.02,1.9-.17,3.35-.45,1.45-.27,3.1-.77,4.94-1.49,1.85-.72,3.49-1.08,4.93-1.08.81,0,1.85.17,3.13.51.7.19,1.25.39,1.64.6.47,2.36-2.8,3.69-9.82,3.99,3.38.44,6.1.42,8.17-.04ZM53.63,64.21s-.04.1-.05.15c.4-.85.76-1.49,1.09-1.93.07-.09.14-.17.21-.24,5.78-6.3,13.79-7.55,24.03-3.75,5.29,1.97,9.49,1.09,12.6-2.64.09-.11.18-.22.26-.33,1.63.61,2.45,1.17,2.46,1.66-.01.06-.03.12-.04.18-1.02,5.22-2.09,10.89-3.21,17-1.39-.31-2.6-1.1-3.63-2.37-.74-.91-1.23-1.55-1.49-1.92-.27-.4-.52-.76-.74-1.06.27.24.55.49.82.74-1.82-4.46-6.45-6.82-13.86-7.07-4.24.25-8.04,1.77-11.4,4.56-.21.17-.41.35-.62.53.24-.16.48-.31.71-.46l-1.96,1.63c-1.27.87-2.47,1.37-3.6,1.5-1.13.13-1.84-.25-2.14-1.12-.29-.87-.27-2.05.06-3.54.15-.68.32-1.19.48-1.53ZM70.16,78.2c1.16.2,2.38.3,3.65.28-.01,0-.02,0-.04,0h.18c4.22-.01,7.77-.39,10.63-1.14,1.28-.34,2.42-.75,3.43-1.23-.33.38-.94,1.09-1.81,2.13-1.08,1.22-2.13,2.28-3.14,3.15-3.08,2.66-6.13,3.99-9.14,3.99-4.02,0-7.63-1.27-10.85-3.81-1.17-.93-2.4-2.11-3.69-3.56-.21-.24-.45-.51-.71-.81-.48-.55-1.04-1.22-1.69-1.98,1.03.11,2.16.13,3.39.05.4.24.8.45,1.2.66,2.61,1.32,5.48,2.08,8.59,2.26ZM129.38,78.2c3.11-.18,5.98-.94,8.59-2.26.4-.2.8-.42,1.2-.66,1.23.08,2.36.06,3.39-.05-.65.77-1.21,1.43-1.69,1.98-.26.3-.5.57-.71.81-1.29,1.45-2.52,2.63-3.69,3.56-3.21,2.54-6.83,3.81-10.85,3.81-3.01,0-6.06-1.33-9.14-3.99-1.01-.88-2.06-1.93-3.14-3.15-.87-1.04-1.48-1.75-1.81-2.13,1.01.48,2.15.89,3.43,1.23,2.86.75,6.4,1.13,10.63,1.14h.18s-.02,0-.04,0c1.27.02,2.48-.08,3.65-.28ZM113.2,90.79c-.79-.11-1.4-.18-1.84-.19-1.11-.04-2.16.18-3.15.65-1,.48-2.18,1.13-3.53,1.95-1.12.68-1.95,1.1-2.5,1.28-.55.17-1.1.27-1.65.31-.3.02-.53.03-.67.03,0,0-.05,0-.11,0-.02,0-.05,0-.08,0-.14,0-.37-.02-.67-.03-.54-.03-1.09-.13-1.65-.31-.55-.18-1.38-.6-2.5-1.28-1.35-.82-2.53-1.47-3.53-1.95-1-.48-2.05-.69-3.15-.65-.44.02-1.06.08-1.84.19-1.27.16-1.76.37-1.45.61,1.89.15,3.16.28,3.8.39.83.14,1.4.25,1.71.33,1.29.31,2.32.7,3.07,1.17.82.55,1.57.99,2.25,1.3.68.31,1.26.54,1.74.71.41.13.88.24,1.38.32.41.06.68.1.82.11h0s.07,0,.12,0h.05s.04,0,.07,0c.13-.01.4-.05.82-.11.51-.08.97-.18,1.38-.32.48-.16,1.06-.4,1.74-.71.67-.31,1.42-.75,2.25-1.3.75-.47,1.78-.86,3.07-1.17.31-.07.88-.18,1.71-.33.64-.11,1.91-.24,3.8-.39.31-.24-.18-.45-1.45-.61Z" fill="#0bb4b1" fill-rule="evenodd"/><path d="M67.73,74.33c-1.28.17-2.57.45-3.87.83-.41-.32-.77-.64-1.09-.97.11-.08.87-.34,2.29-.76.57-.17,1.19-.32,1.87-.43.11.37.37.82.79,1.34ZM82.44,76.16c-.37-.16-.76-.32-1.17-.47-.82-.29-1.68-.55-2.58-.76.26-.28.5-.57.7-.88.16-.06.62.09,1.39.46.78.37,1.49.84,2.16,1.4-.16.08-.32.17-.49.25ZM120.86,74.93c-.9.21-1.76.47-2.58.76-.41.15-.81.3-1.17.47-.17-.08-.34-.16-.49-.25.66-.56,1.38-1.03,2.16-1.4.77-.37,1.24-.53,1.39-.46.2.31.44.6.7.88ZM131.81,74.33c.42-.53.69-.97.79-1.34.68.12,1.31.26,1.87.43,1.42.42,2.18.68,2.29.76-.32.33-.68.66-1.09.97-1.29-.38-2.58-.65-3.87-.83Z" fill="#935e0d" fill-rule="evenodd"/><path d="M63.87,75.15c1.29-.38,2.58-.65,3.87-.83.31.38.7.79,1.17,1.25,1.13,1.09,2.67,1.63,4.61,1.63s3.59-.68,4.96-2.05c.07-.07.15-.15.22-.23.9.21,1.76.47,2.58.76.41.15.81.3,1.17.47-2.15,1.02-5.02,1.8-8.61,2.32h-.02c-1.27.02-2.48-.08-3.65-.28-2.71-.89-4.81-1.9-6.29-3.04ZM120.86,74.93c.07.08.14.15.22.23,1.37,1.37,3.02,2.05,4.96,2.05s3.47-.54,4.61-1.63c.47-.46.86-.87,1.17-1.25,1.28.17,2.57.45,3.87.83-1.49,1.14-3.59,2.15-6.29,3.04-1.16.2-2.38.3-3.65.28h-.02c-3.59-.52-6.46-1.29-8.61-2.32.37-.16.76-.32,1.17-.47.82-.29,1.68-.55,2.58-.76Z" fill="#e1a52c" fill-rule="evenodd"/><path d="M68.47,99.72h3.32c3.66-.04,8.05-.42,13.19-1.12,1.92-.26,3.95-.57,6.08-.93,2.67.16,5.41,1.15,8.22,2.96.13.08.29.12.48.12,0,0,0,0,.01,0,.18,0,.34-.04.48-.12,2.81-1.81,5.55-2.8,8.22-2.96,2.13.36,4.16.67,6.08.93,5.14.71,9.53,1.08,13.19,1.12h3.32c-.36.6-2.84,1.52-7.45,2.77-4.61,1.25-7.98,1.85-10.1,1.79-2.13-.06-3.65-.19-4.57-.42h0c-1.42.18-3.22.67-5.39,1.47-1.76.65-3.02.99-3.78,1.03,0,0,0,0-.01,0-.77-.04-2.03-.38-3.78-1.03-2.17-.8-3.96-1.29-5.39-1.47h0c-.92.22-2.44.36-4.57.42-2.12.05-5.49-.55-10.1-1.79-4.61-1.25-7.09-2.17-7.45-2.77ZM72.77,104.23c-.67-.8-1.19-1.47-1.58-2.02.97.22,1.64.36,2.02.42.74.12,2.3.42,4.67.91,3.98.8,7.93,1.15,11.87,1.05,2.32.15,4.4.65,6.25,1.51,1.57.74,2.82,1.12,3.75,1.17h0s.01,0,.02,0c0,0,0,0,.01,0h.02c.92-.04,2.17-.43,3.75-1.17,1.85-.86,3.93-1.36,6.25-1.51,3.94.11,7.89-.24,11.87-1.05,2.37-.49,3.93-.79,4.67-.91.37-.06,1.04-.2,2.02-.42-.39.55-.91,1.22-1.58,2.02-.67.8-1.35,1.54-2.05,2.22-.71.68-2.25,1.98-4.64,3.89-2.39,1.91-5.31,3.64-8.75,5.18-3.44,1.55-6.44,2.45-9,2.69-1.05.1-1.83.14-2.33.13-.09,0-.16,0-.23-.01-.05,0-.1,0-.14-.01-.03,0-.06-.01-.08-.02v.04c-.5.01-1.28-.03-2.33-.13-2.56-.25-5.56-1.14-9-2.69-3.44-1.55-6.35-3.28-8.75-5.18-2.39-1.91-3.94-3.21-4.64-3.89-.7-.68-1.39-1.42-2.05-2.22ZM114.66,105.94c-1.26.09-2.93.3-5.03.61-2.08.31-4.06.74-5.93,1.28-1.83.54-3.13.74-3.9.62,0,0-.02,0-.03,0,0,0-.02,0-.03,0h0c-.77.13-2.07-.08-3.9-.61-1.87-.55-3.85-.98-5.93-1.28-2.1-.31-3.78-.51-5.03-.61-1.25-.1-2.24-.14-2.97-.14-.72,0-1.18.11-1.38.32-.2.21-.17.57.09,1.08.26.51,1.04,1.32,2.35,2.41,1.31,1.09,3.56,2.36,6.76,3.78,3.1,1.38,6.38,2.04,9.85,1.98h0s.03-.01.05,0c.05,0,.09,0,.14,0,.06,0,.13,0,.19,0,3.46.06,6.75-.59,9.85-1.98,3.2-1.43,5.45-2.69,6.76-3.78s2.09-1.9,2.35-2.41c.26-.51.29-.87.09-1.08-.2-.21-.66-.31-1.38-.32-.73,0-1.72.04-2.97.14Z" fill="#254ba0" fill-rule="evenodd"/><path d="M114.66,105.94c1.25-.1,2.24-.14,2.97-.14.72,0,1.18.11,1.38.32.2.21.17.57-.09,1.08-.26.51-1.04,1.32-2.35,2.41s-3.56,2.36-6.76,3.78c-3.1,1.38-6.38,2.04-9.85,1.98-.06,0-.13,0-.19,0-.05,0-.09,0-.14,0-.02,0-.03,0-.05,0h0c-3.46.08-6.75-.58-9.85-1.96-3.2-1.43-5.45-2.69-6.76-3.78-1.31-1.09-2.09-1.9-2.35-2.41-.26-.51-.29-.87-.09-1.08.2-.21.66-.31,1.38-.32.73,0,1.72.04,2.97.14,1.26.09,2.93.3,5.03.61,2.08.31,4.06.74,5.93,1.28,1.83.54,3.13.74,3.9.62h0s.02,0,.03,0c0,0,.02,0,.03,0,.77.12,2.07-.09,3.9-.62,1.87-.55,3.85-.98,5.93-1.28,2.1-.31,3.78-.51,5.03-.61Z" fill="#2954cc" fill-rule="evenodd"/><path d="M90.31,83.08c-5.29,1.93-8.5,3.83-9.62,5.7-.04.11-.06.23-.09.34-.47,2.49,2.8,3.89,9.82,4.21-3.38.46-6.1.45-8.17-.04-1.66-.4-2.9-1.1-3.71-2.12-1.81-2.28,1.82-5.2,10.88-8.77.53-3.15,1.05-6.19,1.56-9.14,1.12-6.45,2.19-12.43,3.21-17.93.01-.07.02-.13.04-.19,1.49-8.11,2.88-15.19,4.15-21.26.25-1.19.49-2.1.71-2.73.21-.78.43-1.15.67-1.1,0,0,0,0,.01,0,0,0,0,0,.01,0,.24-.04.47.32.67,1.1.22.64.46,1.55.71,2.73,1.27,6.07,2.66,13.15,4.15,21.26.01.06.03.13.04.19,1.02,5.51,2.09,11.49,3.21,17.93.51,2.95,1.03,6,1.56,9.14,9.06,3.57,12.69,6.49,10.88,8.77-.81,1.02-2.05,1.72-3.71,2.12-2.07.49-4.79.51-8.17.04,7.01-.31,10.29-1.72,9.82-4.21-.02-.11-.05-.23-.09-.34-1.12-1.87-4.32-3.77-9.62-5.7l-9.06-49.22c-.09-.53-.22-.95-.39-1.27,0,0,0-.01-.01-.02,0,0,0-.01-.01-.02v.04c-.17.32-.3.74-.39,1.27l-9.06,49.22Z" fill-rule="evenodd"/></g><g id="e"><path d="M113.45,47.78c-3.77,3.78-8.33,5.67-13.68,5.67-5.34,0-9.9-1.89-13.68-5.67-3.78-3.78-5.67-8.33-5.67-13.68,0-5.34,1.89-9.9,5.67-13.68,3.78-3.78,8.33-5.67,13.68-5.67,5.34,0,9.9,1.89,13.68,5.67,3.78,3.78,5.67,8.33,5.67,13.68,0,5.34-1.89,9.9-5.67,13.68Z" fill="#2954cc" fill-rule="evenodd"/><path d="M111.86,46.19c-3.34,3.34-7.36,5-12.09,5s-8.75-1.67-12.09-5c-3.34-3.34-5-7.36-5-12.09s1.67-8.75,5-12.09c3.34-3.34,7.36-5,12.09-5s8.75,1.67,12.09,5c3.34,3.34,5,7.36,5,12.09,0,4.72-1.67,8.75-5,12.09ZM110.42,44.76c2.94-2.94,4.41-6.49,4.41-10.65,0-4.16-1.47-7.71-4.41-10.65-2.94-2.94-6.49-4.41-10.65-4.41-4.16,0-7.71,1.47-10.65,4.41-2.94,2.94-4.41,6.49-4.41,10.65,0,4.16,1.47,7.71,4.41,10.65,2.94,2.94,6.49,4.41,10.65,4.41,4.16,0,7.71-1.47,10.65-4.41Z" fill="#ffbf00" fill-rule="evenodd"/><path d="M110.42,44.76c-2.94,2.94-6.49,4.41-10.65,4.41-4.16,0-7.71-1.47-10.65-4.41-2.94-2.94-4.41-6.49-4.41-10.65,0-4.16,1.47-7.71,4.41-10.65,2.94-2.94,6.49-4.41,10.65-4.41,4.16,0,7.71,1.47,10.65,4.41,2.94,2.94,4.41,6.49,4.41,10.65,0,4.16-1.47,7.71-4.41,10.65Z" fill="#a34421" fill-rule="evenodd"/><path d="M103.02,27.88h-.03v.7h.03v-.7ZM107.2,21.53c.07.07.1.15.1.24v24.45c0,.09-.03.17-.1.24-.07.07-.15.1-.24.1h-15.08c-.09,0-.17-.03-.24-.1-.07-.07-.1-.15-.1-.24v-24.45c0-.09.03-.17.1-.24.07-.07.15-.1.24-.1h15.08c.09,0,.17.03.24.1ZM100.92,30.8v-8.7h-8.7v8.7h8.7ZM101.59,29.26v1.55h1.43v-1.55h-1.43ZM102.32,28.58v-.7h-.73v.7h.73ZM103.7,30.8h2.92v-2.92h-2.92v2.92ZM106.62,31.48h-14.4v14.4h14.4v-14.4ZM106.62,22.11h-5.03v5.1h5.03v-5.1Z" fill="#e1a52c" fill-rule="evenodd"/><path d="M96.72,23.1c-.67.39-1.27.86-1.82,1.4,0,0,0,0-.01.01,0,.01-.02.02-.02.02-.53.54-.99,1.13-1.38,1.78,0,0,0,.02,0,.02h0c-.4.68-.7,1.4-.91,2.17-.22.77-.33,1.57-.33,2.4,0,1.17.14,2.3.4,3.4.26,1.09.62,2.13,1.11,3.11h0c.48.99,1.07,1.91,1.75,2.76.68.85,1.45,1.62,2.3,2.3.85.68,1.77,1.26,2.75,1.75h0c.98.49,2.02.87,3.12,1.13,1.09.26,2.22.39,3.39.39h.03c.19.02.29.11.3.3v.04c-.02.19-.12.29-.3.3h-.02c-1.04,0-2.05-.1-3.04-.3-.99-.2-1.96-.49-2.88-.87-.93-.39-1.82-.86-2.66-1.42-.84-.56-1.63-1.21-2.36-1.94-.73-.73-1.38-1.52-1.94-2.36-.57-.84-1.04-1.72-1.42-2.65-.38-.93-.67-1.89-.87-2.88-.2-.99-.3-2.01-.3-3.05,0-.89.12-1.75.35-2.57.23-.82.55-1.59.97-2.31,0,0,.01-.02.02-.02.41-.7.91-1.34,1.48-1.91,0-.01,0-.02.02-.03,0,0,0,0,.01,0,.58-.58,1.22-1.08,1.93-1.49,0,0,.02-.01.02-.02h0c.72-.43,1.49-.75,2.32-.98.82-.23,1.68-.34,2.57-.34.68,0,1.32.1,1.93.31.61.21,1.17.5,1.68.87.51.37.95.81,1.32,1.32.38.51.67,1.07.87,1.68.2.61.31,1.26.31,1.94,0,.54-.11,1.04-.3,1.51h0s0,0,0,.01c-.2.46-.47.87-.82,1.22,0,0,0,0-.01.01-.01.01-.02.02-.02.02-.35.35-.76.62-1.22.82h0c-.47.2-.98.3-1.52.3h-.05c-.35,0-.67-.08-.96-.21,0,0-.02,0-.02-.01-.29-.13-.53-.3-.75-.52-.01,0-.02,0-.02-.02-.23-.23-.41-.5-.53-.8,0,0,0,0,0-.02-.12-.3-.19-.62-.19-.96,0-.31.08-.59.23-.84,0,0,0,0,0-.02.15-.25.35-.45.61-.6,0,0,0,0,.01,0,.25-.14.53-.22.83-.22h0c.21,0,.4.05.57.15,0,0,.01,0,.02,0,.17.1.31.24.41.41,0,0,0,0,.01.01.1.18.15.37.16.59h0c0,.16-.04.3-.11.42h0s0,.02,0,.02c-.07.12-.17.21-.29.29,0,0-.01,0-.02,0-.12.07-.25.11-.4.11h-.02c-.17,0-.31-.06-.42-.17,0,0,0,0-.02-.02h0c-.12-.12-.18-.27-.19-.45v-.03c.02-.18.12-.28.3-.3h.04c.18.01.28.11.3.28h0v.04c.06,0,.1-.02.14-.06h0s.05-.08.06-.14c0-.09-.02-.18-.06-.25,0,0,0,0,0,0,0,0,0-.02-.01-.02h0c-.05-.07-.1-.13-.17-.17-.08-.05-.17-.07-.26-.07h0c-.19,0-.36.04-.51.13,0,0,0,0,0,0-.16.1-.28.22-.38.38h0s0,.01,0,.01c-.09.16-.13.33-.14.52,0,.25.05.49.14.72.09.23.23.43.4.6,0,0,0,0,.01.01,0,0,.01.01.02.02.17.17.36.3.57.38h0s0,0,.02.01h0c.23.09.46.14.71.14h.03c.45,0,.87-.1,1.26-.26.39-.17.74-.4,1.04-.7h0c.3-.3.53-.64.69-1.04,0,0,0,0,0-.01.16-.39.24-.8.25-1.24,0-.61-.09-1.18-.28-1.73-.19-.54-.45-1.04-.78-1.5-.34-.46-.74-.85-1.19-1.19-.45-.33-.95-.59-1.5-.78-.54-.18-1.12-.28-1.72-.28-.83,0-1.63.11-2.4.33-.77.21-1.48.51-2.14.9,0,0-.01,0-.02.01Z" fill="#0bb4b1" fill-rule="evenodd"/></g><g id="f"><path d="M109.23,83.08l-1.72-.59-5.95-38.1c-.62-.41-1.26-.59-1.93-.54-.71.04-1.26.22-1.65.54l-5.95,38.1-1.72.59,9.06-49.22c.09-.53.22-.95.39-1.27v-.04s0,.01.01.02c0,0,0,.01.01.02.17.32.3.74.39,1.27l9.06,49.22Z" fill="#0bb4b1" fill-rule="evenodd"/></g><g id="g"><path d="M77.16,73.38l2.27.62c-.18.35-.47.71-.88,1.08l-1.39-1.7ZM132.6,72.98c-.17.51-.44.96-.79,1.35l-1.67-1.63,2.47.28Z" fill="#069" fill-rule="evenodd"/><path d="M110.96,111.87c0,.55-.36.99-1.09,1.34-.73.34-1.68.67-2.86.98-1.18.31-2.51.55-4,.72,2.58-1.1,4.04-1.74,4.39-1.91.35-.18.62-.29.79-.35.18-.06.59-.3,1.24-.72.65-.42,1.05-.58,1.22-.48.2.12.31.26.31.43Z" fill="#527cec" fill-rule="evenodd"/><path d="M105.92,89.74c1.28-.5,1.97-.97,2.07-1.41.1-.44.08-.96-.04-1.54.09.19.22.43.39.73.36.67.48,1.23.36,1.69-.12.46-1.45.97-4,1.54-.89.2-2.08.38-3.54.53,1.89-.52,3.48-1.02,4.77-1.52Z" fill="#c6f0ed" fill-rule="evenodd"/></g><g id="h"><circle cx="99.49" cy="7.51" r="4.8" fill="#d8b016"/><circle cx="84.99" cy="8.73" r="4.8" fill="#d8b016"/><circle cx="70.86" cy="12.21" r="4.8" fill="#d8b016"/><circle cx="57.45" cy="17.85" r="4.8" fill="#d8b016"/><circle cx="45.09" cy="25.52" r="4.8" fill="#d8b016"/><circle cx="34.07" cy="35.03" r="4.8" fill="#d8b016"/><circle cx="24.69" cy="46.14" r="4.8" fill="#d8b016"/><path d="M19.33,54.31c2.36,1.2,3.3,4.1,2.1,6.46-1.2,2.36-4.1,3.3-6.46,2.1-2.36-1.2-3.3-4.1-2.1-6.46,1.2-2.36,4.1-3.3,6.46-2.1Z" fill="#d8b016" fill-rule="evenodd"/><circle cx="11.66" cy="72.06" r="4.8" fill="#d8b016"/><path d="M9.09,81.49c2.62.42,4.41,2.88,3.99,5.5-.42,2.62-2.88,4.41-5.5,3.99-2.62-.42-4.41-2.88-3.99-5.5.41-2.62,2.88-4.41,5.5-3.99Z" fill="#d8b016" fill-rule="evenodd"/><path d="M7.28,95.94c2.65,0,4.8,2.15,4.8,4.8,0,2.65-2.15,4.8-4.8,4.8s-4.8-2.15-4.8-4.8c0-2.65,2.15-4.8,4.8-4.8Z" fill="#d8b016" fill-rule="evenodd"/><path d="M7.75,110.5c2.62-.41,5.08,1.37,5.5,3.99.41,2.62-1.37,5.08-3.99,5.5s-5.08-1.37-5.5-3.99c-.42-2.62,1.37-5.08,3.99-5.5Z" fill="#d8b016" fill-rule="evenodd"/><path d="M10.49,124.8c2.52-.82,5.23.56,6.05,3.08.82,2.52-.56,5.23-3.08,6.05-2.52.82-5.23-.56-6.05-3.08-.82-2.52.56-5.23,3.08-6.05Z" fill="#d8b016" fill-rule="evenodd"/><path d="M15.43,138.5c2.36-1.2,5.26-.26,6.46,2.1,1.2,2.36.26,5.26-2.1,6.46-2.36,1.2-5.26.26-6.46-2.1-1.2-2.36-.26-5.26,2.1-6.46Z" fill="#d8b016" fill-rule="evenodd"/><path d="M22.46,151.26c2.15-1.56,5.15-1.08,6.71,1.06,1.56,2.15,1.08,5.15-1.06,6.71-2.15,1.56-5.15,1.08-6.71-1.06-1.56-2.15-1.08-5.15,1.06-6.71Z" fill="#d8b016" fill-rule="evenodd"/><path d="M31.4,162.76c1.88-1.88,4.92-1.88,6.79,0,1.88,1.88,1.88,4.92,0,6.79-1.88,1.88-4.92,1.88-6.79,0-1.88-1.88-1.88-4.92,0-6.79Z" fill="#d8b016" fill-rule="evenodd"/><path d="M42.02,172.72c1.56-2.15,4.56-2.62,6.71-1.06,2.15,1.56,2.62,4.56,1.06,6.71-1.56,2.15-4.56,2.62-6.71,1.06-2.15-1.56-2.62-4.56-1.06-6.71Z" fill="#d8b016" fill-rule="evenodd"/><path d="M54.08,180.9c1.2-2.36,4.1-3.3,6.46-2.1,2.36,1.2,3.3,4.1,2.1,6.46-1.2,2.36-4.1,3.3-6.46,2.1-2.36-1.2-3.3-4.1-2.1-6.46Z" fill="#d8b016" fill-rule="evenodd"/><path d="M67.26,187.09c.82-2.52,3.53-3.9,6.05-3.08,2.52.82,3.9,3.53,3.08,6.05-.82,2.52-3.53,3.9-6.05,3.08-2.52-.82-3.9-3.53-3.08-6.05Z" fill="#d8b016" fill-rule="evenodd"/><path d="M81.25,191.14c.41-2.62,2.88-4.41,5.5-3.99,2.62.42,4.41,2.88,3.99,5.5-.41,2.62-2.88,4.41-5.5,3.99-2.62-.41-4.41-2.88-3.99-5.5Z" fill="#d8b016" fill-rule="evenodd"/><path d="M95.71,192.96c0-2.65,2.15-4.8,4.8-4.8,2.65,0,4.8,2.15,4.8,4.8s-2.15,4.8-4.8,4.8c-2.65,0-4.8-2.15-4.8-4.8Z" fill="#d8b016" fill-rule="evenodd"/><path d="M110.26,192.49c-.42-2.62,1.37-5.08,3.99-5.5,2.62-.41,5.08,1.37,5.5,3.99.42,2.62-1.37,5.08-3.99,5.5-2.62.42-5.08-1.37-5.5-3.99Z" fill="#d8b016" fill-rule="evenodd"/><path d="M124.57,189.74c-.82-2.52.56-5.23,3.08-6.05,2.52-.82,5.23.56,6.05,3.09.82,2.52-.56,5.23-3.08,6.05-2.52.82-5.23-.56-6.05-3.08Z" fill="#d8b016" fill-rule="evenodd"/><path d="M138.27,184.8c-1.2-2.36-.26-5.26,2.1-6.46,2.36-1.2,5.26-.26,6.46,2.1,1.2,2.36.26,5.26-2.1,6.46-2.36,1.2-5.26.26-6.46-2.1Z" fill="#d8b016" fill-rule="evenodd"/><path d="M151.03,177.77c-1.56-2.15-1.08-5.15,1.06-6.71,2.15-1.56,5.15-1.08,6.71,1.06,1.56,2.15,1.08,5.15-1.06,6.71-2.15,1.56-5.15,1.08-6.71-1.06Z" fill="#d8b016" fill-rule="evenodd"/><path d="M162.53,168.83c-1.88-1.88-1.88-4.92,0-6.79,1.88-1.88,4.92-1.88,6.79,0,1.88,1.88,1.88,4.92,0,6.79-1.88,1.88-4.92,1.88-6.79,0Z" fill="#d8b016" fill-rule="evenodd"/><path d="M172.49,158.21c-2.15-1.56-2.62-4.56-1.06-6.71,1.56-2.15,4.56-2.62,6.71-1.06,2.15,1.56,2.62,4.56,1.06,6.71-1.56,2.15-4.56,2.62-6.71,1.06Z" fill="#d8b016" fill-rule="evenodd"/><path d="M180.67,146.15c-2.36-1.2-3.3-4.1-2.1-6.46,1.2-2.36,4.1-3.3,6.46-2.1,2.36,1.2,3.3,4.1,2.1,6.46-1.2,2.36-4.1,3.3-6.46,2.1Z" fill="#d8b016" fill-rule="evenodd"/><path d="M186.86,132.97c-2.52-.82-3.9-3.53-3.08-6.05.82-2.52,3.53-3.91,6.05-3.08,2.52.82,3.9,3.53,3.08,6.05-.82,2.52-3.53,3.9-6.05,3.08Z" fill="#d8b016" fill-rule="evenodd"/><path d="M190.91,118.98c-2.62-.41-4.41-2.88-3.99-5.5.42-2.62,2.88-4.41,5.5-3.99,2.62.41,4.41,2.88,3.99,5.5-.41,2.62-2.88,4.41-5.5,3.99Z" fill="#d8b016" fill-rule="evenodd"/><path d="M192.72,104.53c-2.65,0-4.8-2.15-4.8-4.8,0-2.65,2.15-4.8,4.8-4.8,2.65,0,4.8,2.15,4.8,4.8,0,2.65-2.15,4.8-4.8,4.8Z" fill="#d8b016" fill-rule="evenodd"/><path d="M192.25,89.97c-2.62.42-5.08-1.37-5.5-3.99-.41-2.62,1.37-5.08,3.99-5.5,2.62-.42,5.08,1.37,5.5,3.99.42,2.62-1.37,5.08-3.99,5.5Z" fill="#d8b016" fill-rule="evenodd"/><path d="M189.51,75.66c-2.52.82-5.23-.56-6.05-3.08-.82-2.52.56-5.23,3.09-6.05,2.52-.82,5.23.56,6.05,3.08.82,2.52-.56,5.23-3.09,6.05Z" fill="#d8b016" fill-rule="evenodd"/><path d="M184.57,61.96c-2.36,1.2-5.26.27-6.46-2.1-1.2-2.36-.26-5.26,2.1-6.46,2.36-1.2,5.26-.26,6.46,2.1,1.21,2.36.26,5.26-2.1,6.46Z" fill="#d8b016" fill-rule="evenodd"/><path d="M177.54,49.21c-2.15,1.56-5.15,1.08-6.71-1.06-1.56-2.15-1.08-5.15,1.06-6.71,2.15-1.56,5.15-1.08,6.71,1.06,1.56,2.15,1.08,5.15-1.06,6.71Z" fill="#d8b016" fill-rule="evenodd"/><path d="M168.6,37.7c-1.88,1.88-4.92,1.88-6.79,0-1.88-1.88-1.88-4.92,0-6.79,1.88-1.88,4.92-1.88,6.79,0,1.88,1.88,1.88,4.92,0,6.79Z" fill="#d8b016" fill-rule="evenodd"/><path d="M157.98,27.74c-1.56,2.15-4.56,2.62-6.71,1.06-2.15-1.56-2.62-4.56-1.06-6.71,1.56-2.15,4.56-2.62,6.71-1.06,2.15,1.56,2.62,4.56,1.06,6.71Z" fill="#d8b016" fill-rule="evenodd"/><path d="M145.92,19.57c-1.2,2.36-4.1,3.3-6.46,2.1-2.36-1.21-3.3-4.1-2.1-6.46,1.2-2.36,4.1-3.3,6.46-2.1,2.36,1.2,3.3,4.1,2.1,6.46Z" fill="#d8b016" fill-rule="evenodd"/><path d="M132.74,13.38c-.82,2.52-3.53,3.9-6.05,3.08-2.52-.82-3.9-3.53-3.08-6.05.82-2.52,3.53-3.9,6.05-3.08,2.52.82,3.9,3.53,3.08,6.05Z" fill="#d8b016" fill-rule="evenodd"/><path d="M118.75,9.32c-.41,2.62-2.88,4.41-5.5,3.99-2.62-.42-4.41-2.88-3.99-5.5.41-2.62,2.88-4.41,5.5-3.99,2.62.41,4.41,2.88,3.99,5.5Z" fill="#d8b016" fill-rule="evenodd"/></g><g id="i"><path d="M58.85,118.77c-.47.23-.9.46-1.31.68-1.84,1.04-3.07,2.08-3.68,3.14-.98,2.79-2.04,4.97-3.17,6.55-1.13,1.57-1.61,3.01-1.44,4.31.16,1.2.73,2.58,1.72,4.14.01-.21.24-.63.68-1.23.29-.4.61-.68.98-.83.19-.08.39-.13.6-.14.61-.04,1.19.36,1.74,1.18.54.82.84,1.48.88,1.98.02.31-.05.73-.21,1.28-.1.33-.24.71-.42,1.13-.55,1.4-.83,2.38-.83,2.93,0,.4.04.75.13,1.04.17.54.47.81.9.81.29,0,.56-.03.82-.09.53-.12,1.01-.36,1.45-.72.19-.16.38-.34.55-.54.31-.36.6-.79.85-1.29.28-.55.52-1.09.72-1.6.04-.11.08-.22.12-.33.35-1.02.52-1.99.51-2.89,0-1.45-.26-3.2-.74-5.23-.22-.94-.41-1.7-.56-2.28-.01-.04-.02-.08-.03-.13-.15-.57-.25-.95-.32-1.12l.54,1.28,1.24,2.91c1.37-.21,2.66-.81,3.87-1.82.27-.23.54-.48.81-.74.48-.48.95-1.03,1.4-1.65.28-.38.55-.78.82-1.2.1-.16.2-.33.3-.49-.06.14-.11.27-.17.4-.29.68-.59,1.29-.9,1.84-.28.49-.56.93-.85,1.31-.01.02-.02.03-.04.04h-.06v.08c-.26.33-.52.61-.79.85-.22.21-.45.4-.68.59-.27.21-.53.42-.8.61-.55.39-1.11.72-1.68,1h0c-.11.09-.36.22-.75.4.26.34.43,1.15.49,2.43.14,2.71-.33,5-1.41,6.88-.12.21-.25.41-.38.6-.13.18-.26.35-.4.51-.07.09-.15.17-.23.25-.36.36-.74.66-1.16.89-.71.38-1.51.58-2.4.59-.01.15-.04.32-.06.52-.18,1.28-.28,2.13-.33,2.53-.04.4.08,1.04.37,1.91.06.18.14.39.24.62.13.3.3.65.5,1.03.02.04.04.08.06.12.38.72.88,1.57,1.49,2.56,0,0,.03.06.08.17.05.11.38.45.98,1.03.61.58,1.92,1.14,3.93,1.7,1.68.47,3.88-.39,6.59-2.58-1.01,1.5-1.9,2.51-2.66,3.02.81,1.22,1.85,2.16,3.11,2.83,1.5.8,2.81,1.2,3.94,1.21,1.13,0,1.82-.05,2.08-.16.26-.12.52-.23.77-.34.25-.11.73-.5,1.43-1.16.64-.6,1.87-2.23,3.7-4.87-.22.41-.49.98-.8,1.72-.31.74-.87,1.74-1.67,3.01-.81,1.27-1.47,1.98-1.98,2.14.49.44,1.32.85,2.5,1.23.72.23,1.46.41,2.23.55.67.13,1.18.19,1.52.19.72,0,1.31-.07,1.78-.22.47-.15.81-.28,1.02-.39.22-.12.54-.35.97-.69.43-.35,1.24-2.11,2.44-5.28-.1.61-.25,1.3-.43,2.07-.29,1.2-.58,2.13-.86,2.8-.28.67-.03,1.09.74,1.28.78.19,1.62.32,2.52.42.91.09,1.73.04,2.47-.15.64-.17,1.2-.42,1.66-.75.17-.13.33-.26.48-.41,1.19-1.19,1.41-3.5.66-6.95-.07-.33-.15-.63-.24-.92-.88-2.79-2.75-4.01-5.61-3.64-.08.67-.19,1.33-.33,1.99-.04.21-.09.41-.13.61-.04.16-.07.31-.11.47-.14.58-.31,1.15-.49,1.72.05-.36.1-.71.13-1.04.02-.16.04-.31.05-.45.02-.2.04-.39.06-.58,0-.08.02-.15.02-.23,0-.06.01-.12.01-.18.08-1.03.09-1.82.02-2.39-.12-.95-.55-1.76-1.29-2.42-.09-.08-.18-.15-.27-.22,0,0-.01-.01-.02-.01-.66-.52-1.38-.83-2.16-.93-.89-.12-1.54-.08-1.96.11-.07.04-.14.07-.2.11.12.05.2.41.26,1.07.02.19.02.38,0,.59-.04.5-.17,1.05-.4,1.64,1.63,1.01,3.12,1.49,4.47,1.41-.06,0-.11.02-.17.03-.32.06-.69.09-1.12.1-.43,0-.91-.06-1.45-.18-.54-.13-1.19-.36-1.96-.7-.44.95-.95,1.77-1.51,2.46-.21.25-.43.49-.65.7.73-1.17,1.26-2.23,1.59-3.17.5-1.41.56-2.57.17-3.48-.24-.57-.67-1.18-1.28-1.81-.6-.64-1.47-1.03-2.61-1.17-1.13-.14-2.26.03-3.37.51-.87.38-1.71.96-2.51,1.73-.21.21-.43.43-.64.67.01-.02.02-.04.03-.06,0,0,0,0,0,0,.05-.09.09-.18.14-.26.13-.24.25-.46.34-.65h0s.01-.02.01-.02c.35-.66.52-1.01.54-1.07.01-.06.02-.18.02-.36v-.03c-.01-.87-.58-1.66-1.69-2.38-1.08-.7-2.19-1.06-3.33-1.06-.07,0-.14,0-.22,0-1.59.04-3.16.5-4.73,1.38-.64.36-1.59,1.1-2.85,2.22-.28.25-.58.52-.9.81-.17.16-.34.32-.52.48-.09.08-.19.17-.28.26,0,0,0,0,0,0-.14.13-.29.27-.44.41l2.92-3.6c-.14-.13-.34-.25-.6-.35-.11-.04-.27-.09-.48-.14-.3-.08-.7-.16-1.2-.26.12-.02.24-.03.37-.04.05,0,.11,0,.16,0,.09,0,.18,0,.27,0,.7,0,1.41.12,2.12.36.78-.51,1.45-.95,2.01-1.32.73-.48,1.48-.84,2.25-1.06.04-.01.08-.02.11-.04.67-.19,1.35-.28,2.05-.28,1.55,0,2.88.39,3.99,1.14.94.63,1.57,1.42,1.88,2.38.8-.47,1.83-.75,3.1-.85,1.05-.08,1.97.03,2.76.33.17.06.33.13.48.21.9.47,1.61,1.09,2.13,1.88.18-.15.75-.24,1.73-.28,1.16-.04,2.32.36,3.46,1.21.52.38.94.78,1.28,1.18.41.49.68,1,.81,1.53,3.29.03,5.48,1.23,6.55,3.59.39.86.66,1.54.81,2.04.1-.42.19-.91.28-1.45.09-.55.13-1.22.11-2.01-.11-1.26-.6-2.1-1.47-2.52-.4-.19-.81-.33-1.22-.4-.3-.05-.61-.07-.91-.06-.17,0-.33.02-.5.05.13-.04.27-.07.4-.09.68-.12,1.35-.07,2.02.15.8.26,1.46.61,1.98,1.07v-8.05c-.02-1.99.05-4.81.2-8.45.03-.61.03-1.19.01-1.74-.08-2.77-.7-4.88-1.85-6.32-.77-.98-1.77-1.89-3-2.75-.95-.67-2.05-1.31-3.28-1.91-1.69-.82-3.57-1.92-5.63-3.28-.07-.04-.13-.09-.2-.13-.36-.24-.73-.5-1.11-.76-.98-.67-2-1.4-3.05-2.19-.08-.06-.16-.11-.23-.17-3.11-2.25-6.16-3.14-9.15-2.67-.64.1-1.27.26-1.9.49-3.67,1.3-7.06,2.65-10.17,4.05-.31.14-.62.28-.91.43ZM58.45,117.27c2.15-.88,3.7-1.55,4.64-2,.95-.46,1.77-.85,2.47-1.16.71-.32,1.98-.81,3.83-1.49,1.87-.69,3.92-.8,6.14-.34.1.02.21.04.31.07.99.22,1.92.53,2.78.92h0c.26.11.51.23.76.35.18.09.36.19.54.3.24.14.48.28.71.44.07.05.15.1.22.15.14.1.28.19.41.3.02.01.03.03.05.04.68.51,1.31.99,1.89,1.43.76.57,1.43,1.08,2.03,1.53.16.12.32.24.48.36.93.67,1.94,1.32,3.04,1.96.9.52,1.82,1.03,2.76,1.52.41.21.83.43,1.24.64,1.39.69,2.59,1.35,3.61,1.99,1.05.64,2.04,1.86,2.98,3.64.26.49.47,1.09.64,1.8.08.35.16.72.22,1.13.14.91.22,1.95.25,3.14.03,1.05,0,2.21-.06,3.48-.23,4.53-.29,8.04-.16,10.51.13,2.48.18,4.45.17,5.91-.03,2.81-.36,5.14-1.01,6.99-.64,1.84-1.11,3.04-1.42,3.62-.52.99-1.29,1.71-2.3,2.18-1.9.88-4.69.8-8.36-.26-1.48.84-3.41,1.05-5.79.63-2.41-.43-4.11-1.05-5.08-1.86-.2-.17-.36-.31-.49-.42-.93.27-1.85.37-2.75.27-1.01-.1-2.04-.35-3.09-.73-1.06-.39-1.97-.99-2.73-1.79h0c-.67-.71-1.16-1.21-1.48-1.52-.92.15-2.4-.05-4.45-.6h0c-2.15-.59-3.48-1.24-4-1.96h0c-.38-.52-.84-1.23-1.38-2.13-.18-.31-.38-.65-.58-1-.4-.7-.72-1.32-.97-1.84-.25-.53-.42-.97-.51-1.32-.18-.69-.2-1.79-.05-3.3.07-.73.12-1.28.13-1.65,0-.24.04-.36.1-.36-.04-.01-.07-.03-.1-.06-1.1-1.08-1.84-2.21-2.23-3.39-.38-1.16-.66-2.13-.84-2.91h0c-.17-.74-.35-1.27-.54-1.59-.74-1.07-1.28-1.94-1.6-2.61-.33-.68-.59-1.52-.77-2.51h0c-.19-1.02-.14-1.95.17-2.8.3-.84.7-1.6,1.2-2.26.48-.63.83-1.21,1.05-1.75.22-.55.44-1.21.64-1.99.21-.81.54-1.64,1-2.5.46-.86,1.08-1.71,1.85-2.56.77-.86,2.26-1.73,4.46-2.63ZM71.57,137.07c1.36-.66,3.25-1.75,5.68-3.27,2.68-1.69,4.65-3.27,5.9-4.77.04-.05.08-.1.12-.15.07-.09.14-.18.21-.26-.03.08-.07.16-.1.23,0,0,0,0,0,0-.57,1.23-1.6,2.57-3.09,4.01-1.49,1.44-3.32,2.6-5.51,3.49-.84.34-1.69.62-2.54.85-.67.18-1.33.32-2,.42.36-.12.81-.31,1.33-.56ZM55.32,139.45s0-.02,0-.03c.05-.18.09-.42.11-.74.02-.32-.23-.8-.74-1.42-.51-.63-.98-.92-1.4-.88-.05,0-.1.01-.15.02-.37.07-.75.28-1.12.63-.43.39-.58.87-.47,1.45.01.06.03.12.04.18.59,1.97,1.11,3.4,1.57,4.28.47.88.74,1.37.81,1.48-.02-.17-.04-.28-.04-.35,0-.73.29-1.84.86-3.31.27-.67.44-1.1.5-1.29ZM83.24,152.97c-1.11.32-2.26.33-3.43.03-1.17-.3-2.1-.79-2.79-1.45-1.02,1.06-1.45,2.11-1.28,3.14.13.84.6,1.48,1.42,1.91.82.43,1.51.61,2.09.54.57-.07,1.17-.36,1.81-.86,0,0,0-.01.01-.01-.03.04-.06.09-.09.13-.2.27-.51.51-.93.71-.48.24-1,.33-1.56.28-.55-.05-1.29-.31-2.2-.79-.91-.48-1.37-1.08-1.39-1.8-.01-.72.2-1.48.64-2.26.44-.79.96-1.48,1.56-2.07.8,1.01,1.77,1.73,2.91,2.14,1.14.41,2.22.53,3.24.35ZM70.13,152.97c-.22.18-.44.31-.68.4-.23.09-.6.14-1.11.14-.5,0-1.07-.17-1.7-.53-.63-.36-.93-.95-.91-1.77.01-.57.11-1.07.27-1.49.07-.19.16-.37.27-.53.34-.53.92-1.2,1.73-2,.51.57,1.24,1.08,2.2,1.54.73.35,1.6.67,2.6.95-.28.16-.79.17-1.53.04-.74-.13-1.44-.39-2.1-.77-.65-.38-1.06-.62-1.21-.73-.53.53-.88.96-1.05,1.27-.03.06-.06.11-.09.17-.18.41-.29.88-.33,1.41-.03.53.18.99.63,1.4.45.4.91.64,1.38.72.47.08.84.07,1.09-.04.26-.1.44-.17.53-.19ZM83.06,157.54c2.68,1.74,4.61,1.54,5.79-.63-.04.13-.09.24-.13.35-.14.4-.31.73-.5.98-.19.25-.44.47-.74.67-.3.19-.72.31-1.27.34-.55.03-1.13-.15-1.73-.55-.6-.4-1.08-.78-1.43-1.15ZM90.74,159.74c1.25.39,2.15.58,2.71.59,1.35.02,2.08-.6,2.18-1.85.04-.44,0-.95-.12-1.55-.12.03-.24.06-.35.08-1.72.34-3.07.06-4.02-.84.5.21.88.33,1.15.35.95.07,1.67.06,2.15,0,.16-.02.31-.05.44-.08.26-.05.46-.11.59-.17.08-.04.17.01.27.15.22.7.34,1.28.35,1.71.02.44-.01.83-.09,1.18-.03.13-.08.26-.13.38-.09.19-.22.37-.37.54-.25.27-.66.45-1.22.55-.56.1-1.17.04-1.84-.18-.67-.21-1.23-.5-1.68-.86Z" fill-rule="evenodd"/><path d="M67.28,143.44c-.77.23-1.52.58-2.25,1.06-.56.37-1.23.81-2.01,1.32-.71-.24-1.42-.36-2.12-.36-.09,0-.18,0-.27,0-.05,0-.11,0-.16,0-.12,0-.24.02-.37.04.5.1.9.18,1.2.26.21.05.37.1.48.14.26.1.46.22.6.35l-2.92,3.6c.15-.14.3-.28.44-.41,0,0,0,0,0,0,.1-.09.19-.18.28-.26-.23.71-.3,1.57-.22,2.58.1-.19.47-.65,1.11-1.36.89-1,2.21-1.96,3.96-2.88,1.75-.92,3.24-1.26,4.47-1.01,1.23.25,2.2.53,2.9.84.87.39,1.36,1,1.48,1.83,0,0,0,.01-.01.02h0c-.1.2-.21.41-.34.66-.04.09-.09.17-.14.26,0,0,0,0,0,0,0,.02-.02.04-.03.06.21-.24.43-.46.64-.67.05.16.1.36.17.6.02.07.12.48.31,1.23.58-.43.99-.73,1.22-.89.38-.27.71-.47.98-.6.63-.3,1.55-.45,2.77-.44,1.22,0,2.24.43,3.05,1.27.81.84,1.18,1.86,1.09,3.06-.33.94-.86,2-1.59,3.17.22-.21.44-.45.65-.7-.08.52.06.96.42,1.32.35.37.83.76,1.43,1.15.6.4,1.18.58,1.73.55.55-.03.97-.14,1.27-.34.3-.2.55-.42.74-.67.19-.25.36-.58.5-.98.04-.1.08-.22.13-.35.31-.8.31-1.6,0-2.41-1.36.07-2.85-.4-4.47-1.41.23-.59.37-1.14.4-1.64.14-.06.3-.09.48-.09.64,0,1.3.19,1.98.56.63.35,1.2.82,1.72,1.41.51.58.89,1.19,1.15,1.83.04.1.13.23.28.38,0,.06,0,.12-.01.18,0,.07-.01.15-.02.23-.01.18-.03.38-.06.58-.01.15-.03.3-.05.45-.04.33-.08.68-.13,1.04.18-.57.34-1.14.49-1.72.04-.16.08-.31.11-.47.05-.2.09-.41.13-.61.36-.25.76-.38,1.22-.38s.99.04,1.6.13c1.35.27,2.32.79,2.9,1.57.07.1.15.21.22.33.09.29.17.6.24.92.75,3.45.53,5.76-.66,6.95-.15.15-.31.29-.48.41-.47.33-1.02.58-1.66.75-.74.19-1.56.24-2.47.15-.91-.09-1.75-.23-2.52-.42-.77-.19-1.02-.61-.74-1.28.28-.67.57-1.6.86-2.8.18-.77.33-1.46.43-2.07-1.2,3.17-2.01,4.93-2.44,5.28-.43.35-.75.58-.97.69-.21.11-.55.24-1.02.39-.46.15-1.05.22-1.78.22-.34,0-.85-.06-1.52-.19-.77-.14-1.51-.33-2.23-.55-1.18-.38-2.01-.79-2.5-1.23.51-.16,1.17-.88,1.98-2.14.81-1.27,1.37-2.27,1.67-3.01.31-.74.58-1.31.8-1.72-1.83,2.65-3.06,4.27-3.7,4.87-.7.66-1.17,1.05-1.43,1.16-.25.11-.51.22-.77.34-.26.11-.96.17-2.08.16-1.13,0-2.44-.41-3.94-1.21-1.26-.67-2.29-1.62-3.11-2.83.76-.51,1.65-1.52,2.66-3.02-2.71,2.19-4.91,3.05-6.59,2.58-2.02-.56-3.33-1.13-3.93-1.7-.6-.58-.93-.92-.98-1.03-.05-.11-.08-.16-.08-.17-.61-.99-1.11-1.85-1.49-2.56-.02-.04-.04-.08-.06-.12-.2-.39-.37-.73-.5-1.03-.1-.23-.18-.44-.24-.62-.29-.88-.41-1.52-.37-1.91.04-.4.15-1.25.33-2.53.03-.2.05-.37.06-.52.89,0,1.7-.2,2.4-.59.42-.23.81-.52,1.16-.89.08-.08.15-.16.23-.25.14-.16.27-.33.4-.51.13-.19.26-.39.38-.6,1.08-1.88,1.55-4.17,1.41-6.88-.06-1.28-.23-2.09-.49-2.43.39-.18.64-.31.75-.4h0c.57-.28,1.13-.62,1.68-1.01.27-.19.54-.39.8-.61.23-.19.45-.38.68-.59.27-.24.53-.53.79-.85v-.08h.06s.02-.03.04-.04c.29-.38.58-.82.85-1.31-.36,1.02-.43,1.97-.21,2.83.23.86,1.16,1.22,2.81,1.08,1.65-.14,3.85-.78,6.62-1.92,3.6-1.49,6.29-3.05,8.05-4.69v.41c-.11.12-.29.4-.54.84-.06.1-.11.2-.16.29-.04.05-.08.1-.12.15-1.25,1.49-3.22,3.08-5.9,4.77-2.43,1.52-4.33,2.61-5.68,3.27-1.09.35-2.52.8-4.3,1.34-1.81.59-3.3,1.15-4.47,1.69.04.72.14,1.25.29,1.6.19.45.32.68.39.68.07,0,.16.04.25.14.1.1.62.29,1.56.58.94.29,1.6.4,1.99.33ZM55.62,139.83c.31.37.61.71.9,1.02.74.78,1.26,1.18,1.56,1.18.7,0,1.3-.28,1.8-.83.01,0,.02-.02.03-.03-.04.11-.08.22-.12.33-.19.52-.43,1.05-.72,1.6-.26.5-.54.93-.85,1.29-.17.2-.36.38-.55.54-.44.36-.92.6-1.45.72-.26.06-.54.09-.82.09-.43,0-.73-.27-.9-.81-.09-.29-.13-.64-.13-1.04,0-.55.28-1.53.83-2.93.18-.42.32-.8.42-1.13ZM58.85,118.77c-.35.43-.77.99-1.26,1.68-.92,1.3-1.82,2.68-2.7,4.14-2.3,3.83-3.45,6.51-3.45,8.04,0,.49.29,1.27.86,2.34.1.18.2.37.31.56-.36.15-.69.43-.98.83-.44.61-.66,1.02-.68,1.23-.98-1.56-1.56-2.94-1.72-4.14-.17-1.3.31-2.74,1.44-4.31,1.13-1.58,2.19-3.76,3.17-6.55.61-1.06,1.84-2.11,3.68-3.14.41-.23.84-.46,1.31-.68ZM81.07,156.28c.81-.71,1.53-1.81,2.18-3.3-1.02.18-2.1.06-3.24-.35-1.14-.41-2.11-1.12-2.91-2.14-.59.59-1.11,1.28-1.56,2.07-.44.78-.65,1.54-.64,2.26.02.72.48,1.32,1.39,1.8.91.48,1.64.74,2.2.79.55.05,1.07-.05,1.56-.28.42-.21.73-.44.93-.71.03-.04.06-.09.09-.13ZM70.13,152.97c1.04-.87,1.93-1.97,2.68-3.29-1-.29-1.87-.6-2.6-.95-.96-.46-1.69-.97-2.2-1.54-.81.81-1.39,1.47-1.73,2-.1.16-.19.34-.27.53-.17.43-.26.92-.27,1.49-.02.82.28,1.41.91,1.77.63.36,1.2.54,1.7.53.5,0,.87-.05,1.11-.14.23-.09.46-.23.68-.4ZM91.13,156.17c-.44,1.66-.57,2.85-.39,3.57.45.36,1.01.65,1.68.86.67.21,1.29.27,1.84.18.56-.1.97-.28,1.22-.55.16-.16.28-.34.37-.54.06-.12.1-.25.13-.38.08-.35.11-.74.09-1.18-.02-.44-.14-1.01-.35-1.71-.1-.14-.19-.19-.27-.15-.13.06-.33.12-.59.17-.13.03-.27.05-.44.08-.48.07-1.2.07-2.15,0-.26-.02-.64-.14-1.15-.35Z" fill="#078582" fill-rule="evenodd"/><path d="M66.7,130.06c.31-.55.61-1.16.9-1.84.06-.13.11-.27.17-.4-.1.17-.2.33-.3.49-.29.2-.71.6-1.26,1.18-.54.58-1.37,1.13-2.49,1.66-1.12.53-2,.69-2.63.48-.63-.21-1.22-.48-1.77-.82l-.54-1.28c.07.17.17.54.32,1.12-.2-.46-.38-.82-.53-1.08-.33-.57-.65-.87-.98-.88l-.02.08s-.07.07-.13.07c.2.81.75,2.41,1.64,4.79.79,2.34,1.19,4.26,1.19,5.77,0,.4-.1.92-.31,1.58-.02.08-.05.15-.07.22-.51.55-1.11.83-1.8.83-.3,0-.81-.39-1.56-1.18-.29-.31-.59-.65-.9-1.02.17-.55.24-.97.21-1.28-.04-.5-.33-1.16-.88-1.98-.54-.82-1.12-1.22-1.74-1.18-.21.01-.41.06-.6.14-.11-.19-.21-.38-.31-.56-.58-1.07-.86-1.85-.86-2.34,0-1.53,1.15-4.21,3.45-8.04.88-1.46,1.78-2.85,2.7-4.14.49-.69.91-1.26,1.26-1.68.29-.14.6-.28.91-.42,3.11-1.4,6.49-2.75,10.17-4.05.63-.22,1.27-.39,1.9-.49,1.49.02,2.96.47,4.43,1.37,1.11.67,2.31,1.68,3.62,3.02.31.32.82.86,1.52,1.61.59.64,1.04,1.11,1.34,1.4.94.91,1.69,1.37,2.26,1.37.37,0,.62-.1.74-.3.1-.16.15-.45.15-.89,0-.5-.17-1.11-.5-1.8.07.04.14.09.2.13,2.06,1.36,3.94,2.46,5.63,3.28,1.23.6,2.33,1.23,3.28,1.91.93,1.09,1.74,2.3,2.43,3.63.91,1.75,1.54,3.56,1.89,5.41.22,1.16.33,2.33.33,3.53,0,.58-.08,1.54-.24,2.86-.19,1.62-.44,3.13-.75,4.53-.87,4.02-1.93,6.03-3.2,6.03-.52,0-1.36-.1-2.54-.29-.93-.15-1.65-.24-2.16-.28-.33-.41-.76-.8-1.28-1.18-1.14-.85-2.3-1.25-3.46-1.21-.98.03-1.56.13-1.73.28-.53-.79-1.24-1.42-2.13-1.88-.16-.08-.32-.15-.48-.21-.79-.3-1.71-.41-2.76-.33-1.27.1-2.3.38-3.1.85-.32-.95-.94-1.74-1.88-2.38-1.12-.75-2.45-1.13-3.99-1.14-.7,0-1.38.09-2.05.28-.04.01-.07.02-.11.04-.38.07-1.04-.04-1.99-.33-.94-.29-1.46-.48-1.56-.58-.1-.1-.18-.15-.25-.14-.07,0-.2-.22-.39-.68-.15-.35-.24-.89-.29-1.6,1.17-.53,2.66-1.1,4.47-1.69,1.77-.55,3.2-.99,4.3-1.34-.52.25-.97.44-1.33.56.67-.1,1.33-.24,2-.42.85-.23,1.7-.51,2.54-.85,2.18-.88,4.02-2.04,5.51-3.49,1.49-1.44,2.52-2.78,3.09-4.01,0,0,0,0,0,0,.03-.08.07-.16.1-.23-.07.09-.13.17-.21.26.04-.09.1-.18.16-.29.25-.44.43-.72.54-.84v-.41c-1.76,1.63-4.45,3.2-8.05,4.69-2.77,1.15-4.97,1.79-6.62,1.92-1.65.14-2.58-.22-2.81-1.08-.22-.86-.15-1.8.21-2.83ZM74,149.53c.8-.77,1.64-1.35,2.51-1.73,1.11-.49,2.24-.66,3.37-.51,1.14.14,2.01.53,2.61,1.17.61.64,1.03,1.24,1.28,1.81.38.91.33,2.07-.17,3.48.09-1.2-.28-2.22-1.09-3.06-.81-.84-1.83-1.27-3.05-1.27-1.22,0-2.14.14-2.77.44-.27.13-.6.33-.98.6-.23.17-.64.47-1.22.89-.19-.75-.29-1.16-.31-1.23-.06-.24-.12-.45-.17-.6ZM73.89,149.19c-.12-.84-.61-1.45-1.48-1.83-.7-.31-1.67-.59-2.9-.84-1.23-.25-2.72.08-4.47,1.01-1.75.92-3.07,1.88-3.96,2.88-.64.71-1,1.17-1.11,1.36-.08-1.01,0-1.87.22-2.58.18-.17.35-.33.52-.48.32-.29.62-.56.9-.81,1.26-1.12,2.21-1.86,2.85-2.22,1.57-.88,3.15-1.34,4.73-1.38.07,0,.15,0,.22,0,1.14,0,2.25.35,3.33,1.06,1.11.72,1.68,1.52,1.69,2.38v.03c0,.18,0,.3-.02.36-.01.06-.19.42-.54,1.07ZM90.39,155.54c-.14-.15-.24-.28-.28-.38-.26-.64-.64-1.25-1.15-1.83-.52-.59-1.1-1.06-1.72-1.41-.68-.38-1.34-.56-1.98-.56-.18,0-.34.03-.48.09.02-.2.01-.4,0-.59-.06-.67-.15-1.02-.26-1.07.06-.04.13-.08.2-.11.41-.19,1.07-.22,1.96-.11.78.1,1.5.41,2.16.93,0,0,.01,0,.02.01.09.07.18.15.27.22.74.66,1.17,1.47,1.29,2.42.07.56.07,1.36-.02,2.38ZM96.78,156.87c-.07-.12-.14-.23-.22-.33-.58-.78-1.55-1.3-2.9-1.57-.61-.08-1.14-.13-1.6-.13s-.86.13-1.22.38c.13-.66.24-1.32.33-1.99,2.86-.37,4.73.84,5.61,3.64Z" fill="#0bb4b1" fill-rule="evenodd"/><path d="M85.37,119.59c.33.7.5,1.3.5,1.8,0,.44-.05.73-.15.89-.12.2-.37.3-.74.3-.57,0-1.32-.46-2.26-1.37-.3-.3-.75-.77-1.34-1.4-.7-.75-1.21-1.29-1.52-1.61-1.3-1.34-2.51-2.34-3.62-3.02-1.46-.89-2.94-1.35-4.43-1.37,2.99-.47,6.05.42,9.15,2.67.08.06.16.11.23.17,1.06.79,2.07,1.52,3.05,2.19.38.26.75.51,1.11.76ZM59.92,141.17s-.02.02-.03.03c.02-.07.05-.15.07-.22.21-.66.31-1.19.31-1.58,0-1.51-.4-3.43-1.19-5.77-.89-2.38-1.43-3.97-1.64-4.79.06,0,.11-.02.13-.07l.02-.08c.33.01.65.31.98.88.15.26.33.62.53,1.08,0,.04.02.08.03.13.15.58.34,1.33.56,2.28.49,2.03.73,3.78.74,5.23,0,.9-.17,1.86-.51,2.89Z" fill="#0cd7d4" fill-rule="evenodd"/><path d="M90.26,150.33c.51.03,1.23.13,2.16.28,1.18.19,2.03.29,2.54.29,1.26,0,2.33-2.01,3.2-6.03.3-1.4.55-2.91.75-4.53.16-1.32.24-2.27.24-2.86,0-1.2-.11-2.37-.33-3.53-.35-1.85-.98-3.66-1.89-5.41-.69-1.33-1.5-2.54-2.43-3.63,1.23.86,2.23,1.77,3,2.75,1.15,1.44,1.76,3.55,1.85,6.32.02.55.01,1.13-.01,1.74-.16,3.64-.22,6.46-.2,8.45v8.05c-.52-.45-1.18-.81-1.98-1.07-.67-.22-1.34-.27-2.02-.15-.13.02-.27.05-.4.09.17-.03.33-.04.5-.05.3-.01.61,0,.91.06.41.07.81.2,1.22.4.87.41,1.36,1.25,1.47,2.52.01.79-.02,1.46-.11,2.01-.09.55-.18,1.03-.28,1.45-.15-.5-.42-1.19-.81-2.04-1.07-2.36-3.25-3.56-6.55-3.59-.13-.53-.4-1.03-.81-1.53ZM59.32,130.81c.55.33,1.14.61,1.77.82.64.21,1.51.05,2.63-.48,1.12-.53,1.95-1.09,2.49-1.66.55-.58.96-.97,1.26-1.18-.27.43-.54.83-.82,1.2-.45.61-.92,1.16-1.4,1.65-.27.27-.54.51-.81.74-1.21,1.01-2.51,1.61-3.87,1.82l-1.24-2.91Z" fill="#099895" fill-rule="evenodd"/><path d="M88.86,154.5c.3.8.3,1.6,0,2.41-1.18,2.16-3.11,2.37-5.79.63-.36-.37-.5-.81-.42-1.32.56-.68,1.07-1.5,1.51-2.46.77.33,1.43.57,1.96.7.54.13,1.02.19,1.45.18.43,0,.8-.04,1.12-.1.06-.01.12-.02.17-.03ZM53.15,136.4c.35.55.73,1.12,1.16,1.71.35.48.69.93,1.02,1.35-.06.19-.23.62-.5,1.29-.58,1.47-.86,2.57-.86,3.31,0,.07.01.19.04.35-.08-.11-.35-.6-.81-1.48-.46-.88-.99-2.31-1.57-4.28-.02-.06-.03-.12-.04-.18-.12-.58.04-1.06.47-1.45.38-.35.75-.55,1.12-.63ZM81.07,156.28s-.01,0-.01.01c-.64.5-1.24.78-1.81.86-.57.07-1.27-.11-2.09-.54-.81-.43-1.29-1.06-1.42-1.91-.16-1.03.27-2.08,1.28-3.14.69.66,1.62,1.14,2.79,1.45,1.18.3,2.32.29,3.43-.03-.65,1.49-1.37,2.59-2.18,3.3ZM72.8,149.68c-.74,1.32-1.63,2.42-2.68,3.29-.1.02-.27.09-.53.19-.26.1-.62.11-1.09.04-.47-.08-.93-.32-1.38-.72-.45-.4-.66-.87-.63-1.4.03-.53.14-1,.33-1.41.03-.06.06-.11.09-.17.17-.32.52-.74,1.05-1.27.15.11.55.35,1.21.73.66.38,1.36.63,2.1.77.74.13,1.25.11,1.53-.04ZM91.13,156.17c.96.9,2.3,1.18,4.02.84.12-.02.23-.05.35-.08.12.59.16,1.11.12,1.55-.1,1.25-.83,1.87-2.18,1.85-.55,0-1.46-.2-2.71-.59-.18-.72-.05-1.91.39-3.57Z" fill="#e1a52c" fill-rule="evenodd"/><path d="M55.32,139.45c-.33-.41-.67-.86-1.02-1.35-.43-.59-.81-1.16-1.16-1.71.05-.01.1-.02.15-.02.42-.04.89.25,1.4.88.51.63.76,1.1.74,1.42-.02.32-.05.57-.11.74,0,0,0,.02,0,.03Z" fill="#d68a80" fill-rule="evenodd"/><path d="M140.9,118.77c-.29-.14-.59-.28-.91-.42-3.11-1.4-6.49-2.75-10.17-4.05-.63-.22-1.27-.39-1.9-.49-2.99-.47-6.05.42-9.15,2.67-.08.06-.16.11-.23.17-1.06.79-2.07,1.52-3.05,2.19-.38.26-.75.51-1.11.76-.07.04-.14.09-.2.13-2.06,1.36-3.94,2.46-5.63,3.28-1.23.6-2.33,1.23-3.28,1.91-1.23.86-2.23,1.77-3,2.75-1.15,1.44-1.76,3.55-1.85,6.32-.02.55-.01,1.13.01,1.74.16,3.64.22,6.46.2,8.45v8.05c.52-.45,1.18-.81,1.98-1.07.67-.22,1.34-.27,2.02-.15.13.02.27.05.4.09-.17-.03-.33-.04-.5-.05-.3-.01-.61,0-.91.06-.41.07-.81.2-1.22.4-.87.41-1.36,1.25-1.47,2.52-.01.79.02,1.46.11,2.01.09.55.18,1.03.28,1.45.15-.5.42-1.19.81-2.04,1.07-2.36,3.25-3.56,6.55-3.59.13-.53.4-1.03.81-1.53.33-.41.76-.8,1.28-1.18,1.14-.85,2.3-1.25,3.46-1.21.98.03,1.56.13,1.73.28.53-.79,1.24-1.42,2.13-1.88.16-.08.32-.15.48-.21.79-.3,1.71-.41,2.76-.33,1.27.1,2.3.38,3.1.85.32-.95.94-1.74,1.88-2.38,1.12-.75,2.45-1.13,3.99-1.14.7,0,1.38.09,2.05.28.04.01.07.02.11.04.77.23,1.52.58,2.25,1.06.56.37,1.23.81,2.01,1.32.71-.24,1.42-.36,2.12-.36.09,0,.18,0,.27,0,.05,0,.11,0,.16,0,.12,0,.24.02.37.04-.5.1-.9.18-1.2.26-.21.05-.37.1-.48.14-.26.1-.46.22-.6.35l2.92,3.6c-.15-.14-.3-.28-.44-.41,0,0,0,0,0,0-.1-.09-.19-.18-.28-.26-.18-.17-.35-.33-.52-.48-.32-.29-.62-.56-.9-.81-1.26-1.12-2.21-1.86-2.85-2.22-1.57-.88-3.15-1.34-4.73-1.38-.07,0-.15,0-.22,0-1.14,0-2.25.35-3.33,1.06-1.11.72-1.68,1.52-1.69,2.38v.03c0,.18,0,.3.02.36.01.06.19.42.54,1.07,0,0,0,.01.01.02h0c.1.2.21.41.34.66.04.09.09.17.14.26,0,0,0,0,0,0,0,.02.02.04.03.06-.21-.24-.42-.46-.64-.67-.8-.77-1.64-1.35-2.51-1.73-1.11-.49-2.24-.66-3.37-.51-1.14.14-2.01.53-2.61,1.17-.61.64-1.03,1.24-1.27,1.81-.38.91-.33,2.07.17,3.48.33.94.87,2,1.59,3.17-.22-.21-.44-.45-.65-.7-.56-.68-1.07-1.5-1.51-2.46-.77.33-1.43.57-1.96.7-.54.13-1.02.19-1.45.18-.43,0-.8-.04-1.12-.1-.06-.01-.12-.02-.17-.03,1.36.07,2.85-.4,4.47-1.41-.23-.59-.37-1.14-.4-1.64-.02-.2-.01-.4,0-.59.06-.67.15-1.02.26-1.07-.06-.04-.13-.08-.2-.11-.41-.19-1.07-.22-1.96-.11-.78.1-1.5.41-2.16.93,0,0-.01,0-.02.01-.09.07-.18.15-.27.22-.74.66-1.17,1.47-1.29,2.42-.07.56-.07,1.36.02,2.39,0,.06,0,.12.01.18,0,.07.01.15.02.23.02.18.03.38.06.58.01.15.03.3.05.45.04.33.08.68.13,1.04-.18-.57-.34-1.14-.49-1.72-.04-.16-.08-.31-.11-.47-.05-.2-.09-.41-.13-.61-.13-.66-.24-1.32-.33-1.99-2.86-.37-4.73.84-5.61,3.64-.09.29-.17.6-.24.92-.75,3.45-.53,5.76.66,6.95.15.15.31.29.48.41.47.33,1.02.58,1.66.75.74.19,1.56.24,2.47.15.91-.09,1.75-.23,2.52-.42.77-.19,1.02-.61.74-1.28-.28-.67-.57-1.6-.86-2.8-.19-.77-.33-1.46-.43-2.07,1.2,3.17,2.01,4.93,2.44,5.28.43.35.75.58.97.69.21.11.55.24,1.02.39.46.15,1.05.22,1.78.22.34,0,.85-.06,1.52-.19.77-.14,1.51-.33,2.23-.55,1.18-.38,2.01-.79,2.5-1.23-.51-.16-1.17-.88-1.98-2.14-.81-1.27-1.37-2.27-1.67-3.01-.31-.74-.58-1.31-.8-1.72,1.83,2.65,3.06,4.27,3.7,4.87.7.66,1.17,1.05,1.43,1.16.25.11.51.22.77.34.26.11.96.17,2.08.16,1.13,0,2.44-.41,3.94-1.21,1.26-.67,2.29-1.62,3.11-2.83-.76-.51-1.65-1.52-2.66-3.02,2.71,2.19,4.91,3.05,6.59,2.58,2.02-.56,3.33-1.13,3.93-1.7.6-.58.93-.92.98-1.03.05-.11.08-.16.08-.17.61-.99,1.11-1.85,1.49-2.56.02-.04.04-.08.06-.12.2-.39.37-.73.5-1.03.1-.23.18-.44.24-.62.29-.88.41-1.52.37-1.91-.04-.4-.15-1.25-.33-2.53-.03-.2-.05-.37-.06-.52-.89,0-1.7-.2-2.4-.59-.42-.23-.81-.52-1.16-.89-.08-.08-.15-.16-.23-.25-.14-.16-.27-.33-.4-.51-.13-.19-.26-.39-.38-.6-1.08-1.88-1.55-4.17-1.41-6.88.06-1.28.23-2.09.49-2.43-.39-.18-.64-.31-.75-.4h0c-.57-.28-1.13-.62-1.68-1.01-.27-.19-.54-.39-.8-.61-.23-.19-.45-.38-.68-.59-.27-.24-.53-.53-.79-.85v-.08h-.06s-.02-.03-.04-.04c-.29-.38-.58-.82-.85-1.31-.31-.55-.61-1.16-.9-1.84-.06-.13-.11-.27-.17-.4.1.17.2.33.3.49.27.43.54.83.82,1.2.45.61.92,1.16,1.4,1.65.27.27.54.51.81.74,1.21,1.01,2.51,1.61,3.87,1.82l1.24-2.91.54-1.28c-.07.17-.17.54-.32,1.12,0,.04-.02.08-.03.13-.15.58-.34,1.33-.56,2.28-.49,2.03-.73,3.78-.74,5.23,0,.9.17,1.86.51,2.89.04.11.08.22.12.33.19.52.43,1.05.72,1.6.26.5.54.93.85,1.29.17.2.36.38.55.54.44.36.92.6,1.45.72.26.06.54.09.82.09.43,0,.73-.27.9-.81.09-.29.13-.64.13-1.04,0-.55-.28-1.53-.83-2.93-.18-.42-.32-.8-.42-1.13-.17-.55-.24-.97-.21-1.28.04-.5.33-1.16.88-1.98.54-.82,1.12-1.22,1.74-1.18.21.01.41.06.6.14.36.15.69.43.98.83.44.61.66,1.02.68,1.23.98-1.56,1.56-2.94,1.72-4.14.17-1.3-.31-2.74-1.44-4.31-1.13-1.58-2.19-3.76-3.17-6.55-.61-1.06-1.84-2.11-3.68-3.14-.41-.23-.84-.46-1.31-.69ZM141.3,117.27c2.2.89,3.69,1.77,4.46,2.63.77.85,1.39,1.7,1.85,2.56.46.86.79,1.69,1,2.5.2.78.41,1.44.64,1.99.21.54.56,1.12,1.05,1.75.51.67.91,1.42,1.2,2.26.3.85.36,1.78.17,2.8h0c-.19.99-.45,1.83-.77,2.51-.33.67-.86,1.55-1.6,2.61-.19.32-.37.85-.54,1.58h0c-.19.79-.47,1.76-.84,2.92-.39,1.18-1.13,2.31-2.23,3.39-.03.03-.06.05-.1.06.06,0,.09.12.1.36,0,.37.05.92.13,1.65.15,1.51.14,2.61-.05,3.3-.09.35-.26.78-.51,1.32-.25.52-.57,1.13-.97,1.84-.21.36-.4.69-.58,1-.54.91-1,1.62-1.38,2.13h0c-.52.72-1.85,1.37-4,1.95h0c-2.04.56-3.53.76-4.45.61-.32.3-.81.81-1.48,1.52h0c-.76.8-1.67,1.39-2.73,1.79-1.05.38-2.08.63-3.09.73-.9.09-1.81,0-2.75-.27-.13.11-.29.25-.49.42-.98.81-2.67,1.43-5.08,1.86-2.38.42-4.31.21-5.79-.63-3.67,1.06-6.45,1.14-8.36.26-1.01-.47-1.77-1.19-2.3-2.18-.3-.57-.78-1.78-1.42-3.62-.65-1.85-.98-4.18-1.01-6.99-.01-1.46.04-3.42.17-5.91.13-2.47.07-5.98-.16-10.51-.07-1.27-.09-2.43-.06-3.48.03-1.18.11-2.23.25-3.14.06-.4.14-.78.22-1.13.17-.71.38-1.31.64-1.8.94-1.79,1.94-3,2.98-3.64,1.02-.63,2.22-1.29,3.61-1.99.41-.21.83-.42,1.24-.64.94-.5,1.86-1,2.76-1.52,1.1-.64,2.11-1.29,3.04-1.96.16-.12.33-.24.48-.36.6-.45,1.27-.96,2.03-1.53.58-.44,1.21-.92,1.89-1.43.01-.02.03-.03.05-.04.13-.1.27-.2.41-.3.07-.05.14-.1.22-.15.23-.16.47-.3.71-.44.18-.1.36-.2.54-.3.24-.13.5-.25.76-.36h0c.86-.38,1.79-.69,2.78-.91.1-.02.2-.05.31-.07,2.22-.46,4.27-.35,6.14.34,1.85.67,3.12,1.17,3.83,1.49.7.31,1.53.7,2.47,1.16.94.46,2.49,1.13,4.64,2ZM144.43,139.45c.06.19.23.62.5,1.29.58,1.47.86,2.57.86,3.31,0,.07-.01.19-.04.35.08-.11.35-.6.81-1.48.46-.88.99-2.31,1.57-4.28.02-.06.03-.12.04-.18.12-.58-.04-1.06-.47-1.45-.38-.35-.75-.55-1.12-.63-.05-.01-.1-.02-.15-.02-.42-.04-.89.25-1.4.88-.51.63-.76,1.1-.74,1.42.02.32.05.57.11.74,0,0,0,.02,0,.03ZM116.48,128.89s.08.1.12.15c1.25,1.49,3.22,3.08,5.9,4.77,2.43,1.52,4.33,2.61,5.68,3.27.52.25.97.44,1.33.56-.67-.1-1.33-.24-2-.42-.85-.23-1.7-.51-2.54-.85-2.18-.88-4.02-2.04-5.51-3.49-1.49-1.44-2.52-2.78-3.09-4.01,0,0,0,0,0,0-.03-.08-.07-.16-.1-.23.07.09.13.17.21.26ZM108.62,156.17c-.96.9-2.3,1.18-4.02.84-.12-.02-.23-.05-.35-.08-.12.59-.16,1.11-.12,1.55.1,1.25.83,1.87,2.18,1.85.55,0,1.46-.2,2.71-.59-.45.36-1.01.65-1.68.86-.67.21-1.29.27-1.84.18-.56-.1-.97-.28-1.22-.55-.16-.16-.28-.34-.37-.54-.06-.12-.1-.25-.13-.38-.08-.35-.11-.74-.09-1.18.02-.44.14-1.01.35-1.71.1-.14.19-.19.27-.15.13.06.33.12.59.17.13.03.27.05.44.08.48.07,1.2.07,2.15,0,.26-.02.64-.14,1.15-.35ZM116.51,152.97c1.02.18,2.1.06,3.23-.35,1.14-.41,2.11-1.12,2.91-2.14.59.59,1.11,1.28,1.56,2.07.44.78.65,1.54.64,2.26-.02.72-.48,1.32-1.39,1.8-.91.48-1.64.74-2.2.79-.55.05-1.07-.05-1.56-.28-.42-.21-.73-.44-.93-.71-.03-.04-.06-.09-.09-.13,0,0,.01,0,.01.01.64.5,1.24.78,1.81.86.57.07,1.27-.11,2.08-.54.81-.43,1.29-1.06,1.42-1.91.16-1.03-.27-2.08-1.28-3.14-.69.66-1.62,1.14-2.79,1.45-1.18.3-2.32.29-3.43-.03ZM110.9,156.91c1.18,2.16,3.11,2.37,5.79.63-.35.37-.83.76-1.43,1.15-.6.4-1.18.58-1.73.55-.55-.03-.97-.14-1.27-.34-.3-.2-.55-.42-.74-.67-.19-.25-.36-.58-.5-.98-.04-.1-.08-.22-.13-.35ZM129.63,152.97c.1.02.27.09.53.19.26.1.62.11,1.09.04.47-.08.93-.32,1.38-.72.45-.4.66-.87.63-1.4-.03-.53-.14-1-.33-1.41-.03-.06-.06-.11-.09-.17-.17-.32-.52-.74-1.05-1.27-.15.11-.55.35-1.21.73-.66.38-1.36.63-2.1.77-.74.13-1.25.11-1.53-.04,1-.29,1.87-.6,2.6-.95.96-.46,1.69-.97,2.2-1.54.81.81,1.39,1.47,1.73,2,.1.16.19.34.27.53.17.43.26.92.27,1.49.02.82-.28,1.41-.91,1.77-.63.36-1.2.54-1.7.53-.5,0-.87-.05-1.11-.14-.23-.09-.46-.23-.68-.4Z" fill-rule="evenodd"/><path d="M147.13,135.53c.11-.19.21-.38.31-.56.58-1.07.86-1.85.86-2.34,0-1.53-1.15-4.21-3.45-8.04-.88-1.46-1.78-2.85-2.7-4.14-.49-.69-.91-1.26-1.26-1.68.47.23.9.46,1.31.68,1.84,1.04,3.07,2.08,3.68,3.14.98,2.79,2.04,4.97,3.17,6.55,1.13,1.57,1.61,3.01,1.44,4.31-.16,1.2-.73,2.58-1.72,4.14-.01-.21-.24-.63-.68-1.23-.29-.4-.61-.68-.98-.83ZM139.83,141.17s.02.02.03.03c.51.55,1.11.83,1.8.83.3,0,.81-.39,1.56-1.18.29-.31.59-.65.9-1.02.1.33.24.71.42,1.13.55,1.4.83,2.38.83,2.93,0,.4-.04.75-.13,1.04-.17.54-.47.81-.9.81-.29,0-.56-.03-.82-.09-.52-.12-1.01-.36-1.45-.72-.19-.16-.38-.34-.55-.54-.31-.36-.6-.79-.85-1.29-.28-.55-.52-1.09-.72-1.6-.04-.11-.08-.22-.12-.33ZM108.62,156.17c-.5.21-.88.33-1.15.35-.95.07-1.67.06-2.15,0-.16-.02-.31-.05-.44-.08-.26-.05-.46-.11-.59-.17-.08-.04-.17.01-.27.15-.22.7-.34,1.28-.35,1.71-.02.44.01.83.09,1.18.03.13.08.26.13.38.09.19.22.37.37.54.25.27.66.45,1.22.55.56.1,1.17.04,1.84-.18.67-.21,1.23-.5,1.68-.86.18-.72.05-1.91-.39-3.57ZM110.89,154.5c-.3.8-.3,1.6,0,2.41.04.13.09.24.13.35.14.4.31.73.5.98.19.25.44.47.74.67.3.19.72.31,1.27.34.55.03,1.13-.15,1.73-.55.6-.4,1.08-.78,1.43-1.15.36-.37.5-.81.42-1.32.21.25.42.49.65.7-.73-1.17-1.26-2.23-1.59-3.17-.09-1.2.28-2.22,1.09-3.06.81-.84,1.83-1.27,3.05-1.27,1.22,0,2.14.14,2.77.44.27.13.6.33.98.6.23.17.64.47,1.22.89.19-.75.29-1.16.31-1.23.06-.24.12-.45.17-.6.21.21.43.43.64.67-.01-.02-.02-.04-.03-.06,0,0,0,0,0,0-.05-.09-.09-.18-.14-.26-.13-.24-.25-.46-.34-.65h0s-.01-.02-.01-.02c.12-.84.61-1.45,1.48-1.83.7-.31,1.67-.59,2.9-.84,1.23-.25,2.72.08,4.47,1.01,1.75.92,3.07,1.88,3.96,2.88.64.71,1,1.17,1.11,1.36.08-1.01,0-1.87-.22-2.58.09.08.19.17.28.26,0,0,0,0,0,0,.14.13.29.27.44.41l-2.92-3.6c.14-.13.34-.25.6-.35.11-.04.27-.09.48-.14.3-.08.7-.16,1.2-.26-.12-.02-.24-.03-.37-.04-.05,0-.11,0-.16,0-.09,0-.18,0-.27,0-.7,0-1.41.12-2.12.36-.78-.51-1.45-.95-2.01-1.32-.73-.48-1.48-.84-2.25-1.06.38.07,1.04-.04,1.99-.33.94-.29,1.46-.48,1.56-.58.1-.1.18-.15.25-.14.07,0,.2-.22.39-.68.15-.35.24-.89.29-1.6-1.17-.53-2.66-1.1-4.47-1.69-1.77-.55-3.2-.99-4.3-1.34-1.36-.66-3.25-1.75-5.68-3.27-2.68-1.69-4.65-3.27-5.9-4.77-.04-.05-.08-.1-.12-.15-.04-.09-.1-.18-.16-.29-.25-.44-.43-.72-.54-.84v-.41c1.76,1.63,4.45,3.2,8.05,4.69,2.77,1.15,4.97,1.79,6.62,1.92,1.65.14,2.58-.22,2.81-1.08.22-.86.15-1.8-.21-2.83.28.49.56.93.85,1.31.01.02.02.03.04.04h.06v.08c.26.33.52.61.79.85.22.21.45.4.68.59.27.21.53.42.8.61.55.39,1.11.72,1.68,1h0c.11.09.36.22.75.4-.26.34-.43,1.15-.49,2.43-.14,2.71.33,5,1.41,6.88.12.21.25.41.38.6.13.18.26.35.4.51.07.09.15.17.23.25.35.36.74.66,1.16.89.71.38,1.51.58,2.4.59.02.15.04.32.06.52.18,1.28.28,2.13.33,2.53.04.4-.09,1.04-.37,1.91-.06.18-.14.39-.24.62-.13.3-.3.65-.5,1.03-.02.04-.04.08-.06.12-.38.72-.88,1.57-1.49,2.56,0,0-.03.06-.08.17-.05.11-.38.45-.98,1.03-.61.58-1.92,1.14-3.93,1.7-1.68.47-3.88-.39-6.59-2.58,1.01,1.5,1.9,2.51,2.66,3.02-.81,1.22-1.85,2.16-3.11,2.83-1.5.8-2.81,1.2-3.94,1.21-1.13,0-1.82-.05-2.08-.16-.26-.12-.52-.23-.77-.34-.25-.11-.73-.5-1.43-1.16-.64-.6-1.87-2.23-3.7-4.87.22.41.49.98.8,1.72.31.74.87,1.74,1.67,3.01.81,1.27,1.47,1.98,1.98,2.14-.49.44-1.32.85-2.5,1.23-.72.23-1.46.41-2.23.55-.67.13-1.18.19-1.52.19-.72,0-1.31-.07-1.78-.22-.47-.15-.81-.28-1.02-.39-.22-.12-.54-.35-.97-.69-.43-.35-1.24-2.11-2.44-5.28.1.61.25,1.3.43,2.07.29,1.2.58,2.13.86,2.8.28.67.03,1.09-.74,1.28-.78.19-1.62.32-2.52.42-.91.09-1.73.04-2.47-.15-.64-.17-1.2-.42-1.66-.75-.17-.13-.33-.26-.48-.41-1.19-1.19-1.41-3.5-.66-6.95.07-.33.15-.63.24-.92.07-.12.14-.23.22-.33.58-.78,1.55-1.3,2.9-1.57.61-.08,1.14-.13,1.6-.13s.86.13,1.22.38c.04.21.09.41.13.61.04.16.07.31.11.47.14.58.31,1.15.49,1.72-.05-.36-.1-.71-.13-1.04-.02-.16-.04-.31-.05-.45-.02-.2-.04-.39-.06-.58,0-.08-.02-.15-.02-.23,0-.06-.01-.12-.01-.18.14-.15.24-.28.28-.38.26-.64.64-1.25,1.15-1.83.52-.59,1.1-1.06,1.72-1.41.68-.38,1.34-.56,1.98-.56.18,0,.34.03.48.09.04.5.17,1.05.4,1.64-1.63,1.01-3.12,1.49-4.47,1.41ZM116.51,152.97c.65,1.49,1.37,2.59,2.18,3.3.03.04.06.09.09.13.2.27.51.51.93.71.48.24,1,.33,1.56.28.55-.05,1.29-.31,2.2-.79.91-.48,1.37-1.08,1.39-1.8.01-.72-.2-1.48-.64-2.26-.44-.79-.96-1.48-1.56-2.07-.8,1.01-1.77,1.73-2.91,2.14-1.14.41-2.22.53-3.23.35ZM126.95,149.68c.74,1.32,1.63,2.42,2.68,3.29.22.18.44.31.68.4.23.09.6.14,1.11.14.5,0,1.07-.17,1.7-.53.63-.36.93-.95.91-1.77-.01-.57-.11-1.07-.27-1.49-.07-.19-.16-.37-.27-.53-.34-.53-.92-1.2-1.73-2-.51.57-1.24,1.08-2.2,1.54-.73.35-1.6.67-2.6.95Z" fill="#078582" fill-rule="evenodd"/><path d="M109.49,150.33c-.51.03-1.23.13-2.16.28-1.18.19-2.03.29-2.54.29-1.26,0-2.33-2.01-3.2-6.03-.3-1.4-.55-2.91-.75-4.53-.16-1.32-.24-2.27-.24-2.86,0-1.2.11-2.37.33-3.53.35-1.85.98-3.66,1.89-5.41.69-1.33,1.5-2.54,2.43-3.63.95-.67,2.05-1.31,3.28-1.91,1.69-.82,3.57-1.92,5.63-3.28.07-.04.13-.09.2-.13-.33.7-.5,1.3-.5,1.8,0,.44.05.73.15.89.12.2.37.3.74.3.57,0,1.32-.46,2.26-1.37.3-.3.75-.77,1.34-1.4.7-.75,1.21-1.29,1.52-1.61,1.3-1.34,2.51-2.34,3.62-3.02,1.46-.89,2.94-1.35,4.43-1.37.64.1,1.27.26,1.9.49,3.67,1.3,7.06,2.65,10.17,4.05.31.14.62.28.91.42.35.43.77.99,1.26,1.68.92,1.3,1.82,2.68,2.7,4.14,2.3,3.83,3.45,6.51,3.45,8.04,0,.49-.29,1.27-.86,2.34-.1.18-.2.37-.31.56-.19-.08-.39-.13-.6-.14-.61-.04-1.19.36-1.74,1.18-.54.82-.84,1.48-.88,1.98-.02.31.05.73.21,1.28-.31.37-.61.71-.9,1.02-.74.78-1.26,1.18-1.56,1.18-.7,0-1.3-.28-1.8-.83-.02-.07-.05-.15-.07-.22-.21-.66-.31-1.19-.31-1.58,0-1.51.4-3.43,1.19-5.77.89-2.38,1.43-3.97,1.64-4.79-.06,0-.11-.02-.13-.07l-.02-.08c-.33.01-.65.31-.98.88-.15.26-.33.62-.53,1.08.15-.57.25-.95.32-1.12l-.54,1.28c-.55.33-1.13.61-1.77.82-.64.21-1.51.05-2.63-.48-1.12-.53-1.95-1.09-2.49-1.66-.55-.58-.96-.97-1.26-1.18-.1-.16-.2-.33-.3-.49.06.14.11.27.17.4.29.68.59,1.29.9,1.84.36,1.02.43,1.97.21,2.83-.23.86-1.16,1.22-2.81,1.08-1.65-.14-3.85-.78-6.62-1.92-3.6-1.49-6.29-3.05-8.05-4.69v.41c.11.12.29.4.54.84.06.1.11.2.16.29-.07-.09-.14-.18-.21-.26.03.08.07.16.1.23,0,0,0,0,0,0,.57,1.23,1.6,2.57,3.09,4.01,1.49,1.44,3.32,2.6,5.51,3.49.84.34,1.69.62,2.54.85.67.18,1.33.32,2,.42-.36-.12-.81-.31-1.33-.56,1.09.35,2.52.8,4.3,1.34,1.81.59,3.3,1.15,4.47,1.69-.04.72-.14,1.25-.29,1.6-.19.45-.32.68-.39.68-.07,0-.16.04-.25.14-.1.1-.62.29-1.56.58-.94.29-1.6.4-1.99.33-.04-.01-.08-.02-.11-.04-.67-.19-1.35-.28-2.05-.28-1.55,0-2.88.39-3.99,1.14-.94.63-1.57,1.42-1.88,2.38-.8-.47-1.83-.75-3.1-.85-1.05-.08-1.97.03-2.76.33-.17.06-.33.13-.48.21-.9.47-1.61,1.09-2.13,1.88-.18-.15-.75-.24-1.73-.28-1.16-.04-2.32.36-3.46,1.21-.52.38-.94.78-1.28,1.18ZM108.9,155.22c-.35-.25-.76-.38-1.22-.38s-.99.04-1.6.13c-1.35.27-2.32.79-2.9,1.57-.07.1-.15.21-.22.33.88-2.79,2.75-4.01,5.61-3.64.08.67.19,1.33.33,1.99ZM114.96,151.45c-.14-.06-.3-.09-.48-.09-.64,0-1.3.19-1.98.56-.63.35-1.2.82-1.72,1.41-.51.58-.89,1.19-1.15,1.83-.04.1-.13.23-.28.38-.08-1.03-.09-1.82-.02-2.39.12-.95.55-1.76,1.29-2.42.09-.08.18-.15.27-.22,0,0,.01-.01.02-.01.66-.52,1.38-.83,2.16-.93.89-.12,1.54-.08,1.96.11.07.04.14.07.2.11-.12.05-.2.41-.26,1.07-.02.19-.02.38,0,.59ZM125.76,149.53c-.05.16-.1.36-.17.6-.02.07-.12.48-.31,1.23-.58-.43-.99-.73-1.22-.89-.38-.27-.71-.47-.98-.6-.63-.3-1.55-.45-2.77-.44-1.22,0-2.24.43-3.05,1.27-.81.84-1.18,1.86-1.09,3.06-.5-1.41-.56-2.57-.17-3.48.24-.57.67-1.18,1.27-1.81.6-.64,1.47-1.03,2.61-1.17,1.13-.14,2.26.03,3.37.51.87.38,1.71.96,2.51,1.73ZM139.55,149.18c.23.71.3,1.57.22,2.58-.1-.19-.47-.65-1.11-1.36-.89-1-2.21-1.96-3.96-2.88-1.75-.92-3.24-1.26-4.47-1.01-1.23.25-2.2.53-2.9.84-.87.39-1.36,1-1.48,1.83-.35-.66-.53-1.01-.54-1.07-.01-.06-.02-.18-.02-.36v-.03c.02-.87.58-1.66,1.69-2.38,1.08-.7,2.19-1.06,3.33-1.06.07,0,.14,0,.22,0,1.59.04,3.16.5,4.73,1.38.64.36,1.59,1.1,2.85,2.22.28.25.58.52.9.81.17.15.34.32.52.48Z" fill="#0bb4b1" fill-rule="evenodd"/><path d="M146.61,136.4c-.35.55-.73,1.12-1.16,1.71-.35.48-.69.93-1.02,1.35,0-.01,0-.02,0-.03-.05-.18-.09-.42-.11-.74-.02-.32.23-.8.74-1.42.51-.63.98-.92,1.4-.88.05,0,.1.01.15.02Z" fill="#d68a80" fill-rule="evenodd"/><path d="M110.89,154.5c.06,0,.12.02.17.03.32.06.69.09,1.12.1.43,0,.91-.06,1.45-.18.54-.13,1.19-.36,1.96-.7.44.95.95,1.77,1.51,2.46.08.52-.06.96-.42,1.32-2.68,1.74-4.61,1.54-5.79-.63-.31-.8-.31-1.6,0-2.41ZM108.62,156.17c.44,1.66.57,2.85.39,3.57-1.25.39-2.15.58-2.71.59-1.35.02-2.08-.6-2.18-1.85-.04-.44,0-.95.12-1.55.12.03.24.06.35.08,1.72.34,3.07.06,4.02-.84ZM146.61,136.4c.37.07.75.28,1.12.63.43.39.58.87.47,1.45-.01.06-.03.12-.04.18-.59,1.97-1.11,3.4-1.57,4.28-.47.88-.74,1.37-.81,1.48.02-.17.04-.28.04-.35,0-.73-.29-1.84-.86-3.31-.27-.67-.44-1.1-.5-1.29.33-.41.67-.86,1.02-1.35.43-.59.81-1.16,1.16-1.71ZM118.69,156.28c-.81-.71-1.53-1.81-2.18-3.3,1.11.32,2.26.33,3.43.03,1.17-.3,2.1-.79,2.79-1.45,1.02,1.06,1.45,2.11,1.28,3.14-.13.84-.6,1.48-1.42,1.91-.82.43-1.51.61-2.08.54-.57-.07-1.17-.36-1.81-.86,0,0,0-.01-.01-.01ZM126.95,149.68c.28.16.79.17,1.53.04.74-.13,1.44-.39,2.1-.77.65-.38,1.06-.62,1.21-.73.53.53.88.96,1.05,1.27.03.06.06.11.09.17.18.41.29.88.33,1.41.03.53-.18.99-.63,1.4-.45.4-.91.64-1.38.72-.47.08-.84.07-1.09-.04-.26-.1-.44-.17-.53-.19-1.04-.87-1.93-1.97-2.68-3.29Z" fill="#e1a52c" fill-rule="evenodd"/><path d="M139.86,141.2s-.02-.02-.03-.03c-.35-1.02-.52-1.99-.51-2.89,0-1.45.26-3.2.74-5.23.22-.94.41-1.7.56-2.28.01-.04.02-.08.03-.13.2-.46.38-.82.53-1.08.33-.57.65-.87.98-.88l.02.08s.07.07.13.07c-.2.81-.75,2.41-1.64,4.79-.79,2.34-1.19,4.26-1.19,5.77,0,.4.1.92.31,1.58.02.08.05.15.07.22ZM127.92,113.81c-1.49.02-2.96.47-4.43,1.37-1.11.67-2.31,1.68-3.62,3.02-.31.32-.82.86-1.52,1.61-.59.64-1.04,1.11-1.34,1.4-.94.91-1.69,1.37-2.26,1.37-.37,0-.62-.1-.74-.3-.1-.16-.15-.45-.15-.89,0-.5.17-1.11.5-1.8.36-.24.73-.5,1.11-.76.98-.67,2-1.4,3.05-2.19.08-.06.16-.11.23-.17,3.11-2.25,6.16-3.14,9.15-2.67Z" fill="#0cd7d4" fill-rule="evenodd"/><path d="M132.28,128.31c.29.2.71.6,1.26,1.18.54.58,1.37,1.13,2.49,1.66,1.12.53,2,.69,2.63.48.63-.21,1.22-.48,1.77-.82l-1.24,2.91c-1.37-.21-2.66-.81-3.87-1.82-.27-.23-.54-.48-.81-.74-.48-.48-.95-1.03-1.4-1.65-.28-.38-.55-.78-.82-1.2ZM105.26,124.91c-.93,1.09-1.74,2.3-2.43,3.63-.91,1.75-1.54,3.56-1.89,5.41-.22,1.16-.33,2.33-.33,3.53,0,.58.08,1.54.24,2.86.19,1.62.44,3.13.75,4.53.87,4.02,1.93,6.03,3.2,6.03.52,0,1.36-.1,2.54-.29.93-.15,1.65-.24,2.16-.28-.41.49-.68,1-.81,1.53-3.29.03-5.47,1.23-6.55,3.59-.39.86-.66,1.54-.81,2.04-.1-.42-.19-.91-.28-1.45-.09-.55-.13-1.22-.11-2.01.11-1.26.6-2.1,1.47-2.52.4-.19.81-.33,1.22-.4.3-.05.61-.07.91-.06.17,0,.33.02.5.05-.13-.04-.27-.07-.4-.09-.68-.12-1.35-.07-2.02.15-.8.26-1.46.61-1.98,1.07v-8.05c.02-1.99-.05-4.81-.2-8.45-.03-.61-.03-1.19-.01-1.74.08-2.77.7-4.88,1.85-6.32.77-.98,1.77-1.89,3-2.75Z" fill="#099895" fill-rule="evenodd"/></g><path d="M49.71,51.37c.11-.07.19-.06.25.04.05.08.04.15-.02.22,0,0-.01.01-.02.02-.01,0-.02.01-.02.02-.27.19-.8.7-1.61,1.51-.74.83-1.2,1.39-1.38,1.67,0,0-.01.01-.02.02s-.01.02-.01.02c-.06.07-.14.08-.22.03-.1-.06-.12-.14-.05-.25l.05-.05.05-.05c.39-.42-.14-1.31-1.6-2.69-.67-.63-1.14-1.03-1.4-1.19-.26-.17-.45-.18-.57-.06-.05.06-.13.21-.25.45-.02.02-.04.04-.05.04-.1.07-.19.06-.26-.04-.02-.03-.02-.06-.01-.1,0-.04.03-.08.05-.14.03-.06.04-.1.04-.12.03-.1.12-.46.27-1.09.15-.63.28-1.14.41-1.54s.24-.66.35-.78c.06-.07.12-.07.18-.02.12.11.6.57,1.45,1.37.85.8,1.35,1.28,1.51,1.43.16.15.34.31.54.47.2.16.46.35.77.57.32.22.61.37.89.43.28.06.49.02.63-.13l.02-.02.03-.03Z" fill="#d09d21"/><path d="M56.08,40.36c.35-.21.71-.37,1.07-.49.36-.12.73-.19,1.12-.22.38-.02.75.04,1.11.2.35.16.66.4.91.74.36.52.5,1.09.41,1.7-.09.61-.36,1.21-.81,1.79-.45.58-1.05,1.15-1.8,1.7-.14.11-.39.27-.76.5-.37.23-.65.42-.86.56-.14.1-.24.18-.32.23-.07.05-.18.14-.34.27-.16.13-.28.22-.34.27-.06.05-.15.13-.27.23-.12.1-.22.18-.28.25-.07.06-.14.14-.22.23-.08.09-.16.17-.22.25,0,.02-.02.03-.04.04-.08.06-.16.05-.25-.03-.1-.09-.12-.19-.04-.3l.07-.05s.01,0,.03-.01c.01,0,.02,0,.03-.01.12-.09.15-.26.11-.52-.04-.26-.22-.67-.53-1.23-.31-.56-.76-1.23-1.35-2.01-.36-.48-.7-.89-1.01-1.25-.31-.36-.58-.63-.8-.84-.22-.2-.42-.35-.6-.46-.18-.11-.32-.17-.43-.18-.11-.02-.19,0-.26.05h-.02s-.01.04-.02.04c-.03.02-.05.04-.07.04-.05.03-.1.03-.16,0-.06-.02-.1-.07-.12-.12-.04-.1-.02-.18.05-.24.02-.01.04-.02.05-.03.36-.15.84-.45,1.46-.9.35-.27.75-.6,1.2-1,.44-.4.71-.63.79-.7.07-.07.19-.16.34-.27.84-.64,1.65-1.03,2.41-1.19.76-.15,1.29.03,1.58.55.18.33.19.68.05,1.07-.15.39-.43.83-.84,1.33ZM57.85,45.45c.46-.35.67-.85.62-1.48-.05-.64-.26-1.2-.63-1.69-.11-.14-.25-.28-.42-.43-.17-.15-.39-.29-.64-.43-.25-.14-.54-.2-.87-.18-.32.02-.63.14-.93.36-.08.06-.2.17-.37.33l-.04.03c-.1.07-.19.07-.26,0-.07-.07-.06-.16.03-.27.01-.02.03-.04.05-.05.27-.22.46-.45.58-.68.12-.23.17-.45.14-.66-.03-.2-.08-.38-.14-.52-.07-.15-.15-.28-.26-.4-.62-.72-1.28-.81-1.98-.27-.22.2-.23.5-.01.89.21.39.72,1.12,1.52,2.17.2.26.35.47.46.62.09.12.21.28.37.5.74.98,1.26,1.63,1.56,1.96.3.33.57.48.79.45.17-.07.31-.15.43-.24Z" fill="#d09d21"/><path d="M61.75,42.85c-.09-.12-.09-.22-.01-.31l.07-.04s.07-.03.12-.05c.05-.03.09-.05.11-.07.14-.11.23-.29.26-.55.03-.26,0-.69-.07-1.28-.06-.31-.14-.74-.25-1.28l-.39.29c-.24.13-.43.11-.57-.06-.07-.09-.1-.2-.09-.31.01-.11.06-.2.15-.27.01,0,.02-.01.01-.02.22-.15.44-.28.66-.4l.06-.03c-.31-1.5-.57-2.73-.81-3.7-.1-.42-.28-.64-.53-.67-.15,0-.3.04-.46.12h-.02c-.12.04-.21-.02-.26-.15-.03-.1.01-.19.13-.26.21-.11.59-.25,1.14-.42s.94-.32,1.18-.45c.33-.18.56-.41.7-.68.02-.05.05-.08.11-.11.12-.07.23-.05.33.05,2.2,2.21,4.02,3.87,5.48,4.97.41.3.72.49.93.57.21.09.39.09.54,0l.06-.03.07-.04c.05-.01.11,0,.16.03s.08.08.09.13c.04.11.01.19-.08.24-.02.01-.04.02-.05.02-.46.12-1.15.44-2.08.96-1.03.57-1.71,1.02-2.07,1.35,0,.01-.02.03-.05.04-.09.05-.17.03-.24-.06-.04-.05-.06-.1-.06-.16,0-.06.02-.11.06-.14l.07-.04.05-.03c.27-.15.25-.45-.05-.89-.24-.26-.46-.45-.66-.57-.21-.11-.48-.19-.82-.24-.2-.01-.42,0-.65.03-.43.09-.85.24-1.28.46-.06.03-.15.07-.27.14.05.19.13.56.25,1.09.18.63.35,1.03.51,1.22.16.19.34.24.55.15l.15-.08.07-.04c.12-.03.21.03.27.17.03.1,0,.18-.08.23-.02.01-.04.02-.06.02-.45.12-.84.27-1.16.45-.3.16-.61.41-.95.73,0,.01-.02.03-.04.04-.07.04-.15.02-.23-.06ZM61.52,34.68c.06.28.32,1.45.78,3.51.03,0,.07-.03.12-.06.5-.2.92-.33,1.27-.39.35-.06.75-.06,1.21,0-.37-.36-1.5-1.39-3.39-3.06Z" fill="#d09d21"/><path d="M77.52,31.21c.08.12.07.23-.05.3h-.02s-.06.03-.06.03c-.19.12-.18.51.02,1.17.2.65.45,1.2.74,1.62.09.14.12.27.11.39-.01.12-.07.2-.17.24-.09.03-.18.03-.29-.01-.31-.11-.6-.11-.87,0-.19.07-.49.31-.93.72-.43.41-.86.72-1.28.92-.08.04-.19.09-.34.15-.66.26-1.34.35-2.04.27-.69-.08-1.36-.35-2-.82-.64-.47-1.15-1.1-1.53-1.91-.61-1.27-.64-2.5-.11-3.68.53-1.19,1.5-2.05,2.91-2.61.57-.22,1.12-.35,1.64-.39s.97,0,1.34.13c.37.13.68.29.94.48.26.19.44.41.56.64.2.4.23.81.09,1.22s-.43.75-.89,1c-.12.06-.22.11-.29.14-.5.2-.95.27-1.35.22-.23-.03-.32-.11-.29-.23.1-.36.14-.74.1-1.14-.04-.4-.13-.74-.27-1.03-.14-.29-.32-.51-.54-.66-.23-.15-.46-.18-.7-.08l-.1.04c-.38.2-.61.6-.69,1.19-.08.59-.02,1.22.18,1.9.2.68.46,1.35.8,2.03.37.67.85,1.24,1.45,1.72.6.47,1.11.67,1.52.6.06,0,.1-.01.11-.02.39-.15.32-.75-.2-1.79-.09-.18-.2-.35-.32-.52-.12-.17-.28-.31-.47-.44s-.38-.15-.55-.09l-.05.02h-.02c-.14.02-.22-.04-.25-.18-.01-.11.05-.19.18-.24.68-.1,1.32-.27,1.93-.51.76-.3,1.34-.58,1.74-.86.13-.05.23-.03.3.05Z" fill="#d09d21"/><path d="M124.36,26.9s-.07-.08-.08-.14c0-.06,0-.11.03-.16.07-.09.17-.11.28-.06.31.23.82.48,1.53.76l.3.12c.63.22,1.11.35,1.45.39.08.01.13.03.17.04.26.1.39.27.37.5-.06.7.04,2.09.3,4.15.26,2.07.5,3.22.71,3.46.14-.35.32-.84.56-1.47.24-.63.39-1.01.44-1.15.51-1.32.82-2.27.9-2.83.09-.57-.03-.91-.36-1.04l-.06-.02s-.06-.03-.07-.04c-.05-.03-.07-.07-.08-.13,0-.06,0-.12.04-.17.06-.09.14-.12.23-.08.02,0,.04.02.05.03.35.25.72.45,1.09.6.34.13.73.23,1.16.28.02,0,.04,0,.06,0,.08.03.11.1.1.21-.02.15-.1.21-.22.2-.02,0-.04,0-.08-.02l-.09-.03c-.19-.07-.37-.04-.55.11-.18.14-.4.46-.66.96-.26.5-.57,1.22-.94,2.17-.1.27-.36.94-.77,2.03-.42,1.09-.68,1.77-.79,2.07-.05.13-.16.16-.32.1-.3-.21-.74-.42-1.32-.65-.57-.22-1.03-.36-1.4-.41-.09-.02-.13-.08-.1-.18.18-.97-.07-3.43-.75-7.38-.01.01-.03.04-.04.07-.01.04-.03.06-.04.08-.17.39-.47,1.12-.9,2.22-.51,1.3-.81,2.23-.9,2.79-.09.56.01.92.31,1.07l.11.04.08.03c.1.09.11.19.03.31-.06.09-.13.12-.22.09-.02,0-.04-.02-.05-.03-.35-.25-.72-.45-1.09-.6-.34-.13-.73-.23-1.16-.28-.02,0-.04,0-.06,0-.08-.03-.12-.11-.11-.22.03-.14.11-.21.24-.2l.07.03.14.05c.27.07.55-.12.86-.57.3-.45.72-1.35,1.24-2.7.43-1.1.71-1.92.85-2.45.27-1.07.17-1.7-.3-1.88-.01,0-.03-.01-.06-.02-.02,0-.04,0-.06-.02l-.07-.03Z" fill="#d09d21"/><path d="M135.02,32.07c1.21-.35,2.43-.19,3.64.48,1.21.68,1.99,1.62,2.33,2.83.34,1.21.19,2.39-.44,3.53-.63,1.14-1.56,1.88-2.77,2.24-1.21.35-2.42.19-3.63-.48-1.21-.67-1.98-1.62-2.32-2.83s-.2-2.4.44-3.53,1.55-1.89,2.76-2.24ZM134.91,40.73c.5.17,1.03-.07,1.58-.73.55-.66,1.06-1.57,1.52-2.71.43-1.05.65-2.04.67-2.97.02-.93-.19-1.52-.64-1.77-.05-.03-.09-.04-.12-.05-.5-.18-1.04.07-1.62.75-.58.68-1.11,1.58-1.57,2.72-.42,1.04-.63,2.02-.63,2.95,0,.93.22,1.52.67,1.77.06.03.11.05.14.06Z" fill="#d09d21"/><path d="M148.96,50.46c.07.12.05.21-.06.29-.09.06-.19.06-.29-.02-.25-.33-.86-.88-1.82-1.65-.8-.61-1.39-1-1.79-1.19-.1-.08-.13-.17-.09-.28.07-.12.16-.16.28-.12h.02s.04.05.04.05c.3.19.67.04,1.11-.48.44-.51.98-1.39,1.61-2.64.28-.55.62-1.22,1-2.02-.44.38-1.03.85-1.78,1.42-.75.57-1.37,1.06-1.86,1.48-.49.42-.85.79-1.06,1.12-.05.08-.1.09-.18.04-.02-.01-.03-.03-.03-.04-.17-.3-.39-.55-.66-.77-.15-.12-.37-.26-.65-.41-.28-.15-.48-.27-.59-.36-.18-.14-.31-.31-.38-.49-.05-.11-.03-.21.05-.29.6-.61,1.43-2.26,2.48-4.96-.79.72-1.35,1.23-1.68,1.54-.11.1-.26.24-.45.42-.87.78-1.45,1.36-1.75,1.74-.29.38-.32.67-.08.86l.05.04.05.04h.02c.07.13.06.23-.05.31-.09.07-.18.06-.28-.02-.28-.37-.57-.67-.86-.9-.27-.21-.61-.41-1.04-.6-.1-.08-.12-.17-.08-.27.05-.13.14-.17.27-.12l.06.05.04.04c.24.19.62.13,1.15-.17.52-.31,1.34-.96,2.46-1.96,1.53-1.38,2.39-2.25,2.57-2.62.1-.18.11-.38.02-.58-.04-.05-.07-.09-.1-.11-.01,0-.03-.02-.05-.04-.02-.01-.04-.02-.05-.03l-.06-.05c-.07-.11-.06-.21.04-.3.09-.08.17-.08.25-.02.02.01.03.03.04.04.25.33.58.65.98.97.78.62,1.33.98,1.63,1.09.05.02.08.03.09.04.07.05.08.13.05.25v.02c-1.38,2.43-2.19,4.25-2.44,5.45-.01.05,0,.09.04.12.04.03.09.03.15,0,.02-.02.27-.2.75-.55.47-.35.83-.62,1.08-.81.25-.19.58-.45.99-.78.41-.33.75-.63,1.02-.9.27-.27.48-.52.63-.73.04-.06.1-.09.18-.09.08,0,.15.04.21.09l.03.02s.23.23.53.53c.3.31.54.53.7.67.62.48,1.12.81,1.52.99.1.08.13.17.09.28-.06.13-.16.17-.28.12l-.04-.03-.03-.02-.04-.03c-.11-.08-.26-.05-.46.11-.2.16-.46.49-.79.99-.33.5-.71,1.17-1.14,2-1.28,2.51-1.75,3.89-1.42,4.15l.03.02.07.06Z" fill="#d09d21"/><path d="M148.66,50.72c.09-.12.19-.14.3-.08l.05.06s.04.06.08.1c.04.04.07.07.09.09.14.12.34.16.6.13.26-.03.67-.15,1.23-.36.29-.13.68-.31,1.19-.54l-.38-.31c-.19-.2-.21-.4-.07-.57.07-.09.17-.14.28-.15.11-.01.21.01.29.08,0,.01.02.01.02,0,.19.18.37.36.54.55l.05.05c1.39-.64,2.53-1.18,3.42-1.63.38-.19.56-.42.53-.67-.03-.15-.11-.29-.22-.42l-.02-.02c-.05-.12-.02-.21.09-.29.1-.06.19-.03.28.07.15.18.38.52.66,1.01.29.49.53.84.71,1.05.25.28.53.45.82.53.05,0,.09.03.13.08.09.1.1.21.03.33-1.65,2.64-2.85,4.8-3.59,6.47-.2.47-.31.81-.35,1.04-.03.22,0,.4.12.53l.05.05.05.06c.03.05.03.1,0,.16-.02.06-.06.1-.11.12-.1.06-.18.05-.25-.02-.02-.02-.03-.03-.03-.05-.22-.42-.7-1.02-1.41-1.81-.79-.87-1.39-1.44-1.79-1.71-.02,0-.03-.02-.05-.03-.07-.07-.07-.16,0-.25.04-.05.08-.09.14-.1s.11,0,.15.03l.05.06.04.04c.21.23.49.14.86-.25.2-.29.34-.55.4-.77.07-.22.08-.51.05-.85-.03-.2-.09-.41-.18-.63-.18-.39-.43-.77-.74-1.14-.04-.06-.11-.13-.19-.23-.18.09-.51.25-1,.49-.57.32-.93.58-1.07.78-.15.2-.15.39-.02.57l.12.13.05.06c.05.12.02.22-.1.3-.1.06-.18.05-.24-.03-.01-.02-.03-.03-.03-.05-.22-.41-.45-.75-.7-1.03-.23-.25-.54-.5-.93-.76-.02,0-.03-.02-.05-.03-.06-.06-.06-.14,0-.24ZM156.55,48.63c-.25.12-1.33.64-3.24,1.57.01.03.04.06.08.11.3.44.53.82.67,1.14.14.32.23.72.28,1.18.27-.44,1.01-1.78,2.21-4Z" fill="#d09d21"/><path d="M164.42,63.57l-.08.05c-1.01.7-2.11.92-3.31.67-1.2-.25-2.12-.86-2.79-1.82-.12-.17-.2-.3-.25-.4-.26-.47-.51-.89-.74-1.25-.22-.32-.4-.59-.54-.81-.05-.07-.13-.19-.25-.36-.12-.17-.2-.29-.25-.35-.05-.06-.12-.16-.22-.29-.09-.12-.17-.22-.24-.29-.06-.07-.13-.15-.22-.23-.08-.09-.16-.17-.24-.23-.01,0-.03-.02-.04-.04-.06-.08-.04-.17.04-.25.09-.1.19-.11.3-.03l.04.07s0,.02.01.03c0,.01,0,.02.01.03.08.12.25.17.51.14.26-.03.68-.19,1.25-.47.58-.29,1.27-.7,2.07-1.26.49-.34.92-.66,1.29-.95s.66-.55.87-.77c.21-.21.37-.41.49-.58.12-.17.18-.31.2-.42.02-.11,0-.2-.04-.26v-.02s-.04-.02-.04-.02c-.02-.03-.03-.06-.04-.07-.03-.05-.02-.1,0-.16.03-.06.07-.09.13-.12.11-.04.19-.02.24.06.01.02.02.04.02.05.13.36.51,1,1.14,1.94l.18.27h.01c.45.66.88,1.22,1.27,1.67.07.08.17.21.29.38.66.97.9,2.05.71,3.26-.2,1.2-.8,2.16-1.81,2.85ZM162.62,61.12l.08-.05c.48-.33.89-.64,1.22-.94.34-.3.63-.61.88-.94.25-.33.39-.67.41-1,.02-.34-.07-.66-.29-.98-.03-.04-.09-.12-.18-.22-.21-.19-.56-.16-1.06.1s-1.37.82-2.61,1.67c-1.23.84-2.06,1.46-2.49,1.85-.44.39-.6.71-.51.96.07.12.12.21.15.26.22.32.49.52.81.62.32.09.68.08,1.08-.03.4-.12.8-.28,1.19-.48.4-.21.83-.47,1.31-.8Z" fill="#d09d21"/><path d="M53.73,160.6c.53,1.4.45,2.45-.25,3.14-.41.4-.95.61-1.61.61-.66,0-1.31-.14-1.95-.43-.64-.28-1.22-.65-1.75-1.1l-.16-.14c-.91-.82-1.49-1.69-1.72-2.59s-.11-1.62.39-2.14c.31-.32.69-.47,1.14-.47.45,0,.87.17,1.25.5.33.29.54.64.64,1.06.1.42.04.77-.17,1.07-.07.09-.15.15-.25.17s-.2.02-.29,0c-.09-.02-.21-.01-.35.02-.14.03-.27.11-.39.23-.23.23-.35.53-.35.92s.18.73.55,1.04l.09.07c.4.3.82.41,1.25.34s.78-.31,1.03-.71c.12-.2.21-.4.27-.6s.07-.4.03-.63c-.03-.22-.06-.38-.09-.47-.02-.09-.08-.25-.16-.48-.01-.04-.03-.08-.03-.1-.1-.3-.33-.83-.69-1.6-.72-1.57-.71-2.69.04-3.35.25-.22.54-.36.86-.42s.63-.04.93.04c.3.08.61.21.95.39.34.18.63.36.87.53.24.17.48.36.72.57.72.65,1.19,1.3,1.41,1.97.21.67.19,1.16-.07,1.48-.18.22-.42.34-.74.37-.32.03-.62-.07-.9-.28-.01,0-.03-.02-.06-.04-.03-.02-.05-.03-.06-.04-.26-.22-.42-.48-.48-.77-.06-.29-.03-.54.09-.74.05-.08.17-.12.38-.13.21,0,.37-.07.49-.19.04-.04.08-.09.12-.16.04-.06.07-.16.1-.27.03-.12,0-.26-.06-.42s-.2-.33-.38-.5l-.12-.1c-.36-.31-.71-.45-1.05-.42-.34.03-.58.19-.73.47-.19.37-.14.87.14,1.52.12.26.49,1.19,1.12,2.79Z" fill="#d09d21"/><path d="M54.81,163.4c-.04-.07-.05-.15-.03-.24.02-.09.07-.15.15-.2h.02c.54-.29,1.2-.34,1.96-.17.38-.64.66-1.19.83-1.64.18-.45.26-.78.27-.99s-.05-.34-.16-.41c0,0-.02,0-.03-.01-.01,0-.02,0-.03-.01-.03-.02-.05-.04-.06-.05-.04-.04-.05-.09-.05-.15,0-.06.03-.11.07-.14.08-.07.16-.09.23-.04.02.01.03.03.04.04.26.27.85.71,1.79,1.32.04.02.13.08.27.17.14.09.23.14.26.16.03.02.1.06.21.13.11.07.19.11.23.13.04.02.1.06.19.1.09.05.16.08.21.11.05.03.12.06.2.09.08.03.16.06.23.08.02,0,.04,0,.05.02.08.05.1.12.06.23-.02.06-.06.1-.11.13-.05.03-.11.03-.15,0-.02,0-.04-.01-.06-.03-.1-.07-.21-.08-.33-.04-.12.05-.27.16-.45.35s-.36.42-.57.7c-.2.28-.45.65-.74,1.1.08.07.13.12.16.15.86.87,1.27,1.79,1.22,2.76,0,.05,0,.09,0,.12l.42-.65c.8-1.26,1.32-2.15,1.56-2.67.24-.52.25-.85.04-.99h-.02s-.05-.05-.06-.06c-.09-.09-.08-.19.03-.29.08-.07.16-.09.23-.04.02.01.03.03.04.04.05.06.11.12.17.18.06.06.12.11.16.14.05.04.11.09.19.15.08.06.14.1.17.13.04.03.11.08.21.15s.18.12.21.14c.03.02.12.08.26.17s.23.15.27.18c.95.58,1.6.94,1.96,1.05.02,0,.04,0,.05.02.08.05.1.12.06.23-.02.05-.05.09-.1.12-.05.03-.1.04-.16.02-.02,0-.04-.01-.07-.03,0,0-.01-.01-.02-.03h-.02c-.07-.06-.16-.07-.26-.04s-.24.09-.41.21c-.17.12-.35.29-.55.5-.21.22-.45.51-.73.89-.28.38-.58.81-.89,1.31-.5.78-.87,1.45-1.13,2.01-.26.56-.41.98-.44,1.24-.04.26,0,.45.1.55,0,.01.02.03.04.04.03.02.04.02.05.02l.07.04c.08.11.07.21-.03.3-.08.08-.15.09-.23.04-.02-.01-.03-.03-.04-.04-.07-.07-.15-.15-.24-.23s-.17-.15-.24-.21c-.07-.06-.17-.13-.3-.22-.13-.09-.22-.16-.29-.2s-.18-.13-.35-.24c-.17-.11-.29-.19-.36-.24-.86-.52-1.47-.84-1.82-.95-.02,0-.04,0-.05-.02-.07-.04-.09-.12-.06-.23.06-.13.15-.19.26-.16l.07.04c.26.16.68-.15,1.26-.92,0-.02.02-.05.04-.09.23-.33.38-.65.45-.97.22-1.01-.14-1.98-1.08-2.91-.02-.01-.04-.04-.07-.07-.03.04-.08.11-.14.21-.06.09-.11.17-.15.22-.79,1.24-1.31,2.14-1.55,2.68-.25.55-.26.9-.05,1.04l.06.04c.08.1.08.2-.02.31-.08.08-.15.09-.23.04-.02-.01-.03-.03-.04-.04-.25-.27-.8-.68-1.63-1.24-.07-.04-.19-.12-.37-.23s-.3-.18-.37-.22c-.07-.04-.17-.1-.31-.17-.13-.08-.24-.14-.33-.17s-.18-.08-.29-.13c-.11-.05-.21-.09-.31-.12-.02,0-.04,0-.05-.02-.07-.04-.09-.12-.06-.23.04-.14.13-.19.26-.16l.07.04s.02.03.04.04c.03.02.04.02.05.02.14.05.32,0,.54-.14.22-.15.53-.46.93-.93.4-.47.85-1.1,1.34-1.88l.13-.2c-.21-.05-.44-.05-.69-.02-.25.03-.45.1-.62.2-.13.06-.25.06-.35,0-.03-.02-.07-.06-.1-.12Z" fill="#d09d21"/><path d="M62.86,172.59c.04-.14.12-.21.24-.19l.07.03s.06.04.11.06c.05.02.09.04.12.04.17.05.37.01.6-.12.23-.13.55-.4.97-.81.21-.23.5-.55.87-.96l-.46-.13c-.25-.11-.34-.28-.29-.49.03-.11.1-.19.19-.25.1-.06.2-.07.3-.04.01,0,.02,0,.03,0,.24.08.48.18.71.28l.06.03c1-1.13,1.82-2.07,2.45-2.82.27-.33.34-.6.22-.81-.09-.12-.21-.22-.37-.29h-.02c-.09-.09-.1-.19-.03-.31.06-.09.16-.1.28-.05.21.1.54.32,1,.66.46.33.81.56,1.06.67.34.15.66.2.95.15.05-.01.1,0,.15.02.12.06.18.15.15.29-.46,3.04-.69,5.47-.7,7.27,0,.5.04.86.09,1.08.06.22.16.36.32.43l.06.03.07.03s.06.08.07.14c0,.06-.01.11-.05.15-.07.09-.15.12-.24.08-.02,0-.04-.02-.05-.03-.37-.29-1.03-.65-1.99-1.08-1.06-.48-1.82-.76-2.29-.84-.02,0-.04,0-.06-.01-.09-.04-.12-.12-.1-.23.01-.06.04-.11.09-.15.05-.04.1-.05.15-.03l.07.03.05.02c.28.12.5-.06.68-.57.07-.34.09-.63.06-.86-.03-.23-.13-.49-.29-.79-.11-.17-.25-.33-.41-.5-.32-.29-.7-.53-1.12-.74-.06-.04-.15-.08-.26-.13-.13.15-.36.43-.71.84-.39.51-.61.89-.66,1.13-.05.24.02.41.21.52l.16.07.07.03c.09.08.1.19.02.31-.06.09-.14.11-.23.07-.02,0-.04-.02-.05-.03-.36-.29-.71-.5-1.04-.65-.3-.14-.68-.25-1.14-.32-.02,0-.04,0-.06-.01-.08-.03-.11-.11-.09-.21ZM69.18,167.59c-.18.21-.96,1.11-2.32,2.7.02.02.06.04.12.07.45.28.8.53,1.05.77s.5.56.72.96c.07-.51.21-2.01.43-4.5Z" fill="#d09d21"/><path d="M75.12,169.12s-.08-.07-.09-.13c0-.06,0-.11.02-.16.07-.09.16-.12.27-.09.34.2.86.41,1.56.63.08.02.2.05.37.08h-.02c.23.06,1.05.25,2.44.55.25.06.43.1.54.14,1.11.33,1.98.82,2.62,1.48.64.66.85,1.36.64,2.08l-.02.05c-.16.54-.49.91-.98,1.1-.49.19-1.13.25-1.93.19.51.27.85.77,1.02,1.51.15.7.29,1.19.43,1.48.14.29.29.46.47.51,0,0,.02,0,.04,0,.02,0,.03,0,.04,0,.06.01.12,0,.19-.06s.12-.11.15-.17c.05-.1.08-.25.09-.43l.03-.1c.06-.08.16-.11.28-.07.05.02.08.06.09.11.01.05,0,.1-.01.15-.09.15-.16.3-.21.45-.06.16-.18.33-.34.49-.16.16-.36.31-.59.45s-.51.23-.82.28-.64.02-.97-.08c-.15-.04-.34-.13-.58-.25-.3-.17-.54-.43-.72-.79-.18-.36-.3-.73-.37-1.12-.07-.39-.13-.78-.19-1.16s-.15-.71-.28-1-.31-.46-.55-.53c-.06-.02-.1-.03-.13-.03-.59,2.02-.75,3.1-.48,3.26.01.01.03.02.05.03s.04,0,.05,0l.08.02c.1.07.12.17.05.3-.05.1-.12.13-.21.1-.02,0-.04-.02-.05-.03-.07-.04-.13-.08-.2-.12-.07-.03-.12-.06-.17-.08-.04-.02-.11-.05-.18-.08s-.13-.05-.16-.07c-.03-.02-.1-.04-.2-.08s-.17-.06-.2-.06c-.03,0-.12-.04-.27-.08-.14-.05-.24-.08-.29-.09-1.22-.33-2-.5-2.34-.51-.02,0-.04,0-.06,0-.09-.03-.14-.1-.13-.2.02-.14.09-.22.22-.22l.08.02s.03.02.06.03c.04.01.06.01.08.01.52.03,1.12-1.1,1.79-3.39.42-1.42.66-2.45.71-3.1.06-.67-.12-1.07-.54-1.19,0,0-.03,0-.06-.01-.03,0-.05,0-.07-.01l-.08-.02ZM77.74,174.22v.04s.04.02.09.04.09.03.12.04c.73.22,1.35.21,1.85-.01.5-.22.86-.65,1.08-1.28l.02-.07c.21-.73.2-1.3-.06-1.72s-.75-.74-1.48-.95h-.03c-.06-.02-.13,0-.19.05-.06.06-.14.16-.22.31-.08.15-.16.33-.24.52-.08.19-.17.46-.28.8-.11.34-.21.67-.31.99-.1.32-.22.73-.37,1.24Z" fill="#d09d21"/><path d="M83.73,180.03c0-.13.05-.21.19-.24h.08s.02.02.03.02.02,0,.03,0c.14.02.29-.07.45-.28.15-.21.32-.61.51-1.22.19-.61.35-1.39.5-2.34.09-.58.15-1.11.19-1.58s.05-.85.04-1.14c-.01-.3-.04-.54-.09-.74s-.1-.34-.16-.43-.14-.14-.22-.15h-.02s-.03,0-.04,0c-.04,0-.06-.01-.08-.02-.05-.02-.09-.05-.11-.11-.02-.06-.02-.11,0-.17.05-.1.11-.14.2-.13.02,0,.04.01.05.02.35.15,1.07.31,2.17.5l.17.03c.11.02.26.04.45.08.19.03.38.06.58.1,1.92.3,3.2.43,3.86.4.05,0,.08.02.12.07.03.05.04.1.04.16-.07,1.12-.07,2.06,0,2.83,0,.02.02.11.05.26.04.18,0,.3-.15.35-.02.01-.04.02-.08.01-.06,0-.1-.05-.13-.11-.03-.07-.04-.13-.03-.2,0-.03,0-.07.01-.13s0-.11.01-.15c0-.05,0-.09,0-.13-.01-.68-.28-1.29-.8-1.83s-1.09-.88-1.68-.99l-.7-.11c-.17.13-.32.4-.43.83-.12.43-.25,1.1-.4,2.01-.07.56.16.89.7.97.19.03.37,0,.55-.08.18-.08.32-.21.43-.39.05-.1.08-.18.09-.24.02-.14.03-.31.02-.51l.02-.12c.04-.15.13-.21.26-.19.12.06.16.17.11.35-.07.25-.11.42-.12.51l-.36,2.35c-.03.17-.04.35-.04.52,0,.18-.07.28-.21.3-.13-.02-.19-.11-.19-.26l.02-.12c.07-.2.11-.36.13-.5.01-.1.01-.21,0-.35-.04-.24-.13-.44-.27-.61-.14-.17-.31-.27-.5-.29-.22-.03-.42.03-.61.19-.19.16-.32.43-.38.82-.19,1.4-.18,2.24.03,2.5.44.07.69.1.75.1.73.08,1.44-.11,2.12-.57.68-.46,1.08-1.05,1.19-1.76,0-.05.02-.09.04-.12.05-.11.12-.15.21-.14.02,0,.05.02.07.03.11.1.12.23.03.38-.01.02-.03.06-.06.11s-.05.09-.06.11c-.29.71-.58,1.62-.86,2.71-.04.12-.11.18-.22.16-.68-.24-1.75-.48-3.22-.7-.2-.03-.5-.07-.89-.13-.39-.06-.68-.1-.87-.13l-.12-.02c-.08-.01-.22-.03-.43-.06-.2-.03-.34-.05-.42-.05s-.2-.02-.35-.04c-.15-.02-.28-.03-.37-.03-.09,0-.2,0-.32,0-.12,0-.23,0-.33.01-.02,0-.04,0-.06,0-.1-.02-.15-.08-.15-.2Z" fill="#d09d21"/><path d="M102.37,177.99c.03.15-.03.23-.17.26h-.02s-.07,0-.07,0c-.22.04-.37.4-.43,1.07s-.05,1.26.05,1.76c.03.16,0,.29-.05.4-.06.1-.14.16-.25.15-.09,0-.18-.04-.26-.12-.24-.22-.51-.33-.79-.34-.2,0-.57.09-1.12.3-.55.2-1.06.32-1.52.34-.08,0-.21,0-.36,0-.7-.02-1.36-.2-1.96-.54s-1.1-.84-1.5-1.52c-.4-.67-.62-1.45-.66-2.33-.06-1.39.38-2.52,1.32-3.39s2.16-1.29,3.65-1.24c.61.02,1.15.11,1.65.28.49.17.88.38,1.17.64.29.26.51.53.67.8.16.28.25.55.26.8.03.44-.11.82-.39,1.14-.29.32-.68.51-1.19.56-.14.01-.24.02-.32.01-.53-.02-.97-.12-1.31-.32-.19-.12-.25-.23-.17-.32.24-.29.41-.62.53-1,.12-.38.17-.72.15-1.04s-.09-.59-.24-.81c-.15-.22-.35-.34-.6-.35h-.1c-.43.03-.79.3-1.09.81-.3.51-.49,1.11-.57,1.8s-.1,1.41-.06,2.15c.08.75.3,1.46.66,2.12.36.66.74,1.04,1.15,1.14.06.02.1.03.11.03.41.01.58-.56.51-1.7-.02-.2-.05-.4-.09-.59s-.13-.39-.26-.58c-.13-.19-.29-.29-.47-.29h-.06s-.02,0-.02,0c-.14-.04-.19-.13-.15-.27.03-.1.12-.16.25-.15.66.17,1.3.26,1.95.28.81.02,1.45-.01,1.91-.1.14,0,.22.06.26.17Z" fill="#d09d21"/><path d="M104.34,174.05c.78-.97,1.85-1.53,3.22-1.68s2.53.18,3.49.97c.96.79,1.51,1.83,1.65,3.11s-.19,2.41-.97,3.38c-.78.97-1.85,1.53-3.21,1.67s-2.52-.18-3.49-.97c-.97-.79-1.52-1.83-1.65-3.11-.13-1.28.19-2.41.96-3.38ZM109.18,181.12c.5-.14.79-.64.86-1.49.07-.85-.03-1.87-.31-3.06-.25-1.09-.63-2.02-1.15-2.79-.51-.77-1.02-1.12-1.52-1.07-.05,0-.09.01-.12.02-.5.14-.8.64-.89,1.52-.09.88,0,1.91.27,3.09.25,1.08.64,1.99,1.16,2.75.52.75,1.04,1.1,1.54,1.05.07,0,.12-.02.15-.03Z" fill="#d09d21"/><path d="M114.06,172.82c.64-1.07,1.63-1.77,2.96-2.1,1.33-.33,2.53-.16,3.59.49,1.06.65,1.75,1.6,2.05,2.85s.14,2.41-.5,3.48c-.64,1.07-1.63,1.77-2.95,2.09-1.32.33-2.52.16-3.58-.49s-1.75-1.6-2.06-2.85c-.31-1.25-.14-2.41.49-3.48ZM119.81,179.17c.48-.21.7-.74.65-1.59s-.29-1.85-.72-2.99c-.4-1.05-.9-1.92-1.51-2.61s-1.16-.97-1.66-.85c-.05.01-.09.03-.12.04-.48.2-.7.75-.67,1.63s.26,1.89.69,3.03c.39,1.03.9,1.89,1.53,2.56s1.18.95,1.67.83c.07-.02.11-.03.14-.05Z" fill="#d09d21"/><path d="M131.93,170.44l.03.08c.44,1.13.4,2.24-.11,3.33s-1.31,1.85-2.39,2.27c-.19.07-.34.12-.44.15-.51.14-.97.28-1.37.42-.35.14-.65.25-.9.34-.08.03-.21.08-.4.16-.19.08-.32.13-.39.17-.07.03-.18.08-.32.14-.14.06-.25.12-.33.16-.08.04-.17.1-.27.16-.1.06-.2.12-.28.18-.01.01-.03.02-.05.03-.09.04-.17,0-.23-.09-.08-.11-.06-.21.04-.3l.07-.03s.02,0,.03,0c.01,0,.02,0,.03,0,.13-.05.22-.21.25-.46.03-.26-.03-.69-.17-1.31-.14-.62-.39-1.38-.74-2.27-.21-.55-.42-1.04-.62-1.46-.2-.42-.38-.76-.54-1.01-.16-.25-.31-.45-.45-.6-.14-.15-.26-.25-.36-.29-.1-.04-.19-.05-.26-.02h-.02s-.02.03-.03.03c-.04.01-.06.02-.08.02-.05.01-.1,0-.15-.04-.05-.04-.08-.09-.08-.15-.01-.11.03-.18.11-.21.02,0,.04-.01.06-.01.37-.05,1.08-.27,2.12-.66l.3-.12h0c.73-.3,1.36-.58,1.89-.86.09-.05.24-.12.43-.19,1.08-.42,2.18-.4,3.29.06,1.11.46,1.89,1.26,2.33,2.39ZM129.15,171.62l-.03-.08c-.21-.54-.42-1-.63-1.39-.21-.39-.44-.74-.71-1.06-.26-.32-.55-.53-.87-.62-.32-.1-.66-.08-1.01.06-.05.02-.13.06-.26.12-.23.16-.28.5-.15,1.04.14.54.47,1.5,1.02,2.89.53,1.37.94,2.31,1.22,2.81.28.51.55.74.81.7.13-.04.23-.06.28-.09.35-.14.61-.35.78-.64.17-.29.24-.64.21-1.05s-.09-.83-.19-1.25c-.11-.43-.27-.91-.48-1.44Z" fill="#d09d21"/><path d="M144.65,164.91c.09-.02.16.02.23.11s.1.19.09.3c0,.04,0,.09,0,.15,0,.06,0,.1,0,.12.08.78-.07,1.51-.43,2.2-.37.69-.88,1.25-1.56,1.68-1.13.72-2.27.95-3.4.69-1.13-.26-2.07-.9-2.82-1.92-.82-1.13-1.09-2.3-.83-3.49s.98-2.19,2.16-2.99l.14-.09c.49-.31.99-.5,1.5-.59.52-.08.98-.07,1.39.04s.77.27,1.09.49c.32.22.55.46.71.74.26.47.31.92.15,1.36-.16.43-.47.8-.93,1.09-.4.25-.68.34-.84.26-.05-.03-.07-.08-.07-.15.02-.27-.06-.61-.26-1.01-.2-.4-.44-.76-.74-1.08-.3-.33-.64-.57-1.01-.72-.37-.16-.7-.14-.98.03-.04.02-.1.07-.18.14-.24.23-.31.62-.22,1.17s.31,1.12.65,1.71.78,1.14,1.32,1.66c.64.58,1.27.95,1.9,1.1.63.15,1.18.1,1.65-.14.01,0,.04-.02.08-.04.04-.02.07-.04.09-.05.27-.17.5-.4.7-.69s.31-.61.35-.95c0-.03,0-.08,0-.15l-.03-.18s-.03-.1-.07-.17-.06-.12-.06-.14c-.03-.07-.03-.15-.02-.23s.06-.14.13-.19c.02-.01.06-.03.12-.05Z" fill="#d09d21"/><path d="M143.53,159.63c.11-1.24.69-2.3,1.75-3.18,1.06-.88,2.2-1.25,3.44-1.13,1.24.12,2.27.68,3.1,1.67.82.99,1.18,2.11,1.07,3.35-.11,1.24-.69,2.3-1.74,3.17-1.05.87-2.2,1.25-3.44,1.13s-2.28-.68-3.1-1.67c-.82-.99-1.18-2.11-1.08-3.34ZM151.47,162.83c.34-.4.3-.97-.11-1.72s-1.07-1.54-1.96-2.37c-.82-.77-1.65-1.33-2.5-1.68s-1.47-.37-1.86-.04c-.04.03-.07.06-.09.09-.34.39-.31.98.11,1.76s1.06,1.58,1.94,2.42c.81.76,1.64,1.3,2.49,1.64.85.33,1.48.34,1.87.02.05-.04.09-.08.11-.1Z" fill="#d09d21"/><path d="M154.43,156.41c.26-.26.56-.42.88-.46.32-.04.58.03.78.22.19.19.27.45.22.78-.05.32-.2.62-.46.88-.26.26-.55.41-.87.45-.32.04-.58-.03-.78-.22-.19-.19-.27-.45-.22-.78s.2-.61.46-.87Z" fill="#d09d21"/></svg>